<?xml version="1.0" encoding="UTF-8" standalone="no"?>
<!-- Created with Inkscape (http://www.inkscape.org/) -->

<svg
   xmlns:dc="http://purl.org/dc/elements/1.1/"
   xmlns:cc="http://creativecommons.org/ns#"
   xmlns:rdf="http://www.w3.org/1999/02/22-rdf-syntax-ns#"
   xmlns:svg="http://www.w3.org/2000/svg"
   xmlns="http://www.w3.org/2000/svg"
   xmlns:sodipodi="http://sodipodi.sourceforge.net/DTD/sodipodi-0.dtd"
   xmlns:inkscape="http://www.inkscape.org/namespaces/inkscape"
   width="267.97321mm"
   height="68.492393mm"
   viewBox="0 0 267.97321 68.492393"
   version="1.1"
   id="svg6668"
   inkscape:version="0.92.0 r15299"
   sodipodi:docname="abbot.svg">
  <defs
     id="defs6662" />
  <sodipodi:namedview
     id="base"
     pagecolor="#ffffff"
     bordercolor="#666666"
     borderopacity="1.0"
     inkscape:pageopacity="0.0"
     inkscape:pageshadow="2"
     inkscape:zoom="0.35"
     inkscape:cx="632.62652"
     inkscape:cy="91.369197"
     inkscape:document-units="mm"
     inkscape:current-layer="layer1"
     showgrid="false"
     fit-margin-top="0"
     fit-margin-left="0"
     fit-margin-right="0"
     fit-margin-bottom="0"
     inkscape:window-width="1280"
     inkscape:window-height="744"
     inkscape:window-x="-4"
     inkscape:window-y="-4"
     inkscape:window-maximized="1" />
  <metadata
     id="metadata6665">
    <rdf:RDF>
      <cc:Work
         rdf:about="">
        <dc:format>image/svg+xml</dc:format>
        <dc:type
           rdf:resource="http://purl.org/dc/dcmitype/StillImage" />
        <dc:title></dc:title>
      </cc:Work>
    </rdf:RDF>
  </metadata>
  <g
     inkscape:label="Layer 1"
     inkscape:groupmode="layer"
     id="layer1"
     transform="translate(154.90922,-104.51573)">
    <g
       transform="translate(-790.75196,-646.40351)"
       id="g6645">
      <path
         style="fill:#159bd7;stroke-width:0.26458332"
         inkscape:connector-curvature="0"
         d="m 708.91763,751.91925 h -72.07462 v 11.07625 h 68.47655 v 0.01 c 1.98226,0 3.565,1.58961 3.565,3.56314 v 37.19433 l -0.009,0.0315 c -0.0122,1.96479 -1.61079,3.54383 -3.57188,3.54383 h -53.81334 c -1.97009,0 -3.58246,-1.59174 -3.58246,-3.57558 v -15.02596 c 0,-1.97352 1.61237,-3.57557 3.58246,-3.57557 h 46.29759 v -11.06144 h -49.90121 c -6.09944,0 -11.04398,4.93554 -11.04398,11.03074 v 22.23903 c 0,6.09944 4.94454,11.04212 11.04398,11.04212 h 61.03064 c 6.10473,0 11.04212,-4.94268 11.04212,-11.04212 v -44.40449 c 0,-6.09865 -4.93739,-11.04556 -11.04212,-11.04556"
         id="path6497" />
      <path
         style="stroke-width:0.26458332"
         id="path6499"
         d="m 749.95741,786.43308 h 7.49592 l -3.71317,-11.12467 h -0.10292 z m 10.91883,-18.81161 8.63468,25.82836 c 1.02473,3.15119 1.75022,3.88038 3.54965,3.88038 h 1.75551 v 4.54687 h -18.85395 v -4.54687 h 1.54623 c 1.54993,0 2.83898,-0.20584 2.83898,-0.76755 0,-0.53076 -0.0516,-1.09829 -0.25903,-1.87511 l -1.07791,-3.71131 h -10.54047 l -0.62998,2.06772 c -0.56382,1.8034 -0.77311,2.56911 -0.77311,3.29459 0,0.83371 1.81425,0.99166 3.21919,0.99166 h 1.48563 v 4.54687 h -15.1884 v -4.54687 h 1.75921 c 1.80869,0 2.51963,-0.72919 3.56817,-3.88038 l 8.62727,-25.82836 z"
         inkscape:connector-curvature="0" />
      <path
         style="stroke-width:0.26458332"
         id="path6501"
         d="m 786.39795,789.77715 c 0,5.2795 1.18454,8.42539 4.07485,8.42539 2.90882,0 4.0841,-3.14589 4.0841,-8.42539 0,-5.26494 -1.17528,-8.41428 -4.0841,-8.41428 -2.89031,0 -4.07485,3.14934 -4.07485,8.41428 m -8.58494,-15.79827 c 0,-1.45971 -0.3601,-2.22567 -1.85843,-2.22567 h -2.37437 v -4.13174 h 12.81774 v 12.85822 c 1.90791,-2.17064 4.34128,-3.56446 6.6548,-3.56446 7.75335,0 10.6418,6.05631 10.6418,12.86192 0,6.82387 -2.88845,12.86563 -10.6418,12.86563 -3.25385,0 -6.14998,-1.1348 -7.95153,-3.97748 l -1.49277,3.21548 h -5.79544 z"
         inkscape:connector-curvature="0" />
      <path
         style="stroke-width:0.26458332"
         id="path6503"
         d="m 815.38146,789.77715 c 0,5.2795 1.1991,8.42539 4.0857,8.42539 2.89613,0 4.07855,-3.14589 4.07855,-8.42539 0,-5.26494 -1.18269,-8.41428 -4.07855,-8.41428 -2.8866,0 -4.0857,3.14934 -4.0857,8.41428 m -8.58149,-15.79827 c 0,-1.45971 -0.3638,-2.22567 -1.84732,-2.22567 h -2.38178 v -4.13174 h 12.81059 v 12.85822 c 1.91717,-2.17064 4.34129,-3.56446 6.66592,-3.56446 7.75308,0 10.64921,6.05631 10.64921,12.86192 0,6.82387 -2.89613,12.86563 -10.64921,12.86563 -3.25411,0 -6.14998,-1.1348 -7.95523,-3.97748 l -1.50389,3.21548 h -5.78829 z"
         inkscape:connector-curvature="0" />
      <path
         style="stroke-width:0.26458332"
         id="path6505"
         d="m 844.32053,789.779 c 0,6.09494 1.08347,8.73178 4.18518,8.73178 3.09615,0 4.17777,-2.63684 4.17777,-8.73178 0,-6.09494 -1.08162,-8.72834 -4.17777,-8.72834 -3.10171,0 -4.18518,2.6334 -4.18518,8.72834 m 17.51542,0 c 0,8.27088 -5.63589,12.86378 -13.33024,12.86378 -7.71102,0 -13.33368,-4.5929 -13.33368,-12.86378 0,-8.26558 5.62293,-12.86377 13.33368,-12.86377 7.69435,0 13.33024,4.59819 13.33024,12.86377"
         inkscape:connector-curvature="0" />
      <path
         style="stroke-width:0.26458332"
         id="path6507"
         d="m 898.67494,790.19757 v 4.02908 c 0,2.37437 -0.5125,3.77931 -2.47729,3.77931 -1.18639,0 -1.75022,-0.88503 -1.75022,-1.97406 v -14.20601 h 6.34286 v -4.13543 h -6.3426 v -9.59724 h -5.12497 c -0.41884,4.2807 -1.75737,9.59697 -6.92309,9.59697 h -8.05789 v -9.59697 h -5.11069 c -0.41698,4.2807 -1.76292,9.59697 -6.92309,9.59697 v 4.13544 h 3.4597 v 12.96643 c 0,5.27209 2.94375,7.85046 8.25632,7.85046 6.21427,0 8.67886,-2.7821 8.67886,-7.85046 v -4.59475 h -4.11956 v 4.02907 c 0,2.37438 -0.5215,3.77931 -2.47888,3.77931 -1.1991,0 -1.76292,-0.88503 -1.76292,-1.97405 v -14.20601 h 11.53583 v 12.96643 c 0,5.27209 2.93079,7.85046 8.25447,7.85046 6.1976,0 8.68416,-2.7821 8.68416,-7.85046 v -4.59475 h -4.141 z"
         inkscape:connector-curvature="0" />
    </g>
  </g>
</svg>
