<?xml version="1.0" encoding="UTF-8" standalone="no"?>
<!-- Created with Inkscape (http://www.inkscape.org/) -->

<svg
   xmlns:dc="http://purl.org/dc/elements/1.1/"
   xmlns:cc="http://creativecommons.org/ns#"
   xmlns:rdf="http://www.w3.org/1999/02/22-rdf-syntax-ns#"
   xmlns:svg="http://www.w3.org/2000/svg"
   xmlns="http://www.w3.org/2000/svg"
   version="1.1"
   width="759.13306"
   height="115.37397"
   id="svg3353">
  <defs
     id="defs3355" />
  <g
     transform="translate(-69.004981,-486.10377)"
     id="layer1">
    <path
       d="m 266.27923,509.59722 c -6.84971,-22.81561 -52.21794,-29.36365 -101.3417,-14.59674 -2.31675,0.67298 -4.59097,1.42333 -6.84971,2.2046 43.92557,-10.18368 82.08824,-3.48094 88.12188,16.66209 6.65245,22.06914 -27.78949,51.92399 -76.91326,66.6677 -1.13324,0.33261 -2.2278,0.65364 -3.34558,0.96693 l 22.88524,-79.07531 -0.10423,0.0155 0.0542,-0.0155 -5.99881,0.41384 c -11.22023,1.11004 -23.16758,3.45386 -35.38181,7.12045 -49.12376,14.75918 -83.399404,45.20192 -76.522616,68.04074 6.841975,22.80787 52.225676,29.34043 101.357176,14.57738 2.31289,-0.69618 4.59871,-1.43491 6.84972,-2.18138 -43.93718,10.16821 -82.099862,3.46934 -88.145084,-16.65821 -6.640863,-22.09623 27.801084,-51.94721 76.940324,-66.69864 1.03268,-0.30943 2.06922,-0.60724 3.09417,-0.90118 l -22.57968,78.99794 5.99494,-0.39063 c 11.23183,-1.11776 23.16371,-3.47321 35.3702,-7.12818 49.1199,-14.75145 83.3762,-45.21739 76.51489,-68.0214"
       id="path52"
       style="fill:#005295;fill-opacity:1;fill-rule:nonzero;stroke:none" />
    <path
       d="m 322.40204,533.97114 c -6.00655,0 -11.78103,0.28622 -17.30799,0.87024 l -11.98991,38.29032 c 3.23727,0.35196 9.9787,0.77354 17.69478,0.77354 13.91214,0 23.31842,-1.63605 30.74827,-5.31809 7.90947,-3.918 13.15022,-10.8528 13.15022,-18.56501 0,-5.55015 -3.17539,-9.45656 -8.60565,-12.0866 -5.24075,-2.74607 -13.30492,-3.9644 -23.68972,-3.9644 z m 480.65947,0 c -6.38558,0 -12.82917,0.32489 -17.1146,0.96694 l -11.9899,38.67709 13.53698,0 4.73794,-15.56754 4.15779,0 c 5.43026,0 8.13379,1.39625 8.79904,6.18834 0.57242,4.85011 1.26473,8.32718 1.83716,9.3792 l 14.11714,0 c -1.14098,-1.63604 -1.65925,-6.86905 -2.51402,-11.31306 -0.57242,-3.56602 -2.28195,-6.10711 -6.09164,-7.15525 l 0,-0.19339 c 8.2885,-1.63991 14.60061,-5.27556 14.60061,-11.11966 0,-3.68206 -2.96267,-6.12259 -7.15527,-7.63874 -4.47881,-1.75593 -10.82571,-2.22393 -16.92123,-2.22393 z m -401.0814,0.1934 -31.4251,39.35392 14.69727,0 7.54203,-10.15273 18.46832,0 1.35369,10.15273 14.40721,0 -7.44535,-39.35392 -17.59807,0 z m 65.1709,0 -12.18328,39.45063 12.76344,0 4.25447,-13.82706 c 1.90678,-6.25409 3.39585,-11.80813 4.06111,-15.66423 l 0.28991,0 c 1.71727,4.79596 3.4268,8.35425 6.28504,13.73037 l 8.99242,15.76092 14.21382,0 12.18329,-39.45063 -12.86013,0 -4.35118,14.31052 c -1.71726,5.78609 -2.71126,10.17981 -2.99747,14.21382 l -0.28992,0 c -1.52388,-4.32796 -3.22953,-8.51282 -5.80157,-13.53698 l -8.50896,-14.98736 -16.05099,0 z m 99.11004,0 -31.42513,39.35392 14.69729,0 7.54203,-10.15273 18.4683,0 1.3537,10.15273 14.40722,0 -7.44534,-39.35392 -17.59807,0 z m 65.17089,0 -12.27997,39.45063 13.73037,0 5.1247,-16.63116 23.30295,0 -5.02803,16.63116 13.73037,0 12.18329,-39.45063 -13.82706,0 -4.73794,15.27745 -23.30294,0 4.83463,-15.27745 -13.73037,0 z m 84.41275,0 -12.18329,39.45063 39.35395,0 2.22392,-7.25196 -25.62357,0 2.99748,-9.57258 22.72278,0 2.32063,-7.05857 -23.01286,0 2.70738,-8.41226 24.17319,0 2.32062,-7.15526 -38.00023,0 z m 87.12014,6.38171 c 5.53081,0 9.86266,1.38851 9.86266,4.54456 0,3.85997 -5.43027,6.5751 -12.86014,6.5751 l -5.60817,0 3.28755,-10.82959 c 1.14483,-0.17388 2.74607,-0.28992 5.3181,-0.28992 z m -479.78924,0.0965 c 11.14673,0 16.63113,3.4152 16.63113,9.66927 0,4.96615 -2.28581,9.14327 -6.67178,12.18329 -4.18874,2.97813 -10.7445,4.54456 -18.17824,4.54456 -2.38251,0 -4.37438,-0.11608 -5.99495,-0.28992 l 8.1222,-25.81696 c 1.43104,-0.17792 3.42292,-0.28992 6.09164,-0.28992 z m 85.18624,0.0965 0.28993,0 c 0.28622,2.39798 0.58403,5.57337 0.87023,7.73542 l 1.16032,8.41227 -13.82705,0 6.38187,-8.41211 c 1.71339,-2.28195 3.50414,-5.33745 5.1247,-7.73542 z m 164.28094,0 0.28992,0 c 0.28622,2.39798 0.48346,5.57337 0.77355,7.73542 l 1.25699,8.41227 -13.82705,0 6.28518,-8.41211 c 1.71339,-2.28195 3.60084,-5.33745 5.22141,-7.73542 z"
       id="path56"
       style="fill:#4a4a4c;fill-opacity:1;fill-rule:nonzero;stroke:none" />
  </g>
</svg>
