<?xml version="1.0" encoding="UTF-8" standalone="no"?>
<!-- Created with Inkscape (http://www.inkscape.org/) -->
<svg
   xmlns:svg="http://www.w3.org/2000/svg"
   xmlns="http://www.w3.org/2000/svg"
   version="1.0"
   width="273"
   height="273"
   id="svg2"
   xml:space="preserve"><defs
     id="defs5" /><g
     transform="matrix(1.25,0,0,-1.25,-45.274375,812.45063)"
     id="g11"><path
       d="M 36.996434,649.19658 L 253.85819,649.19658 L 253.85819,432.33483 L 36.996434,432.33483 L 36.996434,649.19658 z"
       id="path107"
       style="fill:#f6821f;fill-opacity:1;fill-rule:nonzero;stroke:none" /><path
       d="M 236.65632,442.93562 C 236.65632,446.43276 239.49205,449.01851 242.84857,449.01851 C 246.17125,449.01851 249.01219,446.43276 249.01219,442.93562 C 249.01219,439.39942 246.17125,436.82669 242.84857,436.82669 C 239.49205,436.82669 236.65632,439.39942 236.65632,442.93562 M 242.84857,437.83703 C 245.60619,437.83703 247.78311,440.00094 247.78311,442.93562 C 247.78311,445.82343 245.60619,448.00035 242.84857,448.00035 C 240.05711,448.00035 237.88019,445.82343 237.88019,442.93562 C 237.88019,440.00094 240.05711,437.83703 242.84857,437.83703 M 241.557,439.39942 L 240.49458,439.39942 L 240.49198,446.43276 L 243.17147,446.43276 C 244.8302,446.43276 245.65566,445.82343 245.65566,444.43551 C 245.65566,443.17779 244.86405,442.62835 243.83288,442.50076 L 245.83273,439.39942 L 244.64011,439.39942 L 242.78347,442.45128 L 241.557,442.45128 L 241.557,439.39942 z M 242.83295,443.35226 C 243.73653,443.35226 244.54116,443.41736 244.54116,444.50061 C 244.54116,445.37034 243.75215,445.53439 243.01002,445.53439 L 241.557,445.53439 L 241.557,443.35226 L 242.83295,443.35226 z"
       id="path109"
       style="fill:#ffffff;fill-opacity:1;fill-rule:nonzero;stroke:none" /><path
       d="M 102.29374,540.05352 C 100.37722,535.97049 102.04637,533.79356 103.65042,532.19732 L 136.81205,499.02787 C 138.4161,497.42643 140.59042,495.76249 144.67867,497.68162 L 148.39194,493.96054 C 133.6326,481.63331 116.36303,486.25537 103.61917,498.99663 C 90.880516,511.73528 86.25325,529.01526 98.585682,543.772 L 102.29374,540.05352 z M 147.55866,500.5486 C 149.47259,504.63163 147.80865,506.81897 146.20199,508.41521 L 113.04296,541.57945 C 111.43631,543.1835 109.26198,544.84484 105.17635,542.92831 L 101.46047,546.64158 C 116.21721,558.9688 133.49459,554.35195 146.23584,541.6107 C 158.9745,528.86684 163.59655,511.59466 151.26673,496.83533 L 147.55866,500.5486 z"
       id="path111"
       style="fill:#ffffff;fill-opacity:1;fill-rule:nonzero;stroke:none" /><path
       d="M 218.15507,569.60865 C 217.25409,570.49921 216.10574,570.50963 215.01988,569.92894 C 212.07478,568.39259 211.7623,568.84048 209.39008,571.21531 L 175.83524,604.76233 C 173.46302,607.12935 173.00733,607.44703 174.55409,610.39734 C 175.11915,611.48059 175.12175,612.63415 174.22599,613.52992 C 172.37196,615.38656 170.13774,613.40233 169.88516,613.15234 L 153.01139,596.28379 L 166.78903,570.74659 L 166.66143,570.63201 L 140.17639,583.44097 L 123.95362,567.2182 C 123.19065,566.45524 121.26632,564.53871 123.24534,562.54927 C 124.78168,561.01293 126.63832,562.60916 127.46899,563.31744 C 128.61994,564.3356 129.65112,563.82782 131.17965,563.43462 C 132.52331,563.11433 133.80707,562.47376 135.08562,561.82797 L 188.0557,535.55385 L 189.90974,537.40528 L 163.99757,585.29761 L 193.73237,555.5602 C 196.09939,553.19058 196.54727,552.86508 195.01093,549.93561 C 194.43545,548.83673 194.44326,547.69359 195.34423,546.79782 C 197.19306,544.949 199.42987,546.92021 199.68506,547.1806 L 217.77749,565.26001 C 218.03528,565.5152 220.00389,567.75202 218.15507,569.60865"
       id="path113"
       style="fill:#ffffff;fill-opacity:1;fill-rule:nonzero;stroke:none" /><path
       d="M 168.10925,535.83508 L 157.09963,546.84469 L 142.95744,553.83116 L 142.83245,553.70096 L 164.40379,532.12441 C 171.38244,523.09903 164.8022,521.5054 167.5546,518.7556 C 169.54404,516.77658 172.03083,519.51856 172.7313,520.22945 L 180.01463,527.50235 C 180.71249,528.20543 183.45708,530.68702 181.46764,532.67385 C 178.72566,535.42625 177.13463,528.84601 168.10925,535.83508"
       id="path115"
       style="fill:#ffffff;fill-opacity:1;fill-rule:nonzero;stroke:none" /><path
       d="M 133.34877,468.7879 C 139.3952,474.98276 148.75129,475.83946 158.47453,466.98074 C 167.32545,458.92403 166.2474,447.8363 160.27648,441.86018 L 158.1881,443.94857 C 160.09681,446.43276 158.15164,448.59406 156.78195,449.95854 L 141.44713,465.29596 C 140.08004,466.66045 137.92135,468.60301 135.43976,466.6969 L 133.34877,468.7879 z"
       id="path117"
       style="fill:#ffffff;fill-opacity:1;fill-rule:nonzero;stroke:none" /><path
       d="M 146.76966,482.20879 L 156.26636,491.7081 L 183.19668,464.78298 L 173.69477,455.28368 C 173.55156,455.14046 172.29384,454.02075 171.24183,455.06494 C 170.74707,455.57272 170.74187,456.2185 171.06736,456.83044 C 171.93188,458.48136 171.6819,458.66624 170.34867,459.99948 L 151.48806,478.86008 C 150.15743,480.19071 149.97255,480.44329 148.32163,479.58398 C 147.70449,479.25328 147.0561,479.25328 146.55353,479.75584 C 145.50934,480.80004 146.62905,482.06557 146.76966,482.20879 M 157.89385,493.33037 L 165.92191,501.35583 L 173.22606,494.05167 C 173.40573,493.8694 174.05933,493.1533 172.97347,492.07265 C 172.36154,491.45291 171.82512,491.63779 171.10642,491.99714 C 167.24733,493.97616 163.65384,493.90585 159.97703,491.24719 L 157.89385,493.33037 z M 182.73057,468.49104 C 185.28507,471.76685 185.54026,475.97748 183.62894,479.83657 C 183.34511,480.62557 182.97795,481.41458 183.62634,482.06557 C 184.78251,483.21393 185.75379,482.03172 185.89701,481.88329 L 193.09961,474.68069 L 184.81636,466.40005 L 182.73057,468.49104 z M 169.9138,481.31302 C 171.03091,483.21393 170.31221,485.29971 169.26541,486.99229 C 168.83315,487.78651 168.4712,488.58072 169.23156,489.33848 C 170.34606,490.45298 171.46056,488.97913 171.75481,488.68228 L 179.52768,480.9068 C 179.81152,480.62557 181.28797,479.50586 180.16826,478.39397 C 179.41831,477.631 178.6241,477.99035 177.83249,478.42782 C 176.13991,479.4668 174.05933,480.19331 172.14801,479.0736 L 169.9138,481.31302 z"
       id="path119"
       style="fill:#ffffff;fill-opacity:1;fill-rule:nonzero;stroke:none" /><path
       d="M 179.81152,515.25065 C 183.23054,518.66706 185.61057,520.33361 188.27444,521.04449 C 192.52673,522.12775 195.94315,520.79451 198.97418,517.77911 C 201.98958,514.75329 203.32282,511.32906 202.24477,507.07676 C 201.52087,504.4129 199.86734,502.03286 196.44311,498.61905 L 194.35472,500.69963 C 196.08376,503.22809 194.71928,504.8087 192.95378,506.5794 L 187.52189,512.01651 C 185.89701,513.62837 184.09766,514.78193 181.8973,513.15965 L 179.81152,515.25065 z M 173.40573,500.77254 C 172.06989,502.10577 171.89022,502.35836 170.23149,501.49384 C 169.61955,501.16834 168.97116,501.17615 168.4712,501.68133 C 167.42961,502.71771 168.54151,503.98064 168.68472,504.12906 L 178.18924,513.62837 L 201.086,490.7264 C 202.41143,489.40358 202.5937,489.14578 204.25244,490.0103 C 204.86698,490.3358 205.51537,490.3358 206.02054,489.83584 C 207.06473,488.79425 205.95023,487.52871 205.7992,487.3907 L 195.61244,477.19874 C 195.47183,477.05031 194.49534,476.21704 193.45114,477.26124 C 192.94337,477.76641 192.86004,478.33147 193.18033,478.9434 C 194.04485,480.59953 193.59436,480.58131 192.26633,481.91194 L 173.40573,500.77254 z"
       id="path121"
       style="fill:#ffffff;fill-opacity:1;fill-rule:nonzero;stroke:none" /><path
       d="M 202.62756,534.96275 C 201.55211,532.66083 202.48173,531.44477 203.38011,530.5438 L 222.02978,511.89412 C 222.93336,510.99314 224.15463,510.05832 226.46175,511.14157 L 228.54493,509.05058 C 220.22783,502.10577 210.515,504.68631 203.35146,511.85766 C 196.18532,519.0186 193.58915,528.73924 200.53656,537.05895 L 202.62756,534.96275 z M 228.07622,512.75864 C 229.15687,515.06316 228.22204,516.28182 227.32106,517.1854 L 208.67138,535.82727 C 207.77301,536.73866 206.54914,537.66828 204.24463,536.59023 L 202.16144,538.67602 C 210.47854,545.62863 220.19398,543.02987 227.35492,535.86893 C 234.51845,528.70279 237.11722,518.99256 230.16721,510.66765 L 228.07622,512.75864 z"
       id="path123"
       style="fill:#ffffff;fill-opacity:1;fill-rule:nonzero;stroke:none" /><path
       d="M 62.968494,567.088 L 71.25695,575.37646 L 92.778815,553.8598 C 94.031327,552.60729 94.195378,552.36772 95.75516,553.18017 C 96.330638,553.48743 96.939969,553.48743 97.411289,553.01351 C 98.392988,552.03181 97.343585,550.847 97.208178,550.7116 L 87.635961,541.13417 C 87.500555,541.00137 86.315745,539.95197 85.331442,540.93366 C 84.860123,541.40759 84.860123,542.01692 85.164788,542.5924 C 85.977229,544.14958 85.740267,544.31623 84.487754,545.56874 L 62.968494,567.088 z M 85.534553,573.88698 C 85.672563,573.75418 86.417301,572.80894 85.40175,571.79078 C 84.453902,570.84554 83.401896,571.55122 82.560812,572.197 C 80.462007,573.68127 77.753871,575.44677 74.741071,574.93899 L 72.777673,576.90239 L 77.65492,581.77443 L 85.534553,573.88698 z M 56.573128,560.69524 L 61.447772,565.56468 L 63.408566,563.60128 C 62.90079,560.59108 64.661078,557.88555 66.147949,555.78414 C 66.793735,554.94306 67.50462,553.89365 66.556773,552.9432 C 65.541222,551.93026 64.593375,552.67239 64.455364,552.8104 L 56.573128,560.69524 z"
       id="path125"
       style="fill:#ffffff;fill-opacity:1;fill-rule:nonzero;stroke:none" /><path
       d="M 110.37128,571.44966 C 111.62119,570.19975 111.79045,569.9654 113.34762,570.77263 C 113.9231,571.07729 114.53243,571.07729 115.00636,570.60597 C 115.98806,569.62428 114.93605,568.43947 114.80064,568.30666 L 105.22582,558.72924 C 105.09041,558.59644 103.90561,557.54703 102.92651,558.52613 C 102.45259,559.00005 102.45259,559.61199 102.75725,560.18486 C 103.56969,561.74204 103.33013,561.90869 102.08282,563.1586 L 84.352347,580.89429 C 83.097231,582.14419 82.930576,582.38376 81.376002,581.57132 C 80.79792,581.26665 80.188589,581.26665 79.717269,581.73797 C 78.73557,582.72228 79.782369,583.90448 79.917776,584.03728 L 89.495201,593.61471 C 89.633211,593.74751 90.812813,594.79952 91.794512,593.81782 C 92.268435,593.33869 92.268435,592.73457 91.96377,592.16169 C 91.153933,590.60191 91.390895,590.43265 92.643408,589.18014 L 110.37128,571.44966 z M 106.7856,584.03728 L 103.80665,581.06094 L 101.84586,583.02434 L 104.82481,586.00068 L 97.140475,593.67981 C 95.890566,594.93232 95.721308,595.16928 94.16413,594.35684 C 93.588651,594.05218 92.979321,594.05218 92.505397,594.5235 C 91.523698,595.5104 92.575705,596.69001 92.708507,596.82802 L 102.28593,606.40284 C 102.41874,606.53824 103.60354,607.58765 104.58524,606.60334 C 105.05656,606.12942 105.05656,605.52269 104.7519,604.94461 C 103.93946,603.39264 104.17902,603.22078 105.43414,601.97087 L 123.16201,584.24039 C 124.41192,582.99049 124.58378,582.75613 126.13575,583.56336 C 126.71383,583.87063 127.32316,583.87063 127.79448,583.3915 C 128.77618,582.41501 127.72678,581.2302 127.59137,581.09479 L 118.01916,571.51997 C 117.88115,571.38456 116.69634,570.33777 115.71724,571.31686 C 115.24332,571.79078 115.24332,572.40011 115.54798,572.97559 C 116.35782,574.53277 116.12086,574.69943 114.87095,575.95194 L 106.7856,584.03728 z"
       id="path127"
       style="fill:#ffffff;fill-opacity:1;fill-rule:nonzero;stroke:none" /><path
       d="M 105.4732,609.5901 L 114.40484,618.52695 L 139.71809,593.2163 L 130.78125,584.28206 C 130.64844,584.14926 129.46363,583.10246 128.48193,584.08416 C 128.00541,584.55548 128.00541,585.16741 128.31268,585.73508 C 129.12512,587.29486 128.88815,587.46412 127.63564,588.71663 L 109.90517,606.4445 C 108.65526,607.69701 108.4834,607.93658 106.93143,607.12153 C 106.35595,606.81687 105.74401,606.81687 105.27009,607.29079 C 104.28839,608.27249 105.33779,609.4573 105.4732,609.5901 M 115.92816,620.04507 L 123.47449,627.594 L 130.34117,620.7221 C 130.51043,620.55284 131.11716,619.87841 130.10682,618.86026 C 129.53134,618.28478 129.02356,618.45925 128.34913,618.79516 C 124.72179,620.657 121.33923,620.5893 117.89156,618.08688 L 115.92816,620.04507 z M 139.27542,596.70042 C 141.67628,599.77832 141.91324,603.73897 140.1191,607.3585 C 139.84829,608.10323 139.50977,608.84797 140.1191,609.4573 C 141.20496,610.54056 142.11635,609.42605 142.24916,609.28544 L 149.01689,602.52031 L 141.23621,594.73963 L 139.27542,596.70042 z M 127.23203,608.74642 C 128.27882,610.54056 127.60179,612.50395 126.62009,614.09498 C 126.21127,614.83712 125.87535,615.57925 126.58884,616.29274 C 127.63564,617.33954 128.68504,615.95162 128.95586,615.6808 L 136.26262,608.37405 C 136.53343,608.10323 137.92135,607.05644 136.87195,606.00703 C 136.16106,605.29615 135.41893,605.63466 134.67159,606.03828 C 133.08316,607.01998 131.11976,607.69701 129.32562,606.65021 L 127.23203,608.74642 z"
       id="path129"
       style="fill:#ffffff;fill-opacity:1;fill-rule:nonzero;stroke:none" /><path
       d="M 124.81293,476.26652 C 123.90935,477.16228 122.7636,477.16749 121.67774,476.59983 C 118.73004,475.05046 118.40975,475.50355 116.04534,477.87317 L 82.495712,511.43061 C 80.128698,513.80023 79.67821,514.11792 81.21716,517.0552 C 81.792639,518.14366 81.784827,519.28941 80.883851,520.19299 C 79.02982,522.03921 76.800816,520.06279 76.543022,519.8076 L 58.463615,501.7282 C 58.203217,501.46259 56.224195,499.2414 58.08083,497.38476 C 58.966182,496.489 60.132764,496.47858 61.21081,497.05927 C 64.155907,498.5852 64.476196,498.13731 66.835399,495.7729 L 81.378606,481.2349 L 75.761829,475.61031 L 79.46208,471.90486 L 85.089273,477.52944 L 100.39544,462.22067 C 102.76246,459.85626 103.21555,459.53076 101.674,456.59608 C 101.10633,455.50762 101.10633,454.35666 102.0021,453.45308 C 103.85873,451.60686 106.09295,453.58328 106.35334,453.83847 L 124.43275,471.91788 C 124.69054,472.17307 126.66436,474.40988 124.81293,476.26652"
       id="path131"
       style="fill:#ffffff;fill-opacity:1;fill-rule:nonzero;stroke:none" /><path
       d="M 100.66105,452.11984 C 99.770491,453.01561 98.614326,453.01561 97.531071,452.44013 C 94.585974,450.90379 94.268289,451.35167 91.901275,453.73171 L 58.346436,487.27352 C 55.974213,489.64314 55.526329,489.96343 57.065279,492.91374 C 57.640758,493.99699 57.630342,495.14534 56.734574,496.04632 C 54.883147,497.89254 52.648936,495.90831 52.393746,495.66093 L 36.98081,480.24539 L 36.98081,472.87093 C 37.00685,472.88395 37.035494,472.89437 37.061533,472.90999 C 40.001423,474.44113 40.316504,473.99585 42.69133,471.61842 L 76.246169,438.07139 C 78.613183,435.70698 79.058463,435.37888 77.527325,432.44941 C 77.509098,432.40774 77.496078,432.37129 77.47785,432.314 L 84.844499,432.314 L 100.28347,447.7712 C 100.53346,448.02639 102.51508,450.258 100.66105,452.11984"
       id="path133"
       style="fill:#ffffff;fill-opacity:1;fill-rule:nonzero;stroke:none" /><path
       d="M 146.91288,433.11342 C 146.78528,432.84521 146.65248,432.58481 146.5353,432.33223 L 150.74072,432.33223 L 158.65421,440.2379 L 131.7317,467.16302 L 122.51362,457.94754 C 121.79753,457.23405 121.00331,456.2185 121.93554,455.28368 C 122.84172,454.39051 123.63073,454.96599 124.60201,455.4295 C 125.50299,455.89821 126.39875,454.85662 126.94038,454.3176 L 145.80098,435.457 C 146.34521,434.91798 147.38941,434.00919 146.91288,433.11342"
       id="path135"
       style="fill:#ffffff;fill-opacity:1;fill-rule:nonzero;stroke:none" /><path
       d="M 219.45445,550.7116 L 217.36346,552.79998 L 212.18415,547.61807 L 220.56895,539.23066 C 220.71217,539.08224 221.71991,538.29584 222.79796,539.37388 C 223.8057,540.37902 223.05315,541.49873 222.3657,542.3997 C 220.78248,544.63131 218.91022,547.5061 219.45445,550.7116"
       id="path137"
       style="fill:#ffffff;fill-opacity:1;fill-rule:nonzero;stroke:none" /><path
       d="M 239.82796,559.85936 C 240.72373,559.17452 241.84084,558.41937 242.84857,559.4271 C 243.93183,560.50515 243.13762,561.51289 242.9944,561.65871 L 234.60439,570.04091 L 229.42247,564.85379 L 231.51086,562.7628 C 234.71115,563.30703 237.59635,561.43998 239.82796,559.85936"
       id="path139"
       style="fill:#ffffff;fill-opacity:1;fill-rule:nonzero;stroke:none" /><path
       d="M 253.85298,539.62126 C 252.20727,538.76195 252.02238,539.01193 250.69435,540.34517 L 227.8028,563.23672 L 218.97792,554.41705 L 241.8825,531.52029 C 243.20532,530.19226 243.46572,530.00998 242.59338,528.35646 C 242.2731,527.74713 242.2731,527.09613 242.77827,526.59617 C 243.82246,525.54937 245.08279,526.66908 245.226,526.8123 L 253.85298,535.43667 L 253.85298,539.62126 z"
       id="path141"
       style="fill:#ffffff;fill-opacity:1;fill-rule:nonzero;stroke:none" /><path
       d="M 216.86089,632.85403 C 215.52245,631.51298 216.16823,630.09642 216.92599,628.69548 C 218.78263,625.68789 220.0742,621.97462 218.09518,618.59205 L 222.06364,614.62359 C 225.4462,616.5922 229.15687,615.31104 232.16706,613.45961 C 233.57842,612.69665 234.98457,612.04305 236.33343,613.3867 C 238.30464,615.36572 235.68243,617.36037 235.17205,617.86814 L 221.35015,631.69786 C 220.83456,632.20564 218.83991,634.82524 216.86089,632.85403"
       id="path143"
       style="fill:#ffffff;fill-opacity:1;fill-rule:nonzero;stroke:none" /><path
       d="M 176.96797,620.22735 C 176.71018,619.97997 174.72595,617.73274 176.57998,615.88391 C 177.47314,614.98554 178.62671,614.98554 179.71256,615.55842 C 182.65506,617.09476 182.97274,616.64167 185.34236,614.27726 L 218.8998,580.73023 C 221.27463,578.35541 221.7147,578.03512 220.18617,575.09523 C 219.61329,574.01198 219.61329,572.85841 220.50646,571.95744 C 222.36049,570.10601 224.60251,572.08503 224.8577,572.34022 L 241.72626,589.21139 L 193.82351,637.0933 L 176.96797,620.22735 z"
       id="path145"
       style="fill:#ffffff;fill-opacity:1;fill-rule:nonzero;stroke:none" /><path
       d="M 253.85298,612.2071 L 246.48633,619.57115 C 246.22593,619.83154 244.5047,621.95118 242.45537,619.90185 C 241.30702,618.7587 241.9502,617.34735 242.46319,615.93599 C 245.85617,609.09535 245.42651,601.61412 240.89038,595.79684 L 244.59584,592.08618 L 253.85298,601.34071 L 253.85298,612.2071 z"
       id="path147"
       style="fill:#ffffff;fill-opacity:1;fill-rule:nonzero;stroke:none" /><path
       d="M 223.94891,641.22581 L 215.97033,649.207 L 205.93981,649.207 L 196.6983,639.9707 L 200.41678,636.26003 C 206.93453,640.98104 213.33511,641.11645 220.17836,637.57764 C 221.45951,636.93967 222.41778,636.62198 223.50624,637.71305 C 225.42537,639.61916 224.27441,640.90813 223.94891,641.22581"
       id="path149"
       style="fill:#ffffff;fill-opacity:1;fill-rule:nonzero;stroke:none" /></g></svg>