<?xml version="1.0" encoding="UTF-8" standalone="no"?>
<svg
   xmlns:dc="http://purl.org/dc/elements/1.1/"
   xmlns:cc="http://creativecommons.org/ns#"
   xmlns:rdf="http://www.w3.org/1999/02/22-rdf-syntax-ns#"
   xmlns:svg="http://www.w3.org/2000/svg"
   xmlns="http://www.w3.org/2000/svg"
   xmlns:sodipodi="http://sodipodi.sourceforge.net/DTD/sodipodi-0.dtd"
   xmlns:inkscape="http://www.inkscape.org/namespaces/inkscape"
   xml:space="preserve"
   height="354.62"
   width="258"
   version="1.1"
   viewBox="0 0 257.99996 354.6221"
   id="svg10"
   sodipodi:docname="Pepsi_logo_2014.svg"
   inkscape:version="0.92.2 (5c3e80d, 2017-08-06)"><metadata
     pagecolor="#ffffff"
     bordercolor="#666666"
     borderopacity="1"
     objecttolerance="10"
     gridtolerance="10"
     guidetolerance="10"
     inkscape:pageopacity="0"
     inkscape:pageshadow="2"
     inkscape:window-width="1366"
     inkscape:window-height="705"
     id="namedview12"
     showgrid="false"
     inkscape:zoom="0.72269261"
     inkscape:cx="262.72198"
     inkscape:cy="162.33358"
     inkscape:window-x="-8"
     inkscape:window-y="-8"
     inkscape:window-maximized="1"
     inkscape:current-layer="svg10" /><g
     transform="matrix(.5 0 0 .5 .64477 1.3552)"
     id="g8"><path
       d="m437.01 437.03c-99.947 99.98-262.06 99.961-362.01 0-99.999-99.985-99.999-262.08 0-362.06 99.975-99.966 262.07-99.966 362 0.01413 99.994 99.961 99.994 262.06 0.009 362.04"
       fill="#fff"
       id="path2" /><path
       d="m398.48 65.902c-39.73-29.803-89.03-47.456-142.48-47.456-131.2 0-237.55 106.37-237.55 237.57 0 52.798 17.243 101.56 46.376 141 159.75-46.51 285.91-171.84 333.65-331.12"
       fill="#ed1a34"
       id="path4"
       style="fill:#eb1933" /><path
       d="m455.3 126.82c4.7865 15.547 7.4434 32.021 7.4434 49.113 0 55.153-27.165 103.67-68.359 134.05-71.75 52.82-176.28 52.89-320.61 98.37 43.57 52.07 109.02 85.22 182.23 85.22 131.21 0 237.6-106.36 237.6-237.55 0-47.63-14.113-91.971-38.305-129.19zm-9.2305 435.94c-5.5215 0-10.049 4.5235-10.049 10.045s4.5274 10.033 10.049 10.033c5.5497 0 10.049-4.5117 10.049-10.033 0-5.5215-4.4991-10.045-10.049-10.045zm-59.57 25.297c-17.676 0-30.98 11.34-30.98 26.359 0 11.905 9.7976 20.361 27.559 23.848l11.113 2.1289c7.307 1.3474 11.412 5.2209 11.266 10.639-0.13191 5.2906-6.6344 10.793-17.291 10.793-8.6968 0-16.389-3.4212-22.801-9.2441l-0.0859-0.11719c-0.45699-0.40045-1.0084-0.89453-1.748-0.89453-0.47582 0-1.026 0.23443-1.6055 0.69141-0.6737 0.54649-8.0995 6.4177-8.9004 7.2422-0.34862 0.39573-0.5401 0.79624-0.48828 1.2344 0.0188 0.69725 0.44284 1.3235 0.85742 1.7051 9.6154 8.7957 20.116 13.826 33.76 13.826h0.41406c23.509-0.16018 34.029-13.02 34.029-25.693 0-17.521-16.555-22.308-21.582-23.363-1.6254-0.3392-3.3309-0.65494-5.041-0.99414-4.094-0.79147-8.343-1.6114-12.234-2.6856-2.6995-0.72552-11.533-3.6696-11.533-10.279 0-7.2646 8.0694-11.174 15.654-11.174 6.3648 0 11.665 1.0597 18.463 6.3692 0.50881 0.4193 1.2533 0.90039 2.1484 0.90039 0.71609 0 1.3764-0.22281 2.0312-0.73633 1.8986-1.3851 5.3002-4.2922 7.5898-6.5488 0.56534-0.56533 0.77666-1.1386 0.75782-1.7793-0.0565-0.95165-0.75823-1.7434-1.1445-2.0449-9.0972-7.1986-17.812-10.135-30.104-10.182h-0.10352zm-285.94 0.002c-19.994 0-36.89 13.183-42.062 32.771-0.89983 3.3261-1.7812 11.815-1.7812 20.262v62.088c0 1.126 0.91908 2.0644 2.0215 2.0644h11.09c1.1307 0 2.0508-0.93849 2.0508-2.0644l-0.01953-39.135 0.57031 0.58399c5.4225 5.2482 15.461 11.124 27.475 11.689 0.69253 0.033 1.438 0.0469 2.1211 0.0469 11.443 0 22.08-4.4049 29.967-12.381 7.9948-8.1079 12.414-19.237 12.414-31.33 0-25.016-19.258-44.596-43.846-44.596zm99.432 0c-1.8892 0-3.8298 0.11474-5.752 0.36914-24.192 3.1094-40.624 25.043-37.406 49.908 2.8926 22.515 21.007 37.953 43.064 37.953 1.8515 0 3.7937-0.13633 5.7442-0.36718 11.768-1.4934 22.07-6.4259 29.82-15.971 0.43342-0.57947 0.64534-1.271 0.56054-1.9023-0.0754-0.53707-0.38571-1.0474-0.9746-1.4902-1.2956-0.91867-5.9265-3.1657-8.4375-4.3906-0.76321-0.36276-1.3428-0.64095-1.6914-0.81055-0.74908-0.40516-1.31-0.56836-1.8047-0.56836-0.59832 0-1.1783 0.31022-1.7578 0.99805-4.9891 5.7994-11.292 8.8517-17.732 9.6856-1.2767 0.15546-2.5299 0.24023-3.7266 0.24023-11.75 0-23.621-7.8802-27.041-18.664l-0.0859-0.28906 0.25-0.11329c0.59832-0.31565 6.1111-2.8496 14.252-2.8496 1.0129 0 2.0352 0.0327 3.0293 0.12695 2.3462 0.17431 4.7005 0.4664 7.1738 0.77734 4.5745 0.61716 9.3239 1.2305 14.836 1.2305 3.4109 0 6.7508-0.21707 10.176-0.70703 13.446-2.6006 18.76-6.378 18.826-6.4062 1.9033-1.2249 1.8146-2.2388 1.7109-4.0762h-0.002l-0.008-0.1836c-0.0707-0.82445-0.21712-2.1811-0.38672-3.6133-0.34863-2.6571-0.92888-5.235-1.7109-7.7461-6.0067-18.934-22.072-31.141-40.926-31.141zm98.941 0c-20.004 0-36.898 13.183-42.066 32.771-0.86685 3.3261-1.7852 11.815-1.7852 20.262v62.088c0 1.126 0.91942 2.0644 2.0312 2.0644h11.061c1.1401 0 2.0684-0.93849 2.0684-2.0644l-0.0176-39.135 0.59765 0.58399c5.4131 5.2482 15.452 11.124 27.451 11.689 0.68784 0.033 1.4042 0.0469 2.125 0.0469 11.453 0 22.091-4.4049 29.949-12.381 8.0136-8.1079 12.395-19.237 12.395-31.33 0-25.016-19.24-44.596-43.809-44.596zm141.55 2.9297c-1.0836 0-2.0215 0.89989-2.0215 2.0117v79.156c0 1.1213 0.93792 2.041 2.0215 2.041h11.143c1.1354 0 2.0527-0.91976 2.0527-2.041v-79.156c0-1.1118-0.91734-2.0117-2.0527-2.0117h-11.143zm-240.5 11.902c12.419 0 24.475 9.4255 28.074 21.934l0.0898 0.33008-0.33985 0.0762c-2.219 0.71138-5.2439 1.3245-9.0176 1.8144-1.7949 0.21671-3.7922 0.34375-6.1289 0.34375-3.9197 0-8.1782-0.32107-12.291-0.63672h-0.15039c-3.8066-0.29209-7.4342-0.57031-10.883-0.57031-2.4781 0-4.7406 0.1415-6.9219 0.43359-6.459 0.79147-11.574 2.8262-11.574 2.8262l0.0664-0.52735c1.239-12.97 12.144-24.036 25.35-25.816 1.2108-0.13663 2.4546-0.20703 3.7266-0.20704zm-99.598 0.19141c15.754 0 28.111 12.984 28.111 29.572 0 16.677-11.716 29.248-27.281 29.248-7.8676 0-15.128-2.8044-20.438-7.916-5.512-5.2529-8.5508-12.669-8.5508-20.838 0-16.569 12.635-30.066 28.158-30.066zm198.37 0c15.763 0 28.121 12.984 28.121 29.572 0 16.677-11.708 29.248-27.273 29.248-7.8676 0-15.137-2.8044-20.465-7.916-5.5026-5.2529-8.5332-12.669-8.5332-20.838 0-16.569 12.637-30.066 28.15-30.066z"
       fill="#2153a1"
       id="path6"
       style="fill:#2151a1" /></g></svg>