<svg xmlns="http://www.w3.org/2000/svg" viewBox="0 0 200 87.021">
  <path d="M79.231 86.977c-6.824-.367-11.916-3.175-14.894-8.213-1.998-3.382-2.606-7.83-1.692-12.375 1.013-5.036 4.452-9.574 9.73-12.838 3.033-1.877 5.629-3.042 10.915-4.9 1.329-.467 2.476-.897 2.55-.957.106-.084.121-.382.068-1.349-.152-2.751.307-7.037 1.084-10.13 1.307-5.205 3.822-9.404 7.16-11.951 2.396-1.83 5.537-3.206 8.664-3.796 1.727-.325 4.619-.324 6.244.003 6.963 1.402 10.871 6.769 9.332 12.816-.324 1.275-1.348 3.365-2.215 4.521-2.221 2.962-5.562 5.596-10.28 8.102-.593.316-2.535 1.27-4.314 2.122-1.779.851-3.29 1.604-3.36 1.674-.099.099-.074.388.118 1.36.885 4.494 2.373 8.291 4.914 12.537 1.01 1.69 2.407 3.821 2.566 3.92.23.142 1.17-1.377 1.783-2.88.758-1.86 1.192-4.32.978-5.542-.154-.875-.632-1.799-1.242-2.396-.28-.276-.512-.537-.513-.58-.001-.042 2.367-.066 5.264-.051l5.267.027-.03.668c-.041.913-.38 2.86-.737 4.246-1.007 3.897-2.905 7.23-6.186 10.87-.387.429-.704.85-.704.936 0 .086.544.683 1.208 1.327 4.147 4.02 11.493 8.656 17.474 11.027.581.231 1.055.466 1.053.522-.002.068-3.455.112-10.091.13l-10.088.026-.574-.323c-1.172-.659-3.767-2.756-6.26-5.06-.528-.488-1.028-.887-1.111-.887-.083 0-.67.341-1.302.758-3.239 2.136-7.11 4.055-10.384 5.147-3.724 1.243-6.798 1.683-10.395 1.49zm8.494-8.74c1.51-.269 3.365-.817 5.071-1.498 1.715-.684 3.841-1.73 3.917-1.928.03-.078-.363-.735-.872-1.461-2.347-3.344-4.854-8.047-6.539-12.265-.621-1.555-1.781-4.999-2.003-5.943-.07-.301-.197-.574-.282-.607-.235-.09-2.162.937-3.827 2.041-5.918 3.923-8.755 8.712-8.125 13.716.28 2.224.984 3.845 2.265 5.214 2.368 2.53 6.07 3.503 10.395 2.731zM97.77 43.441c2.19-1.282 5.664-4.395 7.607-6.815 2.487-3.097 3.809-5.987 3.81-8.331 0-1.34-.19-1.94-.81-2.56-.617-.616-1.313-.871-2.376-.872-3.154 0-6.565 3.744-8.051 8.838-.75 2.568-.932 3.95-.937 7.087-.004 2.396.035 2.929.215 2.929.039 0 .283-.124.542-.276zm52.163 43.476c-5.197-.523-8.622-1.3-12.486-2.83-5.258-2.084-8.541-4.665-11.314-8.894-.83-1.266-2.162-3.924-2.7-5.393-2.405-6.545-2.933-14.785-1.5-23.381 1.451-8.7 4.756-17.085 9.316-23.639 2.958-4.25 7.359-8.726 11.902-12.106 7.502-5.58 16.137-9.01 25.73-10.216 2.91-.366 4.54-.46 7.977-.458 5.199.003 9.159.399 14.388 1.438 3.336.664 8.65 2.098 8.752 2.363.052.134-3.315 10.925-3.454 11.07-.043.045-.56-.3-1.147-.77-4.729-3.77-9.63-6.065-14.586-6.828-1.583-.244-4.558-.247-6.11-.006-6.948 1.076-13.39 5.515-19.109 13.168-1.858 2.486-3.905 5.818-5.497 8.946-2.157 4.24-3.64 7.988-5.14 13-4.778 15.946-5.02 27.087-.72 33.118 1.771 2.485 4.36 4.068 7.645 4.673 1.886.348 6.464.137 6.92-.318.073-.072 2.308-7.065 4.966-15.54 4.368-13.921 4.84-15.491 4.89-16.28.066-1.06-.131-2.007-.608-2.919-.433-.829-1.577-1.954-2.52-2.477-.407-.226-.741-.446-.742-.488-.001-.042 7.327-.077 16.286-.077 8.958 0 16.288.035 16.287.077 0 .042-.397.259-.882.48-2.536 1.16-4.374 2.898-5.467 5.172-.237.492-2.287 6.86-5.366 16.666l-4.983 15.87-1.44.69c-5.865 2.815-13.04 4.842-20.197 5.707-1.315.16-7.99.293-9.09.182zM.004 85.757c-.033-.052.184-.235.481-.406 1.77-1.019 3.757-3.133 4.599-4.895.244-.51 22.587-71.67 23.08-73.509.087-.322.16-1.002.161-1.51.007-1.552-.475-2.671-1.61-3.745-.31-.293-.563-.576-.563-.629 0-.141 39.015-.129 40.804.013 3.874.307 7.752 1.337 10.718 2.845 5.064 2.575 8.096 6.483 9.028 11.636.26 1.434.31 4.624.097 6.168-.868 6.294-3.72 12.97-7.603 17.8-6.29 7.824-16.577 12.827-29.202 14.203-4.002.436-9.045.546-12.616.274-1.032-.079-1.898-.122-1.924-.096-.127.128-8.182 25.973-8.274 26.55-.284 1.779.632 3.779 2.211 4.827.312.207.54.42.508.472-.08.129-29.816.13-29.896.001zM44.29 47.37c2.933-.52 5.521-1.606 8.018-3.363 1.213-.853 3.705-3.342 4.733-4.727 2.572-3.463 4.464-7.549 5.99-12.931.972-3.43 1.386-6.043 1.385-8.736 0-2.076-.188-3.316-.71-4.707-.775-2.064-2.353-3.695-4.358-4.505-1.722-.696-3.192-.879-6.728-.838l-2.666.03-6.197 19.732C40.35 38.178 37.58 47.11 37.603 47.174c.024.064.452.172.95.24.5.068.977.14 1.062.161.388.095 3.842-.056 4.675-.204z" fill="#165eaa" stroke-width=".103"/>
</svg>