<?xml version="1.0" encoding="UTF-8" standalone="no"?>
<!-- Created with Inkscape (http://www.inkscape.org/) -->

<svg
   xmlns:dc="http://purl.org/dc/elements/1.1/"
   xmlns:cc="http://creativecommons.org/ns#"
   xmlns:rdf="http://www.w3.org/1999/02/22-rdf-syntax-ns#"
   xmlns:svg="http://www.w3.org/2000/svg"
   xmlns="http://www.w3.org/2000/svg"
   xmlns:sodipodi="http://sodipodi.sourceforge.net/DTD/sodipodi-0.dtd"
   xmlns:inkscape="http://www.inkscape.org/namespaces/inkscape"
   version="1.1"
   id="svg620"
   xml:space="preserve"
   width="500"
   height="140"
   viewBox="0 0 666.50491 186.62138"
   sodipodi:docname="pmi_textonly.svg"
   inkscape:version="0.48.1 "><metadata
     id="metadata626"><rdf:RDF><cc:Work
         rdf:about=""><dc:format>image/svg+xml</dc:format><dc:type
           rdf:resource="http://purl.org/dc/dcmitype/StillImage" /><dc:title /></cc:Work></rdf:RDF></metadata><defs
     id="defs624"><clipPath
       clipPathUnits="userSpaceOnUse"
       id="clipPath636"><path
         d="M 0,120 H 835 V 0 H 0 z"
         id="path634"
         inkscape:connector-curvature="0" /></clipPath></defs><sodipodi:namedview
     pagecolor="#ffffff"
     bordercolor="#666666"
     borderopacity="1"
     objecttolerance="10"
     gridtolerance="10"
     guidetolerance="10"
     inkscape:pageopacity="0"
     inkscape:pageshadow="2"
     inkscape:window-width="1366"
     inkscape:window-height="706"
     id="namedview622"
     showgrid="false"
     inkscape:zoom="0.83802506"
     inkscape:cx="265.58132"
     inkscape:cy="152.35981"
     inkscape:window-x="-8"
     inkscape:window-y="-8"
     inkscape:window-maximized="1"
     inkscape:current-layer="g628"
     showguides="true"
     inkscape:guide-bbox="true" /><g
     id="g628"
     inkscape:groupmode="layer"
     inkscape:label="Philip Morris International"
     transform="matrix(1.3333333,0,0,-1.3333333,-0.45866666,186.75366)"><g
       id="g3681"
       transform="matrix(1.2858471,0,0,1.2858471,-16.268401,-129.22662)"><g
         id="g3627"><g
           id="g3562"
           transform="matrix(0.98799191,0,0,0.98799191,-7.8998611,7.9349619)"><g
             transform="matrix(1.3162994,0,0,1.3162994,37.890162,177.93709)"
             id="g764"><path
               inkscape:connector-curvature="0"
               id="path766"
               style="fill:#4fa1d9;fill-opacity:1;fill-rule:nonzero;stroke:none"
               d="m 0,0 h 4.074 c 2.673,0 4.396,0.456 5.164,1.365 0.765,0.91 1.15,2.974 1.15,6.188 0,2.912 -0.407,4.814 -1.222,5.709 -0.819,0.896 -2.319,1.343 -4.499,1.343 H 0 z m 0,-15.475 h 4.2 v -0.853 H -7.831 v 0.853 h 4.206 v 30.08 h -4.206 v 0.852 H 4.94 c 2.798,0 5.077,-0.806 6.826,-2.423 1.756,-1.615 2.629,-3.698 2.629,-6.243 0,-2.519 -0.826,-4.422 -2.469,-5.709 -1.644,-1.288 -4.08,-1.933 -7.301,-1.933 H 0 z" /></g><g
             transform="matrix(1.3162994,0,0,1.3162994,85.120169,180.52402)"
             id="g768"><path
               inkscape:connector-curvature="0"
               id="path770"
               style="fill:#4fa1d9;fill-opacity:1;fill-rule:nonzero;stroke:none"
               d="m 0,0 v 12.64 h -4.199 v 0.852 H 7.831 V 12.64 H 3.588 v -30.08 h 4.243 v -0.853 h -12.03 v 0.853 H 0 V -0.852 H -11.584 V -17.44 h 4.199 v -0.853 h -12.032 v 0.853 h 4.201 v 30.08 h -4.201 v 0.852 H -7.385 V 12.64 h -4.199 V 0 z" /></g><g
             transform="matrix(1.3162994,0,0,1.3162994,109.1246,157.56723)"
             id="g772"><path
               inkscape:connector-curvature="0"
               id="path774"
               style="fill:#4fa1d9;fill-opacity:1;fill-rule:nonzero;stroke:none"
               d="M 0,0 H 4.199 V -0.853 H -7.831 V 0 h 4.2 v 30.081 h -4.2 v 0.851 H 4.199 V 30.081 H 0 z" /></g><g
             transform="matrix(1.3162994,0,0,1.3162994,133.8759,198.28313)"
             id="g776"><path
               inkscape:connector-curvature="0"
               id="path778"
               style="fill:#4fa1d9;fill-opacity:1;fill-rule:nonzero;stroke:none"
               d="m 0,0 v -0.852 h -4.202 v -30.08 h 3.8 c 2.855,0 5.077,1.073 6.659,3.228 1.587,2.155 2.65,5.543 3.195,10.174 h 0.489 v -14.255 h -21.968 v 0.853 h 4.196 v 30.08 h -4.196 V 0 z" /></g><g
             transform="matrix(1.3162994,0,0,1.3162994,161.2952,157.56723)"
             id="g780"><path
               inkscape:connector-curvature="0"
               id="path782"
               style="fill:#4fa1d9;fill-opacity:1;fill-rule:nonzero;stroke:none"
               d="M 0,0 H 4.199 V -0.853 H -7.826 V 0 h 4.194 v 30.081 h -4.194 v 0.851 H 4.199 V 30.081 H 0 z" /></g><g
             transform="matrix(1.3162994,0,0,1.3162994,180.52292,177.93709)"
             id="g784"><path
               inkscape:connector-curvature="0"
               id="path786"
               style="fill:#4fa1d9;fill-opacity:1;fill-rule:nonzero;stroke:none"
               d="m 0,0 h 4.072 c 2.673,0 4.394,0.456 5.161,1.365 0.769,0.91 1.151,2.974 1.151,6.188 0,2.912 -0.407,4.814 -1.225,5.709 -0.817,0.896 -2.319,1.343 -4.496,1.343 H 0 z m 0,-15.475 h 4.196 v -0.853 H -7.832 v 0.853 h 4.203 v 30.08 h -4.203 v 0.852 H 4.936 c 2.799,0 5.078,-0.806 6.827,-2.423 C 13.518,11.419 14.39,9.336 14.39,6.791 14.39,4.272 13.569,2.369 11.923,1.082 10.277,-0.206 7.842,-0.851 4.622,-0.851 H 0 z" /></g><g
             transform="matrix(1.3162994,0,0,1.3162994,233.83304,156.44495)"
             id="g788"><path
               inkscape:connector-curvature="0"
               id="path790"
               style="fill:#4fa1d9;fill-opacity:1;fill-rule:nonzero;stroke:none"
               d="M 0,0 -7.831,31.262 V 5.543 c 0,-1.672 0.249,-2.874 0.753,-3.602 0.495,-0.727 1.3,-1.088 2.414,-1.088 h 1.372 V 0 h -9.856 v 0.853 h 0.74 c 1.262,0 2.207,0.361 2.826,1.088 0.623,0.728 0.929,1.827 0.929,3.297 v 22.748 c 0,1.061 -0.26,1.819 -0.782,2.27 -0.521,0.452 -1.39,0.677 -2.619,0.677 h -1.094 v 0.852 h 8.61 L 1.689,6.963 8.252,31.785 h 8.124 V 30.933 H 12.198 V 0.853 h 4.178 V 0 H 4.579 V 0.853 H 8.778 L 8.95,31.262 0.693,0 z" /></g><g
             transform="matrix(1.3162994,0,0,1.3162994,274.05797,156.84471)"
             id="g792"><path
               inkscape:connector-curvature="0"
               id="path794"
               style="fill:#4fa1d9;fill-opacity:1;fill-rule:nonzero;stroke:none"
               d="m 0,0 c 1.113,0 2.126,0.339 3.04,1.02 0.913,0.676 1.701,1.666 2.362,2.978 0.441,0.856 0.747,2 0.931,3.436 0.185,1.435 0.274,4.145 0.274,8.132 0,4.41 -0.138,7.409 -0.419,8.995 -0.285,1.587 -0.76,2.867 -1.439,3.842 -0.603,0.873 -1.328,1.553 -2.163,2.04 -0.839,0.489 -1.699,0.734 -2.586,0.734 -0.915,0 -1.792,-0.245 -2.636,-0.734 -0.847,-0.487 -1.565,-1.167 -2.156,-2.04 -0.686,-1.004 -1.172,-2.294 -1.445,-3.865 -0.273,-1.57 -0.409,-4.562 -0.409,-8.972 v -1.025 c 0,-3.437 0.091,-5.838 0.271,-7.207 0.183,-1.367 0.499,-2.48 0.931,-3.336 C -4.783,2.686 -3.992,1.696 -3.07,1.02 -2.147,0.339 -1.126,0 0,0 m 0,31.985 c 1.197,0 2.357,-0.3 3.483,-0.896 1.129,-0.598 2.142,-1.449 3.042,-2.555 1.375,-1.719 2.419,-3.716 3.127,-5.993 0.716,-2.276 1.071,-4.762 1.071,-7.456 0,-2.356 -0.285,-4.509 -0.843,-6.451 C 9.314,6.69 8.47,4.935 7.345,3.363 6.389,2.038 5.264,1.004 3.969,0.261 2.676,-0.48 1.355,-0.854 0,-0.854 c -1.362,0 -2.697,0.374 -4,1.115 -1.297,0.743 -2.428,1.777 -3.388,3.102 -1.124,1.572 -1.966,3.327 -2.529,5.271 -0.565,1.942 -0.846,4.095 -0.846,6.451 0,1.805 0.17,3.541 0.507,5.207 0.339,1.667 0.829,3.221 1.479,4.662 1.038,2.255 2.321,3.993 3.837,5.205 1.519,1.216 3.167,1.826 4.94,1.826" /></g><g
             transform="matrix(1.3162994,0,0,1.3162994,308.59029,197.16217)"
             id="g796"><path
               inkscape:connector-curvature="0"
               id="path798"
               style="fill:#4fa1d9;fill-opacity:1;fill-rule:nonzero;stroke:none"
               d="m 0,0 h -4.577 v -14.43 h 3.988 c 2.445,0 4.078,0.508 4.894,1.529 0.817,1.018 1.224,3.042 1.224,6.067 0,2.606 -0.399,4.395 -1.191,5.372 C 3.542,-0.488 2.093,0 0,0 m -12.408,-30.933 v 0.852 h 4.199 V 0 h -4.199 V 0.852 H 1.437 c 2.575,0 4.566,-0.662 5.968,-1.987 1.408,-1.323 2.116,-3.196 2.116,-5.611 0,-2.344 -0.713,-4.222 -2.137,-5.632 -1.418,-1.412 -3.419,-2.233 -5.991,-2.468 1.983,-0.131 3.53,-0.592 4.643,-1.384 1.112,-0.794 1.863,-1.97 2.261,-3.528 0.139,-0.511 0.238,-1.062 0.303,-1.657 0.062,-0.6 0.095,-1.343 0.095,-2.227 v -1.267 c 0,-0.786 0.016,-1.359 0.056,-1.713 0.029,-0.356 0.082,-0.672 0.156,-0.95 0.254,-1.062 0.607,-1.814 1.052,-2.264 0.452,-0.443 1.08,-0.662 1.88,-0.662 0.269,0 0.556,0.034 0.878,0.098 0.315,0.065 0.63,0.156 0.939,0.273 v -0.806 c -0.366,-0.177 -0.758,-0.31 -1.179,-0.405 -0.425,-0.093 -0.874,-0.145 -1.352,-0.145 -2.325,0 -3.947,0.661 -4.88,1.988 -0.925,1.327 -1.389,3.816 -1.389,7.466 0,2.752 -0.354,4.572 -1.068,5.458 -0.71,0.889 -1.971,1.333 -3.788,1.333 h -4.577 v -14.843 h 4.197 v -0.852 z" /></g><g
             transform="matrix(1.3162994,0,0,1.3162994,344.03903,197.16217)"
             id="g800"><path
               inkscape:connector-curvature="0"
               id="path802"
               style="fill:#4fa1d9;fill-opacity:1;fill-rule:nonzero;stroke:none"
               d="m 0,0 h -4.581 v -14.43 h 3.986 c 2.456,0 4.082,0.508 4.902,1.529 0.815,1.018 1.223,3.042 1.223,6.067 0,2.606 -0.396,4.395 -1.194,5.372 C 3.54,-0.488 2.097,0 0,0 m -12.41,-30.933 v 0.852 h 4.199 V 0 H -12.41 V 0.852 H 1.436 c 2.577,0 4.568,-0.662 5.976,-1.987 1.401,-1.323 2.11,-3.196 2.11,-5.611 0,-2.344 -0.717,-4.222 -2.135,-5.632 -1.42,-1.412 -3.419,-2.233 -5.992,-2.468 1.984,-0.131 3.53,-0.592 4.644,-1.384 1.107,-0.794 1.862,-1.97 2.255,-3.528 0.142,-0.511 0.243,-1.062 0.308,-1.657 0.06,-0.6 0.091,-1.343 0.091,-2.227 v -1.267 c 0,-0.786 0.018,-1.359 0.055,-1.713 0.033,-0.356 0.088,-0.672 0.158,-0.95 0.253,-1.062 0.607,-1.814 1.053,-2.264 0.455,-0.443 1.079,-0.662 1.881,-0.662 0.268,0 0.559,0.034 0.877,0.098 0.314,0.065 0.626,0.156 0.936,0.273 v -0.806 c -0.361,-0.177 -0.758,-0.31 -1.179,-0.405 -0.422,-0.093 -0.87,-0.145 -1.349,-0.145 -2.324,0 -3.947,0.661 -4.877,1.988 -0.927,1.327 -1.393,3.816 -1.393,7.466 0,2.752 -0.357,4.572 -1.065,5.458 -0.714,0.889 -1.976,1.333 -3.79,1.333 h -4.581 v -14.843 h 4.201 v -0.852 z" /></g><g
             transform="matrix(1.3162994,0,0,1.3162994,373.45779,157.56723)"
             id="g804"><path
               inkscape:connector-curvature="0"
               id="path806"
               style="fill:#4fa1d9;fill-opacity:1;fill-rule:nonzero;stroke:none"
               d="M 0,0 H 4.201 V -0.853 H -7.83 V 0 h 4.201 V 30.081 H -7.83 v 0.851 H 4.201 V 30.081 H 0 z" /></g><g
             transform="matrix(1.3162994,0,0,1.3162994,383.3507,156.15063)"
             id="g808"><path
               inkscape:connector-curvature="0"
               id="path810"
               style="fill:#4fa1d9;fill-opacity:1;fill-rule:nonzero;stroke:none"
               d="M 0,0 V 13.54 H 0.653 C 1.215,9.406 2.354,6.205 4.061,3.933 c 1.71,-2.271 3.83,-3.406 6.37,-3.406 1.694,0 3.116,0.589 4.252,1.769 1.13,1.179 1.696,2.663 1.696,4.452 0,1.471 -0.419,2.771 -1.25,3.899 -0.827,1.128 -2.357,2.373 -4.579,3.745 -0.687,0.435 -1.694,1.009 -3.016,1.723 -2.337,1.281 -3.923,2.328 -4.772,3.144 -0.63,0.656 -1.126,1.427 -1.487,2.314 -0.355,0.889 -0.534,1.821 -0.534,2.795 0,2.388 0.673,4.34 2.021,5.863 1.355,1.519 3.083,2.281 5.195,2.281 1.379,0 2.625,-0.337 3.739,-1.006 1.108,-0.67 2.199,-1.738 3.267,-3.208 l 2.388,4.214 h 0.251 V 20.308 H 16.95 c -0.68,3.666 -1.778,6.476 -3.305,8.428 -1.53,1.948 -3.38,2.923 -5.561,2.923 -1.664,0 -3.043,-0.489 -4.137,-1.474 -1.103,-0.982 -1.646,-2.206 -1.646,-3.677 0,-1.892 2.198,-4.07 6.604,-6.528 0.855,-0.48 1.526,-0.851 1.984,-1.115 2.828,-1.614 4.811,-3.174 5.955,-4.681 1.136,-1.508 1.704,-3.259 1.704,-5.251 0,-2.662 -0.786,-4.87 -2.362,-6.627 C 14.61,0.551 12.648,-0.326 10.3,-0.326 8.862,-0.326 7.515,0.07 6.247,0.866 4.981,1.658 3.82,2.824 2.762,4.369 L 0.481,0 z" /></g></g><g
           id="g3588"
           transform="matrix(0.94994917,0,0,0.94994917,-8.3141379,8.4648051)"><g
             transform="matrix(1.3162994,0,0,1.3162994,39.43612,104.16613)"
             id="g812"><path
               inkscape:connector-curvature="0"
               id="path814"
               style="fill:#4fa1d9;fill-opacity:1;fill-rule:nonzero;stroke:none"
               d="M 0,0 H 4.197 V -0.853 H -7.835 V 0 h 4.201 v 30.081 h -4.201 v 0.851 H 4.197 V 30.081 H 0 z" /></g><g
             transform="matrix(1.3162994,0,0,1.3162994,54.96042,140.22747)"
             id="g816"><path
               inkscape:connector-curvature="0"
               id="path818"
               style="fill:#4fa1d9;fill-opacity:1;fill-rule:nonzero;stroke:none"
               d="m 0,0 v -21.375 c 0,-2.022 0.317,-3.532 0.951,-4.53 0.632,-0.993 1.596,-1.491 2.891,-1.491 h 0.694 v -0.853 h -9.851 v 0.853 h 0.735 c 1.297,0 2.245,0.473 2.851,1.429 0.603,0.952 0.906,2.454 0.906,4.506 V 0.764 C -1.106,1.476 -1.486,1.978 -1.974,2.259 -2.46,2.544 -3.215,2.685 -4.242,2.685 h -1.073 v 0.851 h 7.507 l 12.116,-24.1 v 17.18 c 0,2.023 -0.32,3.54 -0.961,4.552 -0.657,1.011 -1.623,1.517 -2.918,1.517 H 9.732 v 0.851 h 9.896 V 2.685 h -0.781 c -1.28,0 -2.224,-0.484 -2.834,-1.452 C 15.4,0.265 15.094,-1.231 15.094,-3.253 v -25.545 h -0.618 z" /></g><g
             transform="matrix(1.3162994,0,0,1.3162994,89.57502,103.04385)"
             id="g820"><path
               inkscape:connector-curvature="0"
               id="path822"
               style="fill:#4fa1d9;fill-opacity:1;fill-rule:nonzero;stroke:none"
               d="m 0,0 v 0.853 h 4.184 v 30.08 c -0.073,0 -0.18,0.008 -0.322,0.023 -0.138,0.014 -0.252,0.023 -0.338,0.023 -2.403,0 -4.228,-0.981 -5.478,-2.939 -1.236,-1.958 -2.005,-5.074 -2.29,-9.354 H -4.726 V 31.785 H 16.967 V 18.686 h -0.504 c -0.403,4.671 -1.234,7.88 -2.467,9.626 -1.238,1.748 -3.274,2.621 -6.1,2.621 H 7.81 V 0.853 h 4.203 V 0 z" /></g><g
             transform="matrix(1.3162994,0,0,1.3162994,115.16059,103.04385)"
             id="g824"><path
               inkscape:connector-curvature="0"
               id="path826"
               style="fill:#4fa1d9;fill-opacity:1;fill-rule:nonzero;stroke:none"
               d="m 0,0 v 0.853 h 4.201 v 30.08 H 0 v 0.852 H 21.401 V 20.979 h -0.464 c -0.518,3.681 -1.355,6.261 -2.507,7.738 -1.158,1.478 -2.903,2.216 -5.238,2.216 H 7.831 V 17.485 h 1.647 c 1.575,0 2.814,0.621 3.726,1.867 0.909,1.244 1.397,2.987 1.463,5.23 h 0.424 v -14.52 h -0.424 c -0.137,2.373 -0.591,4.067 -1.359,5.087 -0.767,1.019 -1.954,1.528 -3.578,1.528 H 7.831 V 0.853 h 5.277 c 2.376,0 4.237,0.949 5.584,2.856 1.344,1.907 2.23,4.854 2.67,8.843 h 0.485 V 0 z" /></g><g
             transform="matrix(1.3162994,0,0,1.3162994,166.36253,143.76107)"
             id="g828"><path
               inkscape:connector-curvature="0"
               id="path830"
               style="fill:#4fa1d9;fill-opacity:1;fill-rule:nonzero;stroke:none"
               d="m 0,0 h -4.577 v -14.43 h 3.988 c 2.448,0 4.082,0.508 4.898,1.529 0.815,1.018 1.223,3.042 1.223,6.067 0,2.606 -0.4,4.395 -1.196,5.372 C 3.544,-0.488 2.101,0 0,0 m -12.41,-30.933 v 0.852 h 4.203 V 0 H -12.41 V 0.852 H 1.439 c 2.57,0 4.563,-0.662 5.971,-1.987 1.408,-1.323 2.107,-3.196 2.107,-5.611 0,-2.344 -0.708,-4.222 -2.126,-5.632 -1.424,-1.412 -3.421,-2.233 -5.998,-2.468 1.984,-0.131 3.532,-0.592 4.644,-1.384 1.109,-0.794 1.864,-1.97 2.259,-3.528 0.142,-0.511 0.247,-1.062 0.306,-1.657 0.064,-0.6 0.093,-1.343 0.093,-2.227 v -1.267 c 0,-0.786 0.02,-1.359 0.057,-1.713 0.029,-0.356 0.086,-0.672 0.156,-0.95 0.251,-1.062 0.605,-1.814 1.053,-2.264 0.448,-0.443 1.083,-0.662 1.882,-0.662 0.263,0 0.556,0.034 0.876,0.098 0.316,0.065 0.626,0.156 0.938,0.273 v -0.806 c -0.367,-0.177 -0.757,-0.31 -1.181,-0.405 -0.426,-0.093 -0.876,-0.145 -1.354,-0.145 -2.323,0 -3.948,0.661 -4.877,1.988 -0.922,1.327 -1.391,3.816 -1.391,7.466 0,2.752 -0.354,4.572 -1.062,5.458 -0.712,0.889 -1.98,1.333 -3.792,1.333 h -4.577 v -14.843 h 4.195 v -0.852 z" /></g><g
             transform="matrix(1.3162994,0,0,1.3162994,192.08947,140.22747)"
             id="g832"><path
               inkscape:connector-curvature="0"
               id="path834"
               style="fill:#4fa1d9;fill-opacity:1;fill-rule:nonzero;stroke:none"
               d="m 0,0 v -21.375 c 0,-2.022 0.312,-3.532 0.952,-4.53 0.63,-0.993 1.592,-1.491 2.889,-1.491 h 0.698 v -0.853 h -9.855 v 0.853 h 0.735 c 1.297,0 2.245,0.473 2.852,1.429 0.604,0.952 0.907,2.454 0.907,4.506 V 0.764 c -0.283,0.712 -0.669,1.214 -1.154,1.495 -0.485,0.285 -1.236,0.426 -2.269,0.426 h -1.071 v 0.851 h 7.512 l 12.111,-24.1 v 17.18 c 0,2.023 -0.323,3.54 -0.966,4.552 -0.65,1.011 -1.618,1.517 -2.916,1.517 H 9.733 v 0.851 h 9.898 V 2.685 H 18.845 C 17.567,2.685 16.624,2.201 16.009,1.233 15.4,0.265 15.093,-1.231 15.093,-3.253 v -25.545 h -0.616 z" /></g><g
             transform="matrix(1.3162994,0,0,1.3162994,225.73224,117.46786)"
             id="g836"><path
               inkscape:connector-curvature="0"
               id="path838"
               style="fill:#4fa1d9;fill-opacity:1;fill-rule:nonzero;stroke:none"
               d="M 0,0 H 8.825 L 4.452,15.413 z m -1.305,-4.434 c -0.113,-0.38 -0.199,-0.762 -0.254,-1.155 -0.062,-0.394 -0.091,-0.78 -0.091,-1.157 0,-1.08 0.281,-1.909 0.827,-2.492 0.546,-0.576 1.31,-0.867 2.282,-0.867 h 0.862 v -0.853 h -9.329 v 0.853 c 1.223,0.157 2.202,0.678 2.934,1.555 0.733,0.886 1.443,2.481 2.132,4.795 l 7.26,25.086 h 0.953 l 9.157,-31.436 h 2.765 v -0.853 H 8.08 v 0.853 h 3.632 L 9.079,-0.81 h -9.356 z" /></g><g
             transform="matrix(1.3162994,0,0,1.3162994,253.62528,103.04385)"
             id="g840"><path
               inkscape:connector-curvature="0"
               id="path842"
               style="fill:#4fa1d9;fill-opacity:1;fill-rule:nonzero;stroke:none"
               d="m 0,0 v 0.853 h 4.178 v 30.08 c -0.074,0 -0.175,0.008 -0.312,0.023 -0.146,0.014 -0.256,0.023 -0.345,0.023 -2.407,0 -4.228,-0.981 -5.475,-2.939 -1.242,-1.958 -2.007,-5.074 -2.29,-9.354 H -4.728 V 31.785 H 16.969 V 18.686 H 16.46 c -0.407,4.671 -1.231,7.88 -2.47,9.626 -1.234,1.748 -3.266,2.621 -6.102,2.621 H 7.808 V 0.853 h 4.199 V 0 z" /></g><g
             transform="matrix(1.3162994,0,0,1.3162994,289.51629,104.16613)"
             id="g844"><path
               inkscape:connector-curvature="0"
               id="path846"
               style="fill:#4fa1d9;fill-opacity:1;fill-rule:nonzero;stroke:none"
               d="M 0,0 H 4.201 V -0.853 H -7.828 V 0 h 4.199 v 30.081 h -4.199 v 0.851 H 4.201 V 30.081 H 0 z" /></g><g
             transform="matrix(1.3162994,0,0,1.3162994,313.3034,103.44361)"
             id="g848"><path
               inkscape:connector-curvature="0"
               id="path850"
               style="fill:#4fa1d9;fill-opacity:1;fill-rule:nonzero;stroke:none"
               d="m 0,0 c 1.105,0 2.121,0.339 3.034,1.02 0.915,0.676 1.703,1.666 2.364,2.978 0.433,0.856 0.746,2 0.93,3.436 0.184,1.435 0.276,4.145 0.276,8.132 0,4.41 -0.141,7.409 -0.423,8.995 -0.282,1.587 -0.765,2.867 -1.434,3.842 -0.606,0.873 -1.328,1.553 -2.165,2.04 -0.837,0.489 -1.703,0.734 -2.582,0.734 -0.921,0 -1.797,-0.245 -2.642,-0.734 -0.844,-0.487 -1.561,-1.167 -2.155,-2.04 -0.688,-1.004 -1.172,-2.294 -1.441,-3.865 -0.277,-1.57 -0.415,-4.562 -0.415,-8.972 v -1.025 c 0,-3.437 0.09,-5.838 0.277,-7.207 0.181,-1.367 0.491,-2.48 0.928,-3.336 C -4.787,2.686 -3.995,1.696 -3.072,1.02 -2.151,0.339 -1.128,0 0,0 m 0,31.985 c 1.191,0 2.355,-0.3 3.479,-0.896 1.124,-0.598 2.142,-1.449 3.041,-2.555 1.376,-1.719 2.424,-3.716 3.134,-5.993 0.712,-2.276 1.065,-4.762 1.065,-7.456 0,-2.356 -0.282,-4.509 -0.843,-6.451 C 9.311,6.69 8.466,4.935 7.341,3.363 6.387,2.038 5.26,1.004 3.965,0.261 2.666,-0.48 1.346,-0.854 0,-0.854 c -1.365,0 -2.706,0.374 -4.007,1.115 -1.299,0.743 -2.426,1.777 -3.384,3.102 -1.121,1.572 -1.971,3.327 -2.527,5.271 -0.568,1.942 -0.851,4.095 -0.851,6.451 0,1.805 0.17,3.541 0.505,5.207 0.346,1.667 0.833,3.221 1.483,4.662 1.04,2.255 2.319,3.993 3.839,5.205 1.52,1.216 3.165,1.826 4.942,1.826" /></g><g
             transform="matrix(1.3162994,0,0,1.3162994,338.11011,140.22747)"
             id="g852"><path
               inkscape:connector-curvature="0"
               id="path854"
               style="fill:#4fa1d9;fill-opacity:1;fill-rule:nonzero;stroke:none"
               d="m 0,0 v -21.375 c 0,-2.022 0.314,-3.532 0.944,-4.53 0.636,-0.993 1.604,-1.491 2.897,-1.491 h 0.696 v -0.853 H -5.32 v 0.853 h 0.743 c 1.289,0 2.243,0.473 2.844,1.429 0.604,0.952 0.909,2.454 0.909,4.506 V 0.764 C -1.109,1.476 -1.489,1.978 -1.976,2.259 -2.459,2.544 -3.218,2.685 -4.243,2.685 H -5.32 v 0.851 h 7.514 l 12.111,-24.1 v 17.18 c 0,2.023 -0.323,3.54 -0.971,4.552 -0.643,1.011 -1.615,1.517 -2.91,1.517 H 9.728 v 0.851 h 9.901 V 2.685 h -0.783 c -1.283,0 -2.23,-0.484 -2.838,-1.452 -0.615,-0.968 -0.917,-2.464 -0.917,-4.486 v -25.545 h -0.612 z" /></g><g
             transform="matrix(1.3162994,0,0,1.3162994,371.75275,117.46786)"
             id="g856"><path
               inkscape:connector-curvature="0"
               id="path858"
               style="fill:#4fa1d9;fill-opacity:1;fill-rule:nonzero;stroke:none"
               d="M 0,0 H 8.821 L 4.447,15.413 z m -1.311,-4.434 c -0.117,-0.38 -0.197,-0.762 -0.251,-1.155 -0.057,-0.394 -0.084,-0.78 -0.084,-1.157 0,-1.08 0.269,-1.909 0.823,-2.492 0.546,-0.576 1.306,-0.867 2.28,-0.867 h 0.864 v -0.853 h -9.327 v 0.853 c 1.219,0.157 2.202,0.678 2.934,1.555 0.729,0.886 1.439,2.481 2.128,4.795 l 7.26,25.086 h 0.949 l 9.163,-31.436 h 2.761 v -0.853 H 8.086 v 0.853 h 3.626 L 9.075,-0.81 h -9.352 z" /></g><g
             transform="matrix(1.3162994,0,0,1.3162994,411.45129,144.88203)"
             id="g860"><path
               inkscape:connector-curvature="0"
               id="path862"
               style="fill:#4fa1d9;fill-opacity:1;fill-rule:nonzero;stroke:none"
               d="m 0,0 v -0.852 h -4.201 v -30.08 h 3.797 c 2.855,0 5.079,1.073 6.659,3.228 1.582,2.155 2.65,5.543 3.194,10.174 h 0.488 v -14.255 h -21.965 v 0.853 h 4.197 v 30.08 h -4.197 V 0 z" /></g></g></g></g></g></svg>