<?xml version="1.0" encoding="UTF-8"?>
<!DOCTYPE svg PUBLIC "-//W3C//DTD SVG 1.1//EN" "http://www.w3.org/Graphics/SVG/1.1/DTD/svg11.dtd">
<!-- Creator: CorelDRAW -->
<svg xmlns="http://www.w3.org/2000/svg" xml:space="preserve" width="700px" height="741px" style="shape-rendering:geometricPrecision; text-rendering:geometricPrecision; image-rendering:optimizeQuality; fill-rule:evenodd; clip-rule:evenodd"
viewBox="0 0 649.309 687.322"
 xmlns:xlink="http://www.w3.org/1999/xlink">
 <defs>
  <style type="text/css">
   <![CDATA[
    .fil8 {fill:black;fill-rule:nonzero}
    .fil1 {fill:#C7000D;fill-rule:nonzero}
    .fil0 {fill:white;fill-rule:nonzero}
    .fil2 {fill:url(#id0)}
    .fil5 {fill:url(#id1)}
    .fil6 {fill:url(#id2)}
    .fil3 {fill:url(#id3)}
    .fil7 {fill:url(#id4)}
    .fil4 {fill:url(#id5)}
   ]]>
  </style>
  <linearGradient id="id0" gradientUnits="userSpaceOnUse" x1="276.732" y1="261.613" x2="47.1727" y2="267.593">
   <stop offset="0" style="stop-color:#FFE200"/>
   <stop offset="1" style="stop-color:#F08300"/>
  </linearGradient>
  <linearGradient id="id1" gradientUnits="userSpaceOnUse" xlink:href="#id0" x1="375.449" y1="264.603" x2="600.253" y2="264.603">
  </linearGradient>
  <linearGradient id="id2" gradientUnits="userSpaceOnUse" xlink:href="#id0" x1="361.323" y1="219.319" x2="565.169" y2="77.597">
  </linearGradient>
  <linearGradient id="id3" gradientUnits="userSpaceOnUse" xlink:href="#id0" x1="288.516" y1="220.128" x2="84.1026" y2="77.621">
  </linearGradient>
  <linearGradient id="id4" gradientUnits="userSpaceOnUse" xlink:href="#id0" x1="361.027" y1="212.223" x2="434.366" y2="-7.06579">
  </linearGradient>
  <linearGradient id="id5" gradientUnits="userSpaceOnUse" xlink:href="#id0" x1="288.176" y1="212.179" x2="214.741" y2="-7.02189">
  </linearGradient>
 </defs>
 <g id="Ebene_x0020_1">
  <metadata id="CorelCorpID_0Corel-Layer"/>
  <path class="fil0" d="M559.573 258.779c0,128.669 -104.328,232.994 -232.998,232.994 -128.682,0 -232.994,-104.325 -232.994,-232.994 0,-128.669 104.312,-232.994 232.994,-232.994 128.67,0 232.998,104.324 232.998,232.994z"/>
  <path class="fil1" d="M324.57 276.315l-235.027 66.5263c6.83245,26.1101 -3.75476,61.1587 11.552,82.3534 16.0111,22.1672 54.9983,22.4235 77.0014,38.6349 22.0835,16.2232 34.2277,53.505 60.8464,62.2032 25.8821,8.49792 57.8521,-14.0377 86.6042,-14.0657 27.8313,-0.0560562 58.8689,22.6795 83.9905,14.6861 26.3782,-8.50198 38.5346,-45.4998 60.6059,-61.3546 22.1554,-15.9872 61.1145,-15.8592 77.3137,-37.8184 16.2232,-21.9994 3.14624,-57.8521 11.7482,-84.3707l-234.635 -66.7944z"/>
  <path class="fil2" d="M274.867 258.723c0,-3.69836 -2.14939,-6.84865 -5.28381,-8.34563l-181.438 -60.538c-9.89899,24.657 -39.1033,47.2767 -39.0472,74.8 0.0719276,27.5071 31.1095,49.8904 39.4555,74.7277l180.705 -72.114c3.30225,-1.4291 5.60799,-4.69116 5.60799,-8.53z"/>
  <path class="fil3" d="M276.176 232.793l0.0962411 0c3.52614,-0.0320804 6.90876,-2.04538 8.47766,-5.45974l0 0c1.26903,-2.74169 1.01678,-5.79203 -0.296153,-8.24972l-107.307 -154.127c-22.5799,14.0775 -58.853,14.8542 -74.3596,35.9368 -16.1834,21.8994 -4.94342,58.7571 -13.3012,85.2632l186.69 46.6364z"/>
  <path class="fil4" d="M309.911 209.781c3.19419,-1.32914 5.23957,-4.239 5.59212,-7.44535l7.02088 -186.041c-27.267,-0.988751 -57.276,-22.4117 -81.833,-14.5743 -26.2502,8.44592 -38.4066,45.1756 -60.2939,61.0864l119.447 145.093c2.61371,2.52996 6.5525,3.37452 10.0668,1.8816l0 0z"/>
  <path class="fil5" d="M375.449 258.543l0 0.179988 0 0.168169c0.0722653,3.75847 2.35369,6.95672 5.59212,8.36184l179.729 72.114c8.33381,-24.8373 39.3994,-47.2206 39.4433,-74.7277 0.0401849,-27.5233 -29.1482,-50.143 -39.003,-74.8l-180.466 60.538c-3.08613,1.473 -5.22741,4.54292 -5.29563,8.16564z"/>
  <path class="fil6" d="M373.516 231.96l0.0999557 0 186.254 -45.804c-8.38986,-26.5062 2.8099,-63.3638 -13.3174,-85.2632 -15.5468,-21.0826 -51.8078,-21.8592 -74.3755,-35.9368l-106.826 153.282c-1.34096,2.48572 -1.53716,5.51985 -0.280281,8.24567l0 0c1.56924,3.41842 4.90357,5.44387 8.44592,5.47595z"/>
  <path class="fil7" d="M339.384 209.781c-3.16211,-1.32914 -5.18351,-4.239 -5.59178,-7.44535l-7.30116 -186.041c27.295,-0.988751 57.6123,-22.4117 82.1413,-14.5743 26.238,8.44592 38.4225,45.1756 60.2699,61.0864l-119.423 145.093c-2.60999,2.52996 -6.5525,3.37452 -10.0952,1.8816l0 0z"/>
  <path class="fil8" d="M0 684.763l24.557 0 3.05034 -21.8994 14.4618 0c17.6763,0 30.6253,-10.7314 33.6915,-28.2557 3.59841,-20.6463 -8.50198,-28.4276 -31.1376,-28.4276l-33.7756 0 -10.8476 78.5828zm51.7561 -51.2999c-1.45712,7.21707 -5.64817,12.0447 -13.6696,12.0447l-7.78135 0 2.97807 -22.8601 6.65246 0c8.74207,0 13.2293,3.65446 11.8204,10.8155z"/>
  <path class="fil8" d="M140.59 630.469c-5.25173,-5.40774 -13.5133,-8.13356 -24.5851,-8.13356 -11.608,0 -21.0667,2.89399 -28.0595,8.65799 -7.04485,5.80385 -11.2119,12.9888 -12.3847,21.4348l-0.548406 4.01072c-1.3288,9.61466 1.15692,17.056 7.41327,22.1274 6.01625,4.89952 14.7543,7.36937 25.9382,7.36937 5.73597,0 10.9313,-0.408265 15.4786,-1.29706 4.58716,-0.820582 8.89403,-2.12136 12.8089,-3.7865l1.22885 -0.520378 0.180326 -1.27308 1.30078 -9.45831 0.396108 -2.82611 -2.75385 0.972542c-4.239,1.45712 -8.34563,2.60189 -12.2446,3.30631 -3.8824,0.720627 -7.65303,1.08904 -11.2396,1.08904 -5.2237,0 -9.31851,-1.11707 -12.1845,-3.36236 -2.35774,-1.79346 -3.36236,-5.03966 -3.05,-9.61466l45.4674 0 1.9775 0 0.268124 -1.9775 0.720627 -5.29563c1.21264,-8.74207 -0.832739,-15.9591 -6.12837,-21.4229zm-40.4723 16.6636c1.04481,-4.02693 2.714,-6.94895 5.04371,-8.67015 2.86596,-2.11731 5.816,-3.13408 9.0622,-3.13408 3.7426,0 6.49645,1.01678 8.44592,3.13408 1.66514,1.76543 2.50159,4.68745 2.50159,8.67015l-25.0534 0z"/>
  <path class="fil8" d="M197.397 623.905l-18.429 0 2.55799 -17.7242 -22.8362 0 -8.49759 57.7123c-0.948904,6.82063 0.424136,12.1723 4.03875,15.9028 3.57038,3.68283 8.866,5.68802 15.7427,5.56409 10.7756,-0.200249 16.5076,-2.74203 16.5076,-2.74203l1.79346 -15.1666c0,0 -5.13961,1.61314 -8.9224,1.73741 -6.66461,0.240096 -6.27222,-4.15086 -5.94804,-6.62072l2.98212 -22.5238 18.4688 0 2.54178 -16.1391z"/>
  <path class="fil8" d="M317.228 630.513c-5.8599,-5.43982 -14.5861,-8.17746 -26.0101,-8.17746 -11.2997,0 -20.7864,2.72582 -28.1595,8.14943 -7.50917,5.49182 -11.9724,12.8612 -13.1732,21.8032l-0.524092 3.61461c-1.2849,9.16249 1.17279,16.5916 7.27279,22.0112 5.98823,5.32365 14.7303,8.02178 25.954,8.02178 11.296,0 20.7145,-2.60999 28.0315,-7.84956 7.41327,-5.31184 11.8603,-12.7528 13.1732,-22.1834l0.496402 -3.61461c1.22885,-8.89808 -1.17279,-16.2391 -7.06106,-21.7751zm-43.3939 23.2002c0.916486,-6.78078 2.79403,-11.552 5.57591,-14.1218 2.75385,-2.62586 6.01592,-3.87058 9.88684,-3.87058 3.72639,0 6.62038,1.20082 8.866,3.65851 2.13351,2.41346 2.75385,7.22889 1.76543,14.3339l-0.124269 0.832739c-1.00462,7.44096 -3.01015,12.4685 -5.764,14.63 -2.93789,2.27365 -6.14018,3.38634 -9.82673,3.38634 -4.08299,0 -7.06106,-1.11268 -9.07841,-3.41437 -1.35683,-1.55303 -2.69779,-5.32365 -1.4291,-14.602l0.128322 -0.832739z"/>
  <path class="fil8" d="M401.331 607.889c-1.94947,-0.876301 -4.67124,-1.53682 -8.2298,-2.10143 -3.46232,-0.540301 -7.86543,-0.792554 -13.077,-0.792554 -12.3567,0 -23.3444,3.6028 -32.5626,10.6915 -9.32256,7.17284 -14.9143,16.7436 -16.5356,28.536l-0.380237 2.98179c-1.7651,12.6488 1.07284,22.3958 8.44187,28.9882 7.22889,6.45255 17.368,9.74298 30.1208,9.74298 4.99947,0 9.51876,-0.336337 13.4694,-1.11302 4.08299,-0.764526 6.90505,-1.58511 8.65799,-2.48572l1.08904 -0.536249 0.167831 -1.17279 1.53716 -11.2119 0.396446 -2.72582 -2.70995 0.848611c-1.94947,0.592305 -4.59121,1.2849 -7.83741,2.00148 -3.17832,0.70847 -7.03303,1.04852 -11.4679,1.04852 -6.28066,0 -10.7878,-1.92111 -13.7939,-5.82006 -3.05,-3.8824 -3.98269,-10.1388 -2.8099,-18.5246l0.124269 -1.06102c1.08871,-7.79317 3.89861,-13.9776 8.37365,-18.3446 4.42304,-4.37509 9.97092,-6.48057 16.9317,-6.48057 3.85471,0 7.21707,0.268124 10.0111,0.820582 2.78188,0.564277 4.95929,1.15692 6.51266,1.79312l2.52557 1.05696 0.412317 -2.87812 1.56518 -11.424 0.199911 -1.31293 -1.13261 -0.52443z"/>
  <path class="fil8" d="M467.109 627.787c-2.86596,-3.36236 -7.51323,-5.0714 -13.8537,-5.0714 -6.12803,0 -11.5239,1.10458 -15.999,3.27828 -2.51375,1.22885 -4.75938,2.54178 -6.72067,3.95467l3.02197 -21.819 0.268462 -1.94947 -1.9775 0 -19.4296 0 -1.99337 0 -0.252253 1.94947 -10.2951 74.6598 -0.283996 1.97345 1.94914 0 19.4454 0 1.9775 0 0.252253 -1.97345 5.53572 -40.0198c1.44092,-1.12889 3.16211,-2.07746 5.15549,-2.8099 2.30168,-0.848611 4.75938,-1.2849 7.30116,-1.2849 2.2176,0 3.78278,0.424136 4.54731,1.24067 0.760474,0.764526 1.01678,1.69722 0.86043,2.89399l-5.51985 39.9799 -0.300205 1.97345 1.99337 0 19.4296 0 1.94947 0 0.296153 -1.97345 5.49182 -39.9357c0.920538,-6.63659 -0.0280281,-11.7083 -2.85009,-15.0666z"/>
  <path class="fil8" d="M575.092 627.787c-2.83793,-3.36236 -7.50141,-5.0714 -13.8256,-5.0714 -6.15639,0 -11.5361,1.10458 -16.0274,3.27828 -2.50159,1.22885 -4.75904,2.54178 -6.73654,3.95467l0.436293 -5.59178 -23.3842 0 -7.69321 58.4326 -0.284333 1.97345 1.9775 0 19.4454 0 1.94914 0 0.29649 -1.97345 5.49182 -40.0198c1.45273,-1.12889 3.19014,-2.07746 5.18351,-2.8099 2.30168,-0.848611 4.7712,-1.2849 7.30116,-1.2849 2.18923,0 3.75442,0.424136 4.5311,1.24067 0.736498,0.764526 1.03265,1.69722 0.86043,2.89399l-5.51985 39.9799 -0.268124 1.97345 1.96129 0 19.4458 0 1.94914 0 0.308309 -1.97345 5.47967 -39.9357c0.932695,-6.63659 -0.0398472,-11.7083 -2.87778,-15.0666z"/>
  <path class="fil8" d="M486.55 616.984c2.09333,1.90524 4.80328,2.88183 8.02145,2.88183 3.29043,0 6.25635,-0.976594 8.84203,-2.88183 2.766,-1.96163 4.37509,-4.51928 4.78741,-7.55341 0.392394,-2.90986 -0.496402,-5.40774 -2.68597,-7.40111 -2.10143,-1.90524 -4.7712,-2.85009 -8.0775,-2.85009 -3.23438,0 -6.19624,0.944852 -8.82616,2.82206 -2.7498,1.99337 -4.3349,4.49125 -4.78335,7.42914 -0.412317,3.05 0.508558,5.59178 2.7221,7.55341z"/>
  <polygon class="fil8" points="484.561,623.905 482.583,623.905 482.315,625.882 474.466,682.79 474.198,684.763 476.143,684.763 495.576,684.763 497.566,684.763 497.834,682.79 505.687,625.882 505.968,623.905 503.978,623.905 "/>
  <path class="fil8" d="M253.276 622.492c0,0 -10.3512,-1.93327 -26.6743,10.6314l1.12855 -9.21855 -22.5397 0 -8.40168 60.8585 23.3562 0 2.18957 -15.615c0,0 0.848611,-9.54645 5.35168,-14.9704 4.46323,-5.41956 7.07693,-8.69784 20.4902,-9.88278l5.09943 -21.8032z"/>
  <path class="fil8" d="M645.865 624.878c-13.4572,-13.1053 -53.5172,-0.876639 -53.5172,-0.876639l-1.93732 14.0215c11.2119,-6.2962 27.8914,-5.39153 32.8469,-3.00576 4.19476,2.00519 2.60965,6.07197 2.06125,8.79779 -4.49092,-1.41289 -39.5794,-5.83188 -45.0192,21.2511 -4.26298,21.0106 16.6916,24.345 28.8082,21.2828 17.524,-4.46323 21.5627,-4.46323 32.1543,-0.128322 -0.0560562,0 6.73654,-40.6121 6.73654,-40.6121 1.07284,-7.88164 3.13408,-15.6188 -2.13351,-20.7303zm-24.9531 45.7956l-6.83278 1.46928c-9.17837,1.0725 -13.3174,-3.26241 -11.8924,-9.39077 2.64173,-11.452 21.3226,-6.32828 21.3226,-6.32828l-2.5975 14.2498z"/>
 </g>
</svg>
