<?xml version="1.0" encoding="UTF-8" standalone="no"?>
<!-- Created with Inkscape (http://www.inkscape.org/) -->
<svg
   xmlns:dc="http://purl.org/dc/elements/1.1/"
   xmlns:cc="http://web.resource.org/cc/"
   xmlns:rdf="http://www.w3.org/1999/02/22-rdf-syntax-ns#"
   xmlns:svg="http://www.w3.org/2000/svg"
   xmlns="http://www.w3.org/2000/svg"
   xmlns:sodipodi="http://sodipodi.sourceforge.net/DTD/sodipodi-0.dtd"
   xmlns:inkscape="http://www.inkscape.org/namespaces/inkscape"
   id="svg2"
   sodipodi:version="0.32"
   inkscape:version="0.45.1"
   width="413.94"
   height="548.64734"
   version="1.0"
   sodipodi:docbase="C:\Users\TML\Desktop"
   sodipodi:docname="RBC.svg"
   inkscape:output_extension="org.inkscape.output.svg.inkscape">
  <metadata
     id="metadata7">
    <rdf:RDF>
      <cc:Work
         rdf:about="">
        <dc:format>image/svg+xml</dc:format>
        <dc:type
           rdf:resource="http://purl.org/dc/dcmitype/StillImage" />
      </cc:Work>
    </rdf:RDF>
  </metadata>
  <defs
     id="defs5" />
  <sodipodi:namedview
     inkscape:window-height="575"
     inkscape:window-width="903"
     inkscape:pageshadow="2"
     inkscape:pageopacity="0.0"
     guidetolerance="10.0"
     gridtolerance="10.0"
     objecttolerance="10.0"
     borderopacity="1.0"
     bordercolor="#666666"
     pagecolor="#ffffff"
     id="base"
     inkscape:zoom="1"
     inkscape:cx="142.43538"
     inkscape:cy="478.90812"
     inkscape:window-x="0"
     inkscape:window-y="0"
     inkscape:current-layer="svg2"
     inkscape:showpageshadow="false"
     showborder="true"
     borderlayer="true"
     width="413.94px"
     height="548.64734px" />
  <path
     style="fill:#0034aa;fill-opacity:1"
     d="M 166.01245,546.5291 C 106.43405,541.68048 28.265562,521.71854 13.193304,507.50357 C 9.8286013,504.33025 6.163075,498.44665 5.0476799,494.42888 L 0,0 L 413.94,0 L 410.75946,507.74219 C 396.87491,519.93302 337.23375,536.66264 281.66557,543.95369 C 255.08,547.44195 193.95479,548.80311 166.01245,546.5291 z "
     id="path2215"
     sodipodi:nodetypes="csccccsc" />
  <path
     style="fill:#fdfdff;fill-opacity:1"
     d="M 78.35525,477.37991 C 79.036297,446.63619 80.147241,446.64839 102.9832,477.65017 L 120.22783,501.06126 L 134.11313,501.57836 C 141.9799,501.87135 148.48885,501.30196 149.12989,500.26473 C 149.7522,499.25781 142.09135,487.9535 132.10578,475.14405 L 113.95021,451.85411 L 122.84311,447.42259 C 133.5316,442.09629 139.20153,433.79164 139.20153,423.46269 C 139.20153,409.65085 134.66835,403.00694 121.86663,398.05645 C 113.81916,394.94444 40.098208,394.86762 44.041919,397.97535 C 52.844194,404.91176 53.115894,406.63465 53.115894,455.51493 L 53.115894,501.76594 L 65.479257,501.14332 L 77.842619,500.52072 L 78.35525,477.37991 z "
     id="path2213" />
  <path
     style="fill:#0034aa;fill-opacity:1"
     d="M 78.758424,424.73314 L 78.758424,406.21686 L 92.694277,406.92058 C 104.61503,407.52256 107.13108,408.24297 110.09456,411.90272 C 116.81516,420.20229 112.85511,436.81532 103.09626,441.26175 C 100.69689,442.35497 94.239313,443.24943 88.746097,443.24943 L 78.758424,443.24943 L 78.758424,424.73314 z "
     id="path2211" />
  <path
     style="fill:#fdfdff;fill-opacity:1"
     d="M 239.02423,498.1193 C 254.47778,493.54441 262.2751,483.86046 262.45279,469.02199 C 262.59637,457.03075 257.87463,449.17972 247.8533,444.74681 L 239.54216,441.0704 L 245.11902,437.6789 C 248.18631,435.81357 251.57274,432.64905 252.64441,430.64659 C 255.59356,425.13604 254.97962,412.41612 251.47841,406.48903 C 246.13108,397.43675 236.84597,395.62204 196.11304,395.66833 C 161.8582,395.70723 160.43867,395.84969 164.17178,398.87364 C 171.70673,404.97717 172.17049,408.30143 172.17049,456.20684 L 172.17049,502.37405 L 201.93415,501.33113 C 218.30415,500.75753 234.99469,499.31221 239.02423,498.1193 z "
     id="path2209" />
  <path
     style="fill:#0034aa;fill-opacity:1"
     d="M 197.81303,468.69801 L 197.81303,448.35638 L 212.43652,449.02047 C 225.38561,449.60852 227.62111,450.24565 231.9604,454.58493 C 235.86694,458.49148 236.83572,461.14272 236.73723,467.65755 C 236.5002,483.33711 229.31863,489.03966 209.80944,489.03966 L 197.81303,489.03966 L 197.81303,468.69801 z "
     id="path2207" />
  <path
     style="fill:#0034aa;fill-opacity:1"
     d="M 197.81303,422.20604 L 197.81303,406.20387 L 210.59771,406.92626 C 225.67871,407.77841 229.19335,410.7409 228.48431,422.00282 C 227.88572,431.51043 221.57101,436.23803 207.96283,437.36652 L 197.81303,438.20822 L 197.81303,422.20604 z "
     id="path2205" />
  <path
     style="fill:#fefefc;fill-opacity:1"
     d="M 365.40527,498.57544 C 374.08735,495.61272 374.59361,495.08064 375.14634,488.33779 C 375.66052,482.06477 375.33626,481.39137 372.39892,482.63244 C 348.8221,492.59397 330.06084,490.47524 318.32297,476.52556 C 311.12,467.96531 309.00341,459.39615 309.89522,442.40504 C 311.08373,419.76093 318.97337,409.00023 335.77586,407.10634 C 347.93798,405.73549 356.12725,407.84318 362.77803,414.05594 C 366.01062,417.07563 368.95171,419.25004 369.31378,418.88797 C 369.67585,418.52588 371.13586,414.36274 372.55824,409.63653 L 375.14439,401.0434 L 369.47463,398.11146 C 366.28063,396.45977 357.13823,394.76359 348.53745,394.227 C 321.45879,392.53763 300.31843,401.20224 290.56526,417.98758 C 284.20445,428.93462 281.48689,445.63851 283.76517,459.78538 C 288.30218,487.95764 306.64267,501.68403 339.76274,501.69509 C 350.51493,501.69866 359.43182,500.61386 365.40527,498.57544 z "
     id="path2203" />
  <path
     style="fill:#f2d31f;fill-opacity:1"
     d="M 271.82564,386.92745 C 272.41429,383.14975 272.21259,375.31962 271.37741,369.52716 L 269.85894,358.99541 L 310.30567,359.03563 C 345.71355,359.07085 351.68306,359.49855 358.2228,362.46874 C 366.90618,366.41255 373.64751,374.16099 373.64751,380.19782 C 373.64751,385.15134 377.0966,387.948 379.13602,384.64816 C 379.91467,383.38827 381.98628,377.0579 383.73959,370.58067 L 386.92741,358.80389 L 382.57697,354.14238 C 380.18423,351.57854 375.20149,347.92945 371.5042,346.03326 L 364.78186,342.58564 L 372.64864,334.25738 C 400.62549,304.6394 403.10624,255.18982 378.1058,225.47848 L 373.20311,219.65196 L 381.66756,205.93614 C 391.18544,190.51326 392.56459,181.93031 386.49947,175.86517 C 384.50157,173.86729 373.8004,167.68561 362.71905,162.1281 L 342.57117,152.02357 L 304.25044,152.02357 L 265.92971,152.02357 L 252.47698,160.32106 L 239.02423,168.61854 L 238.51316,144.75237 C 238.02414,121.91502 237.83682,120.88621 234.16778,120.88621 C 230.94013,120.88621 230.70005,120.44449 232.65034,118.09453 C 235.8533,114.2352 233.76861,112.81274 228.80376,115.46985 C 225.9596,116.992 221.22248,117.23562 213.53611,116.25503 C 198.29881,114.31115 181.07854,114.2287 177.20742,116.08111 C 174.86371,117.20263 174.0021,116.84106 174.0021,114.73598 C 174.0021,109.23614 181.63057,107.43657 205.56167,107.29099 L 228.87897,107.14914 L 234.85542,101.17318 L 240.83185,95.197226 L 241.50138,67.746315 L 242.17092,40.295403 L 180.10834,40.295403 L 118.04578,40.295403 L 118.0919,29.76365 L 118.13802,19.231897 L 96.841425,19.537885 C 68.516065,19.944864 59.092893,24.431894 52.269947,40.761511 C 44.553543,59.229491 54.528999,81.195156 72.459519,85.218286 C 75.420224,85.88259 79.285011,86.817158 81.047935,87.295105 C 83.717689,88.018901 84.253251,86.919316 84.253251,80.714234 C 84.253251,74.120086 83.759907,73.264369 79.958109,73.264369 C 71.047184,73.264369 65.303624,59.82674 69.689156,49.239123 C 72.544799,42.344994 80.738302,38.463794 92.43668,38.463794 L 100.73773,38.463794 L 100.73773,49.453449 L 100.73773,60.443104 L 122.71704,60.443104 L 144.69636,60.443104 L 144.69636,65.022127 C 144.69636,69.034223 143.90266,69.60115 138.28572,69.60115 C 133.25482,69.60115 131.87509,70.335073 131.87509,73.011202 C 131.87509,75.55215 135.0261,77.57712 144.23845,80.956454 L 156.60182,85.491654 L 157.13996,72.967379 L 157.67811,60.443104 L 189.65103,60.443104 L 221.62395,60.443104 L 221.62395,73.133539 C 221.62395,90.469634 220.28623,91.580461 199.40907,91.580461 C 168.69811,91.580461 157.09496,97.996907 157.09496,114.97981 C 157.09496,127.86524 162.32548,136.8472 173.08198,142.43305 C 180.34867,146.20663 197.15348,146.10662 204.5906,142.24553 C 207.81458,140.57175 212.14176,139.2023 214.20655,139.2023 C 217.32305,139.2023 217.9613,140.36899 217.96406,146.07084 L 217.9674,152.93937 L 206.85656,152.31284 C 200.74558,151.96825 188.17466,153.11811 178.92118,154.86809 C 169.66769,156.61807 155.09074,158.13635 146.52796,158.24203 C 132.57933,158.4142 130.04971,157.89954 122.21813,153.29603 C 112.77091,147.74282 106.08184,138.89666 102.55874,127.29684 C 100.4251,120.27187 96.444259,115.39138 92.847858,115.39138 C 90.015091,115.39138 92.463403,137.79938 96.126475,145.39865 C 100.98046,155.46855 112.04763,165.4344 127.13137,173.31815 C 159.4527,190.21141 178.9856,206.97333 187.77167,225.35591 C 190.64272,231.36283 193.62509,236.27759 194.39918,236.27759 C 195.17327,236.27759 196.05201,231.22779 196.35192,225.05581 L 196.89722,213.83402 L 211.5501,224.73997 C 236.76161,243.50455 246.66922,257.18444 252.07471,280.69411 C 253.86979,288.50135 255.91762,294.88908 256.62543,294.88908 C 258.878,294.88908 260.48035,276.92823 259.11404,266.99399 C 258.38944,261.72553 256.70022,254.30751 255.36019,250.5095 L 252.9238,243.60403 L 265.66382,243.60403 L 278.40383,243.60403 L 278.40383,260.08851 L 278.40383,276.57299 L 273.67218,276.57299 C 267.40394,276.57299 268.82212,280.96001 275.33977,281.73157 C 278.67511,282.12643 280.23544,283.39215 280.23544,285.70289 C 280.23544,290.37964 282.12989,294.88908 284.09462,294.88908 C 284.99422,294.88908 285.73027,291.88213 285.73027,288.20697 L 285.73027,281.52488 L 300.84105,282.70117 C 309.15197,283.34813 319.04266,283.88241 322.82036,283.88846 C 329.68136,283.89941 329.68887,283.90796 329.66872,291.68377 C 329.65764,295.96516 329.13769,302.55895 328.51327,306.33664 C 327.50876,312.41387 326.77255,313.20518 322.12281,313.20518 C 319.23245,313.20518 316.86763,314.0294 316.86763,315.03679 C 316.86763,316.04417 318.99367,316.8684 321.59219,316.8684 C 325.8888,316.8684 326.20742,317.3661 325.10987,322.36322 C 323.58176,329.32065 326.80151,329.64979 330.33924,322.89778 C 332.6785,318.43314 333.82816,317.97859 341.84528,318.34859 C 346.74419,318.57469 354.75455,319.24767 359.64609,319.84414 L 368.53976,320.9286 L 359.71486,329.88822 C 354.86117,334.81602 349.62268,339.24311 348.07376,339.7262 C 343.96405,341.00798 275.11769,351.66897 270.94995,351.66897 C 269.00528,351.66897 267.41418,350.61543 267.41418,349.32779 C 267.41418,348.04013 264.64988,341.24028 261.27129,334.21701 C 249.89947,310.57773 233.92573,296.54545 168.54653,252.76207 C 96.372918,204.42862 65.608825,180.61252 51.098963,161.83977 C 42.125488,150.22996 36.605659,135.06218 36.711819,122.30567 C 36.786549,113.32359 37.794264,109.47425 44.137603,93.939876 C 47.606212,85.445519 44.869642,84.48329 37.515346,91.611362 C 27.70609,101.11887 23.291215,114.90182 24.214145,133.13683 C 24.862718,145.95126 25.996777,150.21797 32.003393,162.44257 C 38.19066,175.03483 42.477212,180.15418 67.755159,205.14023 C 97.590407,234.63097 108.89984,248.23333 114.58301,261.46222 C 119.51918,272.95225 122.64501,271.62444 122.18201,258.23422 C 121.93848,251.19117 122.49064,247.48731 123.7139,247.95827 C 124.76586,248.36328 131.35966,252.69324 138.36677,257.5804 C 156.0899,269.94147 175.55483,289.62495 186.12886,305.87874 L 195.06561,319.61581 L 195.60629,307.29225 L 196.14698,294.9687 L 209.34335,304.50862 C 240.85524,327.28917 258.27077,351.04529 264.72422,380.05236 C 266.40595,387.61135 268.45094,393.79598 269.26864,393.79598 C 270.08637,393.79598 271.23702,390.70514 271.82564,386.92745 z "
     id="path2201" />
  <path
     style="fill:#0034aa;fill-opacity:1"
     d="M 336.78302,307.51224 C 337.74966,305.10274 339.55947,299.14966 340.80482,294.28319 L 343.06911,285.43505 L 357.9004,285.93764 C 366.05762,286.21405 374.1741,286.7889 375.93702,287.21506 C 379.79769,288.1483 380.02677,292.89001 376.60666,301.07549 C 374.24445,306.72901 373.3359,307.22272 363.32749,308.29117 C 357.41858,308.92198 348.63333,309.9905 343.80475,310.66563 C 335.1037,311.88224 335.04116,311.85416 336.78302,307.51224 z "
     id="path2199" />
  <path
     style="fill:#0034aa;fill-opacity:1"
     d="M 286.38879,269.98425 C 286.98007,266.05267 287.9974,258.88216 288.64952,254.04977 L 289.83522,245.26361 L 307.96221,245.57594 C 317.93207,245.74771 326.47165,246.50704 326.93906,247.26334 C 327.40649,248.01963 328.33476,254.51159 329.00193,261.6899 L 330.21493,274.74138 L 317.58855,274.7573 C 310.64404,274.76606 300.54127,275.30407 295.13795,275.9529 L 285.31374,277.13259 L 286.38879,269.98425 z "
     id="path2197" />
  <path
     style="fill:#0034aa;fill-opacity:1"
     d="M 344.34176,263.26 C 344.34176,257.65091 343.84148,251.75793 343.23,250.16447 C 341.97034,246.88187 347.29291,246.44353 364.01788,248.45248 L 373.62015,249.60586 L 376.70874,259.40398 C 378.40746,264.79296 379.37603,269.62341 378.86111,270.13831 C 378.34621,270.65323 370.36871,271.61087 361.13333,272.26642 L 344.34176,273.45832 L 344.34176,263.26 z "
     id="path2195" />
  <path
     style="fill:#0034aa;fill-opacity:1"
     d="M 258.13484,232.78469 C 261.56101,227.97307 277.2764,216.12989 280.23502,216.12989 C 280.89676,216.12989 280.64177,221.07523 279.66836,227.11954 L 277.89853,238.1092 L 266.12099,238.1092 L 254.34347,238.1092 L 258.13484,232.78469 z "
     id="path2193" />
  <path
     style="fill:#0034aa;fill-opacity:1"
     d="M 293.71909,233.07227 C 300.44324,209.36797 300.75406,208.80345 307.08123,208.80345 C 313.5373,208.80345 316.16821,212.15887 321.45002,227.12909 L 323.89137,234.04861 L 318.31894,235.16311 C 315.25411,235.77608 308.26077,236.27759 302.77817,236.27759 C 294.15923,236.27759 292.93293,235.8437 293.71909,233.07227 z "
     id="path2191" />
  <path
     style="fill:#0034aa;fill-opacity:1"
     d="M 339.66471,229.38449 C 339.0755,226.6277 337.79537,222.41112 336.81999,220.01431 C 335.8446,217.61752 335.45231,215.25077 335.94821,214.75486 C 337.33042,213.37266 352.02753,222.51204 357.02439,227.86105 L 361.4648,232.61437 L 357.02439,232.81911 C 354.58218,232.93172 349.91821,233.33278 346.66001,233.71035 C 341.45266,234.31381 340.60642,233.7905 339.66471,229.38449 z "
     id="path2189" />
  <path
     style="fill:#0034aa;fill-opacity:1"
     d="M 234.25983,220.51765 C 230.91235,217.06392 225.46961,212.39718 222.16486,210.14708 C 218.86008,207.89701 216.36182,205.42091 216.61312,204.64464 C 216.86444,203.86836 229.40459,195.83218 244.48012,186.78645 L 271.89019,170.33966 L 305.46756,170.33966 C 338.99775,170.33966 339.0583,170.34703 348.56188,175.59204 C 353.7962,178.48085 360.78872,182.22714 364.1008,183.91712 L 370.12274,186.98981 L 365.18341,196.06503 C 359.9973,205.59361 358.07993,206.63803 352.82602,202.79629 C 350.16278,200.84886 349.95528,199.5717 351.59952,195.24705 C 354.01636,188.89025 352.52803,186.76254 342.50202,182.24146 C 334.0997,178.45254 331.24644,179.62991 336.02763,184.91308 C 337.82259,186.89651 338.83793,189.70055 338.28392,191.1443 C 337.4635,193.28227 333.6981,193.58666 317.98961,192.78495 C 288.81948,191.29618 269.27645,198.32546 250.09096,217.20686 L 240.34618,226.79718 L 234.25983,220.51765 z "
     id="path2187" />
  <path
     style="fill:#0034aa;fill-opacity:1"
     d="M 183.39753,184.50347 C 170.0155,175.89125 170.09513,175.78579 192.7396,172.13285 C 206.24989,169.95342 219.9511,170.66417 224.99002,173.80586 C 226.72562,174.88799 223.3191,177.8106 213.31051,183.82627 C 205.53912,188.49726 198.25483,192.25004 197.12317,192.16581 C 195.99151,192.08156 189.81498,188.63351 183.39753,184.50347 z "
     id="path2185" />
  <path
     style="fill:#0034aa;fill-opacity:1"
     d="M 181.32854,128.50665 C 181.32854,126.13759 190.0357,122.71782 196.06759,122.71782 C 202.24479,122.71782 203.15116,125.35576 197.93344,128.1482 C 193.69156,130.41839 181.32854,130.68527 181.32854,128.50665 z "
     id="path2183" />
  <path
     style="fill:#f2d31f;fill-opacity:1"
     d="M 195.98142,383.79084 C 195.98142,379.45369 188.42207,360.3895 184.24337,354.18818 C 173.92616,338.87721 152.9917,320.08415 127.97675,303.67713 C 119.54331,298.14574 101.51617,286.3254 87.91647,277.40971 C 44.33102,248.83598 31.022713,231.56565 34.716171,208.37115 C 36.366817,198.00525 35.946646,195.98219 32.143181,195.98219 C 28.393712,195.98219 23.810147,209.56564 23.810147,220.67726 C 23.810147,241.53867 35.472387,260.8082 59.60089,279.81432 C 91.423782,304.88136 105.50891,320.10708 114.63553,339.30561 C 119.66738,349.89048 122.64442,348.22562 122.00477,335.18449 C 121.68473,328.65984 122.21634,324.19483 123.31322,324.19483 C 124.32934,324.19483 134.41614,330.35851 145.7283,337.89188 C 166.7553,351.89488 183.98744,368.55159 189.52935,380.2303 C 192.57602,386.65067 195.98142,388.52992 195.98142,383.79084 z "
     id="path2161" />
</svg>
