<?xml version="1.0" encoding="UTF-8" standalone="no"?>
<!-- Created with Inkscape (http://www.inkscape.org/) -->
<svg
   xmlns:svg="http://www.w3.org/2000/svg"
   xmlns="http://www.w3.org/2000/svg"
   version="1.0"
   width="602.36218"
   height="561.61414"
   id="svg1884">
  <defs
     id="defs1886" />
  <g
     id="layer1">
    <g
       transform="translate(-48.81891,-251.5551)"
       id="g1894">
      <path
         d="M 72.35355,610.57183 C 67.436149,587.97509 66.53544,579.06297 66.53544,555.54356 C 66.53544,396.58975 192.6513,269.26809 349.98547,269.26809 C 507.34161,269.26101 633.46456,396.59683 633.46456,555.54356 C 633.46456,579.06297 632.56385,587.98254 627.64645,610.57927 L 540.37586,674.54127 L 527.07641,781.22741 L 383.12142,781.22741 L 373.91874,788.04757 C 367.02559,793.04505 358.00433,795.45627 349.70236,795.45627 C 340.78988,795.45627 333.0761,792.76903 324.18559,786.56611 L 316.47181,781.22741 L 172.33504,781.22741 L 158.83256,674.54127 L 72.35355,610.57183 L 72.35355,610.57183 z "
         style="fill:#df0024;fill-rule:evenodd"
         id="_46774376" />
      <path
         d="M 321.67232,731.48363 L 333.89673,740.79545 C 338.58169,744.5145 345.29343,747.10041 349.98547,747.10041 C 354.69949,747.09296 361.41087,744.5145 366.10327,740.79545 L 378.32768,731.48363 L 484.02594,731.48363 L 495.04456,643.80627 L 579.01775,582.36462 C 582.32259,569.64628 582.91078,564.83765 582.91078,552.82407 C 582.91078,537.79584 579.01031,518.99789 573.01787,505.69844 L 572.81448,505.17545 L 420.7609,658.72537 L 567.09807,477.66167 C 561.30936,452.13746 549.77484,431.829 531.86307,415.09396 L 531.07149,414.38919 L 399.4426,643.80627 L 515.25878,393.07089 L 514.64862,392.27931 C 499.42445,371.65089 480.40858,357.95211 455.40027,349.4464 L 374.61606,634.39277 L 432.88362,337.94128 C 415.56004,327.91018 394.7502,322.61542 373.51197,322.61542 C 367.72291,322.61542 365.71811,322.71711 360.41591,323.3053 L 349.60067,631.78525 L 335.69106,323.50868 C 329.97465,322.92049 327.87559,322.8188 323.26327,322.8188 C 302.96898,322.8188 284.43996,327.71424 265.22071,338.32609 L 263.92032,339.03085 L 325.18055,634.91576 L 244.28721,349.84608 C 218.38563,358.6349 197.26363,373.76482 184.14559,392.97663 L 301.14595,643.0147 L 170.23599,412.09419 C 152.12083,426.79537 137.41256,451.04825 131.49276,476.15789 L 278.62185,659.12505 L 126.2919,504.38388 L 125.97973,504.97951 C 119.68221,518.29348 115.88343,536.42317 115.88343,553.43423 C 115.89052,563.62478 117.08922,572.96565 119.67512,583.26533 L 205.36965,646.21041 L 215.87237,731.48363 L 321.67232,731.48363 z "
         style="fill:#f6e000;fill-rule:evenodd"
         id="_46157048" />
    </g>
  </g>
</svg>
