<?xml version="1.0" encoding="UTF-8"?>
<!DOCTYPE svg PUBLIC "-//W3C//DTD SVG 1.1//EN" "http://www.w3.org/Graphics/SVG/1.1/DTD/svg11.dtd">
<!-- Creator: CorelDRAW -->
<svg xmlns="http://www.w3.org/2000/svg" xml:space="preserve" width="185mm" height="145mm" style="shape-rendering:geometricPrecision; text-rendering:geometricPrecision; image-rendering:optimizeQuality; fill-rule:evenodd; clip-rule:evenodd"
viewBox="0 0 185 145"
 xmlns:xlink="http://www.w3.org/1999/xlink">
 <defs>
  <style type="text/css">
   <![CDATA[
    .str2 {stroke:#1F1A17;stroke-width:0.1263}
    .str0 {stroke:#1F1A17;stroke-width:0.1284}
    .str1 {stroke:#1F1A17;stroke-width:0.1298}
    .fil0 {fill:none;fill-rule:nonzero}
    .fil2 {fill:#1F1A17;fill-rule:nonzero}
    .fil1 {fill:white;fill-rule:nonzero}
   ]]>
  </style>
 </defs>
 <g id="Layer_x0020_1">
  <metadata id="CorelCorpID_0Corel-Layer"/>
  <g id="_54850976">
   <path id="_55455728" class="fil0 str0" d="M68.2247 129.509l27.2126 0.2066 28.0597 0c23.2379,-10.4998 39.5488,-33.9888 39.5488,-61.1101 0,-36.8933 -30.1067,-67.0301 -66.9261,-67.0301 -36.8961,0 -67.0182,30.1368 -67.0182,67.0301 0,26.9838 16.043,50.3521 39.1232,60.9035z"/>
   <path id="_55455624" class="fil1" d="M42.72 37.3798l0 -9.1685c-2.1782,2.885 -4.1297,5.9521 -5.8405,9.1685l5.8405 0z"/>
   <path id="_54963968" class="fil0 str1" d="M42.72 37.3798l0 -9.1685c-2.1782,2.885 -4.1297,5.9521 -5.8405,9.1685l5.8405 0z"/>
   <path id="_54855600" class="fil1" d="M142.659 20.579l0 6.5864 5.9613 0c-1.8413,-2.3136 -3.8277,-4.5288 -5.9613,-6.5864z"/>
   <path id="_54855848" class="fil0 str1" d="M142.659 20.579l0 6.5864 5.9613 0c-1.8413,-2.3136 -3.8277,-4.5288 -5.9613,-6.5864z"/>
   <path id="_54857824" class="fil1" d="M109.374 2.9215l0 3.7481 6.5173 0 0 -2.075c-2.1384,-0.674 -4.3118,-1.2301 -6.5173,-1.6731z"/>
   <path id="_54859104" class="fil0 str1" d="M109.374 2.9215l0 3.7481 6.5173 0 0 -2.075c-2.1384,-0.674 -4.3118,-1.2301 -6.5173,-1.6731z"/>
   <polygon id="_54861800" class="fil1" points="49.494,27.0796 55.9799,27.0796 55.9799,37.3826 49.494,37.3826 "/>
   <polygon id="_54948720" class="fil0 str1" points="49.494,27.0796 55.9799,27.0796 55.9799,37.3826 49.494,37.3826 "/>
   <polygon id="_54950280" class="fil1" points="49.494,37.3798 55.9799,37.3798 55.9799,47.6633 49.494,47.6633 "/>
   <polygon id="_54951256" class="fil0 str1" points="49.494,37.3798 55.9799,37.3798 55.9799,47.6633 49.494,47.6633 "/>
   <polygon id="_54952408" class="fil1" points="49.494,47.5726 55.9799,47.5726 55.9799,57.8659 49.494,57.8659 "/>
   <polygon id="_54953560" class="fil0 str1" points="49.494,47.5726 55.9799,47.5726 55.9799,57.8659 49.494,57.8659 "/>
   <polygon id="_54954712" class="fil1" points="49.494,57.8638 55.9799,57.8638 55.9799,68.1522 49.494,68.1522 "/>
   <polygon id="_54955864" class="fil0 str1" points="49.494,57.8638 55.9799,57.8638 55.9799,68.1522 49.494,68.1522 "/>
   <polygon id="_54957016" class="fil1" points="49.494,68.0608 55.9799,68.0608 55.9799,78.3443 49.494,78.3443 "/>
   <polygon id="_54958168" class="fil0 str1" points="49.494,68.0608 55.9799,68.0608 55.9799,78.3443 49.494,78.3443 "/>
   <polygon id="_54959320" class="fil1" points="49.494,78.3443 55.9799,78.3443 55.9799,88.6424 49.494,88.6424 "/>
   <polygon id="_55419992" class="fil0 str1" points="49.494,78.3443 55.9799,78.3443 55.9799,88.6424 49.494,88.6424 "/>
   <polygon id="_55421144" class="fil1" points="49.494,88.5441 55.9799,88.5441 55.9799,98.8276 49.494,98.8276 "/>
   <polygon id="_55422296" class="fil0 str1" points="49.494,88.5441 55.9799,88.5441 55.9799,98.8276 49.494,98.8276 "/>
   <polygon id="_55423448" class="fil1" points="49.494,98.7418 55.9799,98.7418 55.9799,109.04 49.494,109.04 "/>
   <polygon id="_55424600" class="fil0 str1" points="49.494,98.7418 55.9799,98.7418 55.9799,109.04 49.494,109.04 "/>
   <polygon id="_55425752" class="fil1" points="42.8358,37.3798 49.3071,37.3798 49.3071,47.6633 42.8358,47.6633 "/>
   <polygon id="_55426904" class="fil0 str1" points="42.8358,37.3798 49.3071,37.3798 49.3071,47.6633 42.8358,47.6633 "/>
   <polygon id="_55428056" class="fil1" points="42.8358,47.5726 49.3071,47.5726 49.3071,57.8659 42.8358,57.8659 "/>
   <polygon id="_55429208" class="fil0 str1" points="42.8358,47.5726 49.3071,47.5726 49.3071,57.8659 42.8358,57.8659 "/>
   <polygon id="_55430360" class="fil1" points="42.8358,57.8638 49.3071,57.8638 49.3071,68.1522 42.8358,68.1522 "/>
   <polygon id="_55431512" class="fil0 str1" points="42.8358,57.8638 49.3071,57.8638 49.3071,68.1522 42.8358,68.1522 "/>
   <polygon id="_55432664" class="fil1" points="42.8358,68.0608 49.3071,68.0608 49.3071,78.3443 42.8358,78.3443 "/>
   <polygon id="_55433816" class="fil0 str1" points="42.8358,68.0608 49.3071,68.0608 49.3071,78.3443 42.8358,78.3443 "/>
   <polygon id="_55434968" class="fil1" points="42.8358,78.3443 49.3071,78.3443 49.3071,88.6424 42.8358,88.6424 "/>
   <polygon id="_55436120" class="fil0 str1" points="42.8358,78.3443 49.3071,78.3443 49.3071,88.6424 42.8358,88.6424 "/>
   <polygon id="_55437272" class="fil1" points="42.8358,88.5441 49.3071,88.5441 49.3071,98.8276 42.8358,98.8276 "/>
   <polygon id="_55438424" class="fil0 str1" points="42.8358,88.5441 49.3071,88.5441 49.3071,98.8276 42.8358,98.8276 "/>
   <polygon id="_55439576" class="fil1" points="42.8358,98.7418 49.3071,98.7418 49.3071,109.04 42.8358,109.04 "/>
   <polygon id="_55440728" class="fil0 str1" points="42.8358,98.7418 49.3071,98.7418 49.3071,109.04 42.8358,109.04 "/>
   <polygon id="_55441880" class="fil1" points="36.2271,47.5726 42.7228,47.5726 42.7228,57.8659 36.2271,57.8659 "/>
   <polygon id="_55443032" class="fil0 str1" points="36.2271,47.5726 42.7228,47.5726 42.7228,57.8659 36.2271,57.8659 "/>
   <polygon id="_55444184" class="fil1" points="36.2271,57.8638 42.7228,57.8638 42.7228,68.1522 36.2271,68.1522 "/>
   <polygon id="_55445336" class="fil0 str1" points="36.2271,57.8638 42.7228,57.8638 42.7228,68.1522 36.2271,68.1522 "/>
   <polygon id="_55446488" class="fil1" points="36.2271,68.0608 42.7228,68.0608 42.7228,78.3443 36.2271,78.3443 "/>
   <polygon id="_55447640" class="fil0 str1" points="36.2271,68.0608 42.7228,68.0608 42.7228,78.3443 36.2271,78.3443 "/>
   <polygon id="_55448792" class="fil1" points="36.2271,78.3443 42.7228,78.3443 42.7228,88.6424 36.2271,88.6424 "/>
   <polygon id="_55449944" class="fil0 str1" points="36.2271,78.3443 42.7228,78.3443 42.7228,88.6424 36.2271,88.6424 "/>
   <polygon id="_55451096" class="fil1" points="56.1816,16.8819 62.6619,16.8819 62.6619,27.1654 56.1816,27.1654 "/>
   <polygon id="_55452248" class="fil0 str1" points="56.1816,16.8819 62.6619,16.8819 62.6619,27.1654 56.1816,27.1654 "/>
   <polygon id="_54194696" class="fil1" points="56.1816,27.0796 62.6619,27.0796 62.6619,37.3826 56.1816,37.3826 "/>
   <polygon id="_54195848" class="fil0 str1" points="56.1816,27.0796 62.6619,27.0796 62.6619,37.3826 56.1816,37.3826 "/>
   <polygon id="_54197000" class="fil1" points="56.1816,37.3798 62.6619,37.3798 62.6619,47.6633 56.1816,47.6633 "/>
   <polygon id="_54198152" class="fil0 str1" points="56.1816,37.3798 62.6619,37.3798 62.6619,47.6633 56.1816,47.6633 "/>
   <polygon id="_54199304" class="fil1" points="56.1816,47.5726 62.6619,47.5726 62.6619,57.8659 56.1816,57.8659 "/>
   <polygon id="_54200456" class="fil0 str1" points="56.1816,47.5726 62.6619,47.5726 62.6619,57.8659 56.1816,57.8659 "/>
   <polygon id="_54201608" class="fil1" points="56.1816,57.8638 62.6619,57.8638 62.6619,68.1522 56.1816,68.1522 "/>
   <polygon id="_54202352" class="fil0 str1" points="56.1816,57.8638 62.6619,57.8638 62.6619,68.1522 56.1816,68.1522 "/>
   <polygon id="_54806024" class="fil1" points="56.1816,68.0608 62.6619,68.0608 62.6619,78.3443 56.1816,78.3443 "/>
   <polygon id="_54807176" class="fil0 str1" points="56.1816,68.0608 62.6619,68.0608 62.6619,78.3443 56.1816,78.3443 "/>
   <polygon id="_54808328" class="fil1" points="56.1816,78.3443 62.6619,78.3443 62.6619,88.6424 56.1816,88.6424 "/>
   <polygon id="_54809480" class="fil0 str1" points="56.1816,78.3443 62.6619,78.3443 62.6619,88.6424 56.1816,88.6424 "/>
   <polygon id="_54810632" class="fil1" points="56.1816,88.5441 62.6619,88.5441 62.6619,98.8276 56.1816,98.8276 "/>
   <polygon id="_54811784" class="fil0 str1" points="56.1816,88.5441 62.6619,88.5441 62.6619,98.8276 56.1816,98.8276 "/>
   <polygon id="_54812648" class="fil1" points="56.1816,98.7418 62.6619,98.7418 62.6619,109.04 56.1816,109.04 "/>
   <polygon id="_54822288" class="fil0 str1" points="56.1816,98.7418 62.6619,98.7418 62.6619,109.04 56.1816,109.04 "/>
   <polygon id="_54823440" class="fil1" points="56.1816,109.038 62.6619,109.038 62.6619,119.326 56.1816,119.326 "/>
   <polygon id="_54824592" class="fil0 str1" points="56.1816,109.038 62.6619,109.038 62.6619,119.326 56.1816,119.326 "/>
   <polygon id="_54824944" class="fil2" points="62.8391,16.8819 69.3396,16.8819 69.3396,27.1654 62.8391,27.1654 "/>
   <polygon id="_54863760" class="fil0 str1" points="62.8391,16.8819 69.3396,16.8819 69.3396,27.1654 62.8391,27.1654 "/>
   <polygon id="_54864912" class="fil1" points="62.8391,27.0796 69.3396,27.0796 69.3396,37.3826 62.8391,37.3826 "/>
   <polygon id="_54866064" class="fil0 str1" points="62.8391,27.0796 69.3396,27.0796 69.3396,37.3826 62.8391,37.3826 "/>
   <polygon id="_54867216" class="fil1" points="62.8391,37.3798 69.3396,37.3798 69.3396,47.6633 62.8391,47.6633 "/>
   <polygon id="_54868368" class="fil0 str1" points="62.8391,37.3798 69.3396,37.3798 69.3396,47.6633 62.8391,47.6633 "/>
   <polygon id="_54869520" class="fil1" points="62.8391,47.5726 69.3396,47.5726 69.3396,57.8659 62.8391,57.8659 "/>
   <polygon id="_55394960" class="fil0 str1" points="62.8391,47.5726 69.3396,47.5726 69.3396,57.8659 62.8391,57.8659 "/>
   <polygon id="_55396112" class="fil1" points="62.8391,57.8638 69.3396,57.8638 69.3396,68.1522 62.8391,68.1522 "/>
   <polygon id="_55397264" class="fil0 str1" points="62.8391,57.8638 69.3396,57.8638 69.3396,68.1522 62.8391,68.1522 "/>
   <polygon id="_55398416" class="fil1" points="62.8391,68.0608 69.3396,68.0608 69.3396,78.3443 62.8391,78.3443 "/>
   <polygon id="_55399568" class="fil0 str1" points="62.8391,68.0608 69.3396,68.0608 69.3396,78.3443 62.8391,78.3443 "/>
   <polygon id="_55400720" class="fil1" points="62.8391,78.3443 69.3396,78.3443 69.3396,88.6424 62.8391,88.6424 "/>
   <polygon id="_55401872" class="fil0 str1" points="62.8391,78.3443 69.3396,78.3443 69.3396,88.6424 62.8391,88.6424 "/>
   <polygon id="_55456288" class="fil1" points="62.8391,88.5441 69.3396,88.5441 69.3396,98.8276 62.8391,98.8276 "/>
   <polygon id="_55457424" class="fil0 str1" points="62.8391,88.5441 69.3396,88.5441 69.3396,98.8276 62.8391,98.8276 "/>
   <polygon id="_55458576" class="fil1" points="62.8391,98.7418 69.3396,98.7418 69.3396,109.04 62.8391,109.04 "/>
   <polygon id="_55459728" class="fil0 str1" points="62.8391,98.7418 69.3396,98.7418 69.3396,109.04 62.8391,109.04 "/>
   <polygon id="_55460880" class="fil2" points="62.8391,109.038 69.3396,109.038 69.3396,119.326 62.8391,119.326 "/>
   <polygon id="_55462032" class="fil0 str1" points="62.8391,109.038 69.3396,109.038 69.3396,119.326 62.8391,119.326 "/>
   <polygon id="_55463184" class="fil1" points="69.4261,16.8819 75.9113,16.8819 75.9113,27.1654 69.4261,27.1654 "/>
   <polygon id="_55464336" class="fil0 str1" points="69.4261,16.8819 75.9113,16.8819 75.9113,27.1654 69.4261,27.1654 "/>
   <polygon id="_55465488" class="fil2" points="69.4261,27.0796 75.9113,27.0796 75.9113,37.3826 69.4261,37.3826 "/>
   <polygon id="_55466640" class="fil0 str1" points="69.4261,27.0796 75.9113,27.0796 75.9113,37.3826 69.4261,37.3826 "/>
   <polygon id="_55467792" class="fil1" points="69.4261,37.3798 75.9113,37.3798 75.9113,47.6633 69.4261,47.6633 "/>
   <polygon id="_55489424" class="fil0 str1" points="69.4261,37.3798 75.9113,37.3798 75.9113,47.6633 69.4261,47.6633 "/>
   <polygon id="_55490576" class="fil1" points="69.4261,47.5726 75.9113,47.5726 75.9113,57.8659 69.4261,57.8659 "/>
   <polygon id="_55491728" class="fil0 str1" points="69.4261,47.5726 75.9113,47.5726 75.9113,57.8659 69.4261,57.8659 "/>
   <polygon id="_55492880" class="fil1" points="69.4261,57.8638 75.9113,57.8638 75.9113,68.1522 69.4261,68.1522 "/>
   <polygon id="_55494032" class="fil0 str1" points="69.4261,57.8638 75.9113,57.8638 75.9113,68.1522 69.4261,68.1522 "/>
   <polygon id="_55495184" class="fil1" points="69.4261,68.0608 75.9113,68.0608 75.9113,78.3443 69.4261,78.3443 "/>
   <polygon id="_55496336" class="fil0 str1" points="69.4261,68.0608 75.9113,68.0608 75.9113,78.3443 69.4261,78.3443 "/>
   <polygon id="_55497488" class="fil1" points="69.4261,78.3443 75.9113,78.3443 75.9113,88.6424 69.4261,88.6424 "/>
   <polygon id="_55498640" class="fil0 str1" points="69.4261,78.3443 75.9113,78.3443 75.9113,88.6424 69.4261,88.6424 "/>
   <polygon id="_55499792" class="fil1" points="69.4261,88.5441 75.9113,88.5441 75.9113,98.8276 69.4261,98.8276 "/>
   <polygon id="_55500944" class="fil0 str1" points="69.4261,88.5441 75.9113,88.5441 75.9113,98.8276 69.4261,98.8276 "/>
   <polygon id="_55502096" class="fil2" points="69.4261,98.7418 75.9113,98.7418 75.9113,109.04 69.4261,109.04 "/>
   <polygon id="_55503248" class="fil0 str1" points="69.4261,98.7418 75.9113,98.7418 75.9113,109.04 69.4261,109.04 "/>
   <polygon id="_55504400" class="fil1" points="69.4261,109.038 75.9113,109.038 75.9113,119.326 69.4261,119.326 "/>
   <polygon id="_55505552" class="fil0 str1" points="69.4261,109.038 75.9113,109.038 75.9113,119.326 69.4261,119.326 "/>
   <polygon id="_55506704" class="fil2" points="69.4261,119.215 75.9113,119.215 75.9113,129.509 69.4261,129.509 "/>
   <polygon id="_55507856" class="fil0 str1" points="69.4261,119.215 75.9113,119.215 75.9113,129.509 69.4261,129.509 "/>
   <polygon id="_55509008" class="fil1" points="76.099,16.8819 82.594,16.8819 82.594,27.1654 76.099,27.1654 "/>
   <polygon id="_55510160" class="fil0 str1" points="76.099,16.8819 82.594,16.8819 82.594,27.1654 76.099,27.1654 "/>
   <polygon id="_55511312" class="fil1" points="76.099,6.5935 82.594,6.5935 82.594,16.8819 76.099,16.8819 "/>
   <polygon id="_55512464" class="fil0 str1" points="76.099,6.5935 82.594,6.5935 82.594,16.8819 76.099,16.8819 "/>
   <polygon id="_55513616" class="fil1" points="76.099,27.0796 82.594,27.0796 82.594,37.3826 76.099,37.3826 "/>
   <polygon id="_55514768" class="fil0 str1" points="76.099,27.0796 82.594,27.0796 82.594,37.3826 76.099,37.3826 "/>
   <polygon id="_55515920" class="fil1" points="76.099,37.3798 82.594,37.3798 82.594,47.6633 76.099,47.6633 "/>
   <polygon id="_55517072" class="fil0 str1" points="76.099,37.3798 82.594,37.3798 82.594,47.6633 76.099,47.6633 "/>
   <polygon id="_55518224" class="fil1" points="76.099,47.5726 82.594,47.5726 82.594,57.8659 76.099,57.8659 "/>
   <polygon id="_55519376" class="fil0 str1" points="76.099,47.5726 82.594,47.5726 82.594,57.8659 76.099,57.8659 "/>
   <polygon id="_55520528" class="fil1" points="76.099,57.8638 82.594,57.8638 82.594,68.1522 76.099,68.1522 "/>
   <polygon id="_55521680" class="fil0 str1" points="76.099,57.8638 82.594,57.8638 82.594,68.1522 76.099,68.1522 "/>
   <polygon id="_55522832" class="fil1" points="76.099,68.0608 82.594,68.0608 82.594,78.3443 76.099,78.3443 "/>
   <polygon id="_55523984" class="fil0 str1" points="76.099,68.0608 82.594,68.0608 82.594,78.3443 76.099,78.3443 "/>
   <polygon id="_55525136" class="fil1" points="76.099,78.3443 82.594,78.3443 82.594,88.6424 76.099,88.6424 "/>
   <polygon id="_55403408" class="fil0 str1" points="76.099,78.3443 82.594,78.3443 82.594,88.6424 76.099,88.6424 "/>
   <polygon id="_55404560" class="fil1" points="76.099,88.5441 82.594,88.5441 82.594,98.8276 76.099,98.8276 "/>
   <polygon id="_55405712" class="fil0 str1" points="76.099,88.5441 82.594,88.5441 82.594,98.8276 76.099,98.8276 "/>
   <polygon id="_55406864" class="fil1" points="76.099,98.7418 82.594,98.7418 82.594,109.04 76.099,109.04 "/>
   <polygon id="_55408016" class="fil0 str1" points="76.099,98.7418 82.594,98.7418 82.594,109.04 76.099,109.04 "/>
   <polygon id="_55409168" class="fil2" points="76.099,109.038 82.594,109.038 82.594,119.326 76.099,119.326 "/>
   <polygon id="_55410320" class="fil0 str1" points="76.099,109.038 82.594,109.038 82.594,119.326 76.099,119.326 "/>
   <polygon id="_55410672" class="fil1" points="76.099,119.215 82.594,119.215 82.594,129.509 76.099,129.509 "/>
   <polygon id="_55469968" class="fil0 str1" points="76.099,119.215 82.594,119.215 82.594,129.509 76.099,129.509 "/>
   <polygon id="_55471120" class="fil1" points="82.7809,16.8819 89.2619,16.8819 89.2619,27.1654 82.7809,27.1654 "/>
   <polygon id="_55472272" class="fil0 str1" points="82.7809,16.8819 89.2619,16.8819 89.2619,27.1654 82.7809,27.1654 "/>
   <polygon id="_55473424" class="fil1" points="82.7809,6.5935 89.2619,6.5935 89.2619,16.8819 82.7809,16.8819 "/>
   <polygon id="_55474576" class="fil0 str1" points="82.7809,6.5935 89.2619,6.5935 89.2619,16.8819 82.7809,16.8819 "/>
   <polygon id="_55475728" class="fil1" points="82.7809,27.0796 89.2619,27.0796 89.2619,37.3826 82.7809,37.3826 "/>
   <polygon id="_55476880" class="fil0 str1" points="82.7809,27.0796 89.2619,27.0796 89.2619,37.3826 82.7809,37.3826 "/>
   <polygon id="_55478032" class="fil1" points="82.7809,37.3798 89.2619,37.3798 89.2619,47.6633 82.7809,47.6633 "/>
   <polygon id="_55479184" class="fil0 str1" points="82.7809,37.3798 89.2619,37.3798 89.2619,47.6633 82.7809,47.6633 "/>
   <polygon id="_55480336" class="fil1" points="82.7809,47.5726 89.2619,47.5726 89.2619,57.8659 82.7809,57.8659 "/>
   <polygon id="_55481488" class="fil0 str1" points="82.7809,47.5726 89.2619,47.5726 89.2619,57.8659 82.7809,57.8659 "/>
   <polygon id="_55482640" class="fil1" points="82.7809,57.8638 89.2619,57.8638 89.2619,68.1522 82.7809,68.1522 "/>
   <polygon id="_55483792" class="fil0 str1" points="82.7809,57.8638 89.2619,57.8638 89.2619,68.1522 82.7809,68.1522 "/>
   <polygon id="_55525920" class="fil1" points="82.7809,68.0608 89.2619,68.0608 89.2619,78.3443 82.7809,78.3443 "/>
   <polygon id="_55527056" class="fil0 str1" points="82.7809,68.0608 89.2619,68.0608 89.2619,78.3443 82.7809,78.3443 "/>
   <polygon id="_55528208" class="fil1" points="82.7809,78.3443 89.2619,78.3443 89.2619,88.6424 82.7809,88.6424 "/>
   <polygon id="_55529360" class="fil0 str1" points="82.7809,78.3443 89.2619,78.3443 89.2619,88.6424 82.7809,88.6424 "/>
   <polygon id="_55530512" class="fil1" points="82.7809,88.5441 89.2619,88.5441 89.2619,98.8276 82.7809,98.8276 "/>
   <polygon id="_55531664" class="fil0 str1" points="82.7809,88.5441 89.2619,88.5441 89.2619,98.8276 82.7809,98.8276 "/>
   <polygon id="_55532816" class="fil1" points="82.7809,98.7418 89.2619,98.7418 89.2619,109.04 82.7809,109.04 "/>
   <polygon id="_55533968" class="fil0 str1" points="82.7809,98.7418 89.2619,98.7418 89.2619,109.04 82.7809,109.04 "/>
   <polygon id="_55535120" class="fil1" points="82.7809,109.038 89.2619,109.038 89.2619,119.326 82.7809,119.326 "/>
   <polygon id="_55536272" class="fil0 str1" points="82.7809,109.038 89.2619,109.038 89.2619,119.326 82.7809,119.326 "/>
   <polygon id="_55537424" class="fil1" points="82.7809,119.215 89.2619,119.215 89.2619,129.509 82.7809,129.509 "/>
   <polygon id="_55538576" class="fil0 str1" points="82.7809,119.215 89.2619,119.215 89.2619,129.509 82.7809,129.509 "/>
   <polygon id="_55539728" class="fil1" points="89.4615,16.8819 95.9446,16.8819 95.9446,27.1654 89.4615,27.1654 "/>
   <polygon id="_55540880" class="fil0 str1" points="89.4615,16.8819 95.9446,16.8819 95.9446,27.1654 89.4615,27.1654 "/>
   <polygon id="_55542032" class="fil2" points="89.4615,6.5935 95.9446,6.5935 95.9446,16.8819 89.4615,16.8819 "/>
   <polygon id="_55543184" class="fil0 str1" points="89.4615,6.5935 95.9446,6.5935 95.9446,16.8819 89.4615,16.8819 "/>
   <polygon id="_55544336" class="fil1" points="89.4615,27.0796 95.9446,27.0796 95.9446,37.3826 89.4615,37.3826 "/>
   <polygon id="_55545488" class="fil0 str1" points="89.4615,27.0796 95.9446,27.0796 95.9446,37.3826 89.4615,37.3826 "/>
   <polygon id="_55546640" class="fil1" points="89.4615,37.3798 95.9446,37.3798 95.9446,47.6633 89.4615,47.6633 "/>
   <polygon id="_55547792" class="fil0 str1" points="89.4615,37.3798 95.9446,37.3798 95.9446,47.6633 89.4615,47.6633 "/>
   <polygon id="_55548944" class="fil1" points="89.4615,47.5726 95.9446,47.5726 95.9446,57.8659 89.4615,57.8659 "/>
   <polygon id="_55550096" class="fil0 str1" points="89.4615,47.5726 95.9446,47.5726 95.9446,57.8659 89.4615,57.8659 "/>
   <polygon id="_55551248" class="fil1" points="89.4615,57.8638 95.9446,57.8638 95.9446,68.1522 89.4615,68.1522 "/>
   <polygon id="_55552400" class="fil0 str1" points="89.4615,57.8638 95.9446,57.8638 95.9446,68.1522 89.4615,68.1522 "/>
   <polygon id="_55553552" class="fil1" points="89.4615,68.0608 95.9446,68.0608 95.9446,78.3443 89.4615,78.3443 "/>
   <polygon id="_55554704" class="fil0 str1" points="89.4615,68.0608 95.9446,68.0608 95.9446,78.3443 89.4615,78.3443 "/>
   <polygon id="_55555856" class="fil1" points="89.4615,78.3443 95.9446,78.3443 95.9446,88.6424 89.4615,88.6424 "/>
   <polygon id="_55557008" class="fil0 str1" points="89.4615,78.3443 95.9446,78.3443 95.9446,88.6424 89.4615,88.6424 "/>
   <polygon id="_55558160" class="fil1" points="89.4615,88.5441 95.9446,88.5441 95.9446,98.8276 89.4615,98.8276 "/>
   <polygon id="_55559312" class="fil0 str1" points="89.4615,88.5441 95.9446,88.5441 95.9446,98.8276 89.4615,98.8276 "/>
   <polygon id="_55560464" class="fil1" points="89.4615,98.7418 95.9446,98.7418 95.9446,109.04 89.4615,109.04 "/>
   <polygon id="_55561616" class="fil0 str1" points="89.4615,98.7418 95.9446,98.7418 95.9446,109.04 89.4615,109.04 "/>
   <polygon id="_55562768" class="fil1" points="89.4615,109.038 95.9446,109.038 95.9446,119.326 89.4615,119.326 "/>
   <polygon id="_55563920" class="fil0 str1" points="89.4615,109.038 95.9446,109.038 95.9446,119.326 89.4615,119.326 "/>
   <polygon id="_55565072" class="fil1" points="89.4615,119.215 95.9446,119.215 95.9446,129.509 89.4615,129.509 "/>
   <polygon id="_55566224" class="fil0 str1" points="89.4615,119.215 95.9446,119.215 95.9446,129.509 89.4615,129.509 "/>
   <polygon id="_55567376" class="fil1" points="96.1197,16.8819 102.615,16.8819 102.615,27.1654 96.1197,27.1654 "/>
   <polygon id="_55568528" class="fil0 str1" points="96.1197,16.8819 102.615,16.8819 102.615,27.1654 96.1197,27.1654 "/>
   <polygon id="_55621144" class="fil1" points="96.1197,6.5935 102.615,6.5935 102.615,16.8819 96.1197,16.8819 "/>
   <polygon id="_55622296" class="fil0 str1" points="96.1197,6.5935 102.615,6.5935 102.615,16.8819 96.1197,16.8819 "/>
   <polygon id="_55623448" class="fil1" points="96.1197,27.0796 102.615,27.0796 102.615,37.3826 96.1197,37.3826 "/>
   <polygon id="_55623640" class="fil0 str1" points="96.1197,27.0796 102.615,27.0796 102.615,37.3826 96.1197,37.3826 "/>
   <polygon id="_54961440" class="fil1" points="96.1197,37.3798 102.615,37.3798 102.615,47.6633 96.1197,47.6633 "/>
   <polygon id="_54962592" class="fil0 str1" points="96.1197,37.3798 102.615,37.3798 102.615,47.6633 96.1197,47.6633 "/>
   <polygon id="_54962928" class="fil1" points="96.1197,47.5726 102.615,47.5726 102.615,57.8659 96.1197,57.8659 "/>
   <polygon id="_55572024" class="fil0 str1" points="96.1197,47.5726 102.615,47.5726 102.615,57.8659 96.1197,57.8659 "/>
   <polygon id="_55573176" class="fil1" points="96.1197,57.8638 102.615,57.8638 102.615,68.1522 96.1197,68.1522 "/>
   <polygon id="_55574328" class="fil0 str1" points="96.1197,57.8638 102.615,57.8638 102.615,68.1522 96.1197,68.1522 "/>
   <polygon id="_55575480" class="fil1" points="96.1197,68.0608 102.615,68.0608 102.615,78.3443 96.1197,78.3443 "/>
   <polygon id="_55576632" class="fil0 str1" points="96.1197,68.0608 102.615,68.0608 102.615,78.3443 96.1197,78.3443 "/>
   <polygon id="_55577784" class="fil1" points="96.1197,78.3443 102.615,78.3443 102.615,88.6424 96.1197,88.6424 "/>
   <polygon id="_55578936" class="fil0 str1" points="96.1197,78.3443 102.615,78.3443 102.615,88.6424 96.1197,88.6424 "/>
   <polygon id="_55580088" class="fil1" points="96.1197,88.5441 102.615,88.5441 102.615,98.8276 96.1197,98.8276 "/>
   <polygon id="_55581240" class="fil0 str1" points="96.1197,88.5441 102.615,88.5441 102.615,98.8276 96.1197,98.8276 "/>
   <polygon id="_55582392" class="fil2" points="96.1197,98.7418 102.615,98.7418 102.615,109.04 96.1197,109.04 "/>
   <polygon id="_55583544" class="fil0 str1" points="96.1197,98.7418 102.615,98.7418 102.615,109.04 96.1197,109.04 "/>
   <polygon id="_55584696" class="fil1" points="96.1197,109.038 102.615,109.038 102.615,119.326 96.1197,119.326 "/>
   <polygon id="_55585848" class="fil0 str1" points="96.1197,109.038 102.615,109.038 102.615,119.326 96.1197,119.326 "/>
   <polygon id="_55587000" class="fil1" points="96.1197,119.215 102.615,119.215 102.615,129.509 96.1197,129.509 "/>
   <polygon id="_55588152" class="fil0 str1" points="96.1197,119.215 102.615,119.215 102.615,129.509 96.1197,129.509 "/>
   <polygon id="_55589304" class="fil1" points="102.716,16.8819 109.202,16.8819 109.202,27.1654 102.716,27.1654 "/>
   <polygon id="_55590456" class="fil0 str1" points="102.716,16.8819 109.202,16.8819 109.202,27.1654 102.716,27.1654 "/>
   <polygon id="_55591608" class="fil1" points="102.716,6.5935 109.202,6.5935 109.202,16.8819 102.716,16.8819 "/>
   <polygon id="_55592760" class="fil0 str1" points="102.716,6.5935 109.202,6.5935 109.202,16.8819 102.716,16.8819 "/>
   <polygon id="_55593912" class="fil1" points="102.716,27.0796 109.202,27.0796 109.202,37.3826 102.716,37.3826 "/>
   <polygon id="_55595064" class="fil0 str1" points="102.716,27.0796 109.202,27.0796 109.202,37.3826 102.716,37.3826 "/>
   <polygon id="_55596216" class="fil1" points="102.716,37.3798 109.202,37.3798 109.202,47.6633 102.716,47.6633 "/>
   <polygon id="_55597368" class="fil0 str1" points="102.716,37.3798 109.202,37.3798 109.202,47.6633 102.716,47.6633 "/>
   <polygon id="_55598520" class="fil1" points="102.716,47.5726 109.202,47.5726 109.202,57.8659 102.716,57.8659 "/>
   <polygon id="_55599672" class="fil0 str1" points="102.716,47.5726 109.202,47.5726 109.202,57.8659 102.716,57.8659 "/>
   <polygon id="_55600824" class="fil1" points="102.716,57.8638 109.202,57.8638 109.202,68.1522 102.716,68.1522 "/>
   <polygon id="_55601976" class="fil0 str1" points="102.716,57.8638 109.202,57.8638 109.202,68.1522 102.716,68.1522 "/>
   <polygon id="_55603128" class="fil1" points="102.716,68.0608 109.202,68.0608 109.202,78.3443 102.716,78.3443 "/>
   <polygon id="_55604280" class="fil0 str1" points="102.716,68.0608 109.202,68.0608 109.202,78.3443 102.716,78.3443 "/>
   <polygon id="_55605432" class="fil1" points="102.716,78.3443 109.202,78.3443 109.202,88.6424 102.716,88.6424 "/>
   <polygon id="_55606584" class="fil0 str1" points="102.716,78.3443 109.202,78.3443 109.202,88.6424 102.716,88.6424 "/>
   <polygon id="_55607736" class="fil1" points="102.716,88.5441 109.202,88.5441 109.202,98.8276 102.716,98.8276 "/>
   <polygon id="_55608888" class="fil0 str1" points="102.716,88.5441 109.202,88.5441 109.202,98.8276 102.716,98.8276 "/>
   <polygon id="_55610040" class="fil1" points="102.716,98.7418 109.202,98.7418 109.202,109.04 102.716,109.04 "/>
   <polygon id="_55611192" class="fil0 str1" points="102.716,98.7418 109.202,98.7418 109.202,109.04 102.716,109.04 "/>
   <polygon id="_55612344" class="fil1" points="102.716,109.038 109.202,109.038 109.202,119.326 102.716,119.326 "/>
   <polygon id="_55613496" class="fil0 str1" points="102.716,109.038 109.202,109.038 109.202,119.326 102.716,119.326 "/>
   <polygon id="_55614648" class="fil1" points="102.716,119.215 109.202,119.215 109.202,129.509 102.716,129.509 "/>
   <polygon id="_55615800" class="fil0 str1" points="102.716,119.215 109.202,119.215 109.202,129.509 102.716,129.509 "/>
   <polygon id="_55616952" class="fil1" points="109.374,16.8819 115.891,16.8819 115.891,27.1654 109.374,27.1654 "/>
   <polygon id="_55617320" class="fil0 str1" points="109.374,16.8819 115.891,16.8819 115.891,27.1654 109.374,27.1654 "/>
   <polygon id="_55617408" class="fil1" points="109.374,6.5935 115.891,6.5935 115.891,16.8819 109.374,16.8819 "/>
   <polygon id="_55626664" class="fil0 str1" points="109.374,6.5935 115.891,6.5935 115.891,16.8819 109.374,16.8819 "/>
   <polygon id="_55627816" class="fil1" points="109.374,27.0796 115.891,27.0796 115.891,37.3826 109.374,37.3826 "/>
   <polygon id="_55628968" class="fil0 str1" points="109.374,27.0796 115.891,27.0796 115.891,37.3826 109.374,37.3826 "/>
   <polygon id="_55630120" class="fil1" points="109.374,37.3798 115.891,37.3798 115.891,47.6633 109.374,47.6633 "/>
   <polygon id="_55631272" class="fil0 str1" points="109.374,37.3798 115.891,37.3798 115.891,47.6633 109.374,47.6633 "/>
   <polygon id="_55632424" class="fil1" points="109.374,47.5726 115.891,47.5726 115.891,57.8659 109.374,57.8659 "/>
   <polygon id="_55633576" class="fil0 str1" points="109.374,47.5726 115.891,47.5726 115.891,57.8659 109.374,57.8659 "/>
   <polygon id="_55634728" class="fil1" points="109.374,57.8638 115.891,57.8638 115.891,68.1522 109.374,68.1522 "/>
   <polygon id="_55635880" class="fil0 str1" points="109.374,57.8638 115.891,57.8638 115.891,68.1522 109.374,68.1522 "/>
   <polygon id="_55637032" class="fil1" points="109.374,68.0608 115.891,68.0608 115.891,78.3443 109.374,78.3443 "/>
   <polygon id="_55638184" class="fil0 str1" points="109.374,68.0608 115.891,68.0608 115.891,78.3443 109.374,78.3443 "/>
   <polygon id="_55639336" class="fil1" points="109.374,78.3443 115.891,78.3443 115.891,88.6424 109.374,88.6424 "/>
   <polygon id="_55640488" class="fil0 str1" points="109.374,78.3443 115.891,78.3443 115.891,88.6424 109.374,88.6424 "/>
   <polygon id="_55641640" class="fil1" points="109.374,88.5441 115.891,88.5441 115.891,98.8276 109.374,98.8276 "/>
   <polygon id="_55642792" class="fil0 str1" points="109.374,88.5441 115.891,88.5441 115.891,98.8276 109.374,98.8276 "/>
   <polygon id="_55643944" class="fil1" points="109.374,98.7418 115.891,98.7418 115.891,109.04 109.374,109.04 "/>
   <polygon id="_55645096" class="fil0 str1" points="109.374,98.7418 115.891,98.7418 115.891,109.04 109.374,109.04 "/>
   <polygon id="_55646248" class="fil1" points="109.374,109.038 115.891,109.038 115.891,119.326 109.374,119.326 "/>
   <polygon id="_55647400" class="fil0 str1" points="109.374,109.038 115.891,109.038 115.891,119.326 109.374,119.326 "/>
   <polygon id="_55648552" class="fil1" points="109.374,119.215 115.891,119.215 115.891,129.509 109.374,129.509 "/>
   <polygon id="_55649704" class="fil0 str1" points="109.374,119.215 115.891,119.215 115.891,129.509 109.374,129.509 "/>
   <polygon id="_55650856" class="fil1" points="116.062,16.8819 122.527,16.8819 122.527,27.1654 116.062,27.1654 "/>
   <polygon id="_55652008" class="fil0 str1" points="116.062,16.8819 122.527,16.8819 122.527,27.1654 116.062,27.1654 "/>
   <polygon id="_55653160" class="fil1" points="116.062,27.0796 122.527,27.0796 122.527,37.3826 116.062,37.3826 "/>
   <polygon id="_55654312" class="fil0 str1" points="116.062,27.0796 122.527,27.0796 122.527,37.3826 116.062,37.3826 "/>
   <polygon id="_55655464" class="fil1" points="116.062,37.3798 122.527,37.3798 122.527,47.6633 116.062,47.6633 "/>
   <polygon id="_55656624" class="fil0 str1" points="116.062,37.3798 122.527,37.3798 122.527,47.6633 116.062,47.6633 "/>
   <polygon id="_55657776" class="fil1" points="116.062,47.5726 122.527,47.5726 122.527,57.8659 116.062,57.8659 "/>
   <polygon id="_55658928" class="fil0 str1" points="116.062,47.5726 122.527,47.5726 122.527,57.8659 116.062,57.8659 "/>
   <polygon id="_55660080" class="fil1" points="116.062,57.8638 122.527,57.8638 122.527,68.1522 116.062,68.1522 "/>
   <polygon id="_55661232" class="fil0 str1" points="116.062,57.8638 122.527,57.8638 122.527,68.1522 116.062,68.1522 "/>
   <polygon id="_55662384" class="fil1" points="116.062,68.0608 122.527,68.0608 122.527,78.3443 116.062,78.3443 "/>
   <polygon id="_55663536" class="fil0 str1" points="116.062,68.0608 122.527,68.0608 122.527,78.3443 116.062,78.3443 "/>
   <polygon id="_55664688" class="fil1" points="116.062,78.3443 122.527,78.3443 122.527,88.6424 116.062,88.6424 "/>
   <polygon id="_55665840" class="fil0 str1" points="116.062,78.3443 122.527,78.3443 122.527,88.6424 116.062,88.6424 "/>
   <polygon id="_55666992" class="fil1" points="116.062,88.5441 122.527,88.5441 122.527,98.8276 116.062,98.8276 "/>
   <polygon id="_55668144" class="fil0 str1" points="116.062,88.5441 122.527,88.5441 122.527,98.8276 116.062,98.8276 "/>
   <polygon id="_55669296" class="fil1" points="116.062,98.7418 122.527,98.7418 122.527,109.04 116.062,109.04 "/>
   <polygon id="_55670448" class="fil0 str1" points="116.062,98.7418 122.527,98.7418 122.527,109.04 116.062,109.04 "/>
   <polygon id="_55671600" class="fil1" points="116.062,109.038 122.527,109.038 122.527,119.326 116.062,119.326 "/>
   <polygon id="_55672752" class="fil0 str1" points="116.062,109.038 122.527,109.038 122.527,119.326 116.062,119.326 "/>
   <polygon id="_55673904" class="fil1" points="116.062,119.215 122.527,119.215 122.527,129.509 116.062,129.509 "/>
   <polygon id="_55675056" class="fil0 str1" points="116.062,119.215 122.527,119.215 122.527,129.509 116.062,129.509 "/>
   <polygon id="_55676208" class="fil1" points="122.746,16.8819 129.232,16.8819 129.232,27.1654 122.746,27.1654 "/>
   <polygon id="_55677360" class="fil0 str1" points="122.746,16.8819 129.232,16.8819 129.232,27.1654 122.746,27.1654 "/>
   <polygon id="_55678512" class="fil2" points="122.746,27.0796 129.232,27.0796 129.232,37.3826 122.746,37.3826 "/>
   <polygon id="_55679664" class="fil0 str1" points="122.746,27.0796 129.232,27.0796 129.232,37.3826 122.746,37.3826 "/>
   <polygon id="_55680816" class="fil1" points="122.746,37.3798 129.232,37.3798 129.232,47.6633 122.746,47.6633 "/>
   <polygon id="_55681968" class="fil0 str1" points="122.746,37.3798 129.232,37.3798 129.232,47.6633 122.746,47.6633 "/>
   <polygon id="_55683120" class="fil1" points="122.746,47.5726 129.232,47.5726 129.232,57.8659 122.746,57.8659 "/>
   <polygon id="_55684272" class="fil0 str1" points="122.746,47.5726 129.232,47.5726 129.232,57.8659 122.746,57.8659 "/>
   <polygon id="_55685424" class="fil1" points="122.746,57.8638 129.232,57.8638 129.232,68.1522 122.746,68.1522 "/>
   <polygon id="_55686576" class="fil0 str1" points="122.746,57.8638 129.232,57.8638 129.232,68.1522 122.746,68.1522 "/>
   <polygon id="_55687728" class="fil1" points="122.746,68.0608 129.232,68.0608 129.232,78.3443 122.746,78.3443 "/>
   <polygon id="_55688880" class="fil0 str1" points="122.746,68.0608 129.232,68.0608 129.232,78.3443 122.746,78.3443 "/>
   <polygon id="_55690032" class="fil1" points="122.746,78.3443 129.232,78.3443 129.232,88.6424 122.746,88.6424 "/>
   <polygon id="_55691184" class="fil0 str1" points="122.746,78.3443 129.232,78.3443 129.232,88.6424 122.746,88.6424 "/>
   <polygon id="_55617552" class="fil1" points="122.746,88.5441 129.232,88.5441 129.232,98.8276 122.746,98.8276 "/>
   <polygon id="_55618704" class="fil0 str1" points="122.746,88.5441 129.232,88.5441 129.232,98.8276 122.746,98.8276 "/>
   <polygon id="_55619856" class="fil1" points="122.746,98.7418 129.232,98.7418 129.232,109.04 122.746,109.04 "/>
   <polygon id="_55742624" class="fil0 str1" points="122.746,98.7418 129.232,98.7418 129.232,109.04 122.746,109.04 "/>
   <polygon id="_55743760" class="fil2" points="122.746,109.038 129.232,109.038 129.232,119.326 122.746,119.326 "/>
   <polygon id="_55744912" class="fil0 str1" points="122.746,109.038 129.232,109.038 129.232,119.326 122.746,119.326 "/>
   <polygon id="_55746064" class="fil1" points="129.313,16.8819 135.814,16.8819 135.814,27.1654 129.313,27.1654 "/>
   <polygon id="_55693504" class="fil0 str1" points="129.313,16.8819 135.814,16.8819 135.814,27.1654 129.313,27.1654 "/>
   <polygon id="_55694656" class="fil1" points="129.313,27.0796 135.814,27.0796 135.814,37.3826 129.313,37.3826 "/>
   <polygon id="_55695808" class="fil0 str1" points="129.313,27.0796 135.814,27.0796 135.814,37.3826 129.313,37.3826 "/>
   <polygon id="_55696960" class="fil1" points="129.313,37.3798 135.814,37.3798 135.814,47.6633 129.313,47.6633 "/>
   <polygon id="_55698112" class="fil0 str1" points="129.313,37.3798 135.814,37.3798 135.814,47.6633 129.313,47.6633 "/>
   <polygon id="_55699264" class="fil1" points="129.313,47.5726 135.814,47.5726 135.814,57.8659 129.313,57.8659 "/>
   <polygon id="_55700416" class="fil0 str1" points="129.313,47.5726 135.814,47.5726 135.814,57.8659 129.313,57.8659 "/>
   <polygon id="_55701568" class="fil1" points="129.313,57.8638 135.814,57.8638 135.814,68.1522 129.313,68.1522 "/>
   <polygon id="_55702720" class="fil0 str1" points="129.313,57.8638 135.814,57.8638 135.814,68.1522 129.313,68.1522 "/>
   <polygon id="_55703872" class="fil1" points="129.313,68.0608 135.814,68.0608 135.814,78.3443 129.313,78.3443 "/>
   <polygon id="_55705024" class="fil0 str1" points="129.313,68.0608 135.814,68.0608 135.814,78.3443 129.313,78.3443 "/>
   <polygon id="_55706176" class="fil1" points="129.313,78.3443 135.814,78.3443 135.814,88.6424 129.313,88.6424 "/>
   <polygon id="_55707328" class="fil0 str1" points="129.313,78.3443 135.814,78.3443 135.814,88.6424 129.313,88.6424 "/>
   <polygon id="_55708480" class="fil1" points="129.313,88.5441 135.814,88.5441 135.814,98.8276 129.313,98.8276 "/>
   <polygon id="_55709632" class="fil0 str1" points="129.313,88.5441 135.814,88.5441 135.814,98.8276 129.313,98.8276 "/>
   <polygon id="_55710784" class="fil2" points="129.313,98.7418 135.814,98.7418 135.814,109.04 129.313,109.04 "/>
   <polygon id="_55711936" class="fil0 str1" points="129.313,98.7418 135.814,98.7418 135.814,109.04 129.313,109.04 "/>
   <polygon id="_55713088" class="fil1" points="129.313,109.038 135.814,109.038 135.814,119.326 129.313,119.326 "/>
   <polygon id="_55714240" class="fil0 str1" points="129.313,109.038 135.814,109.038 135.814,119.326 129.313,119.326 "/>
   <polygon id="_55715392" class="fil1" points="135.996,27.0796 142.472,27.0796 142.472,37.3826 135.996,37.3826 "/>
   <polygon id="_55716544" class="fil0 str1" points="135.996,27.0796 142.472,27.0796 142.472,37.3826 135.996,37.3826 "/>
   <polygon id="_55717696" class="fil1" points="135.996,37.3798 142.472,37.3798 142.472,47.6633 135.996,47.6633 "/>
   <polygon id="_55718848" class="fil0 str1" points="135.996,37.3798 142.472,37.3798 142.472,47.6633 135.996,47.6633 "/>
   <polygon id="_55720000" class="fil1" points="135.996,47.5726 142.472,47.5726 142.472,57.8659 135.996,57.8659 "/>
   <polygon id="_55721152" class="fil0 str1" points="135.996,47.5726 142.472,47.5726 142.472,57.8659 135.996,57.8659 "/>
   <polygon id="_55722304" class="fil1" points="135.996,57.8638 142.472,57.8638 142.472,68.1522 135.996,68.1522 "/>
   <polygon id="_55723456" class="fil0 str1" points="135.996,57.8638 142.472,57.8638 142.472,68.1522 135.996,68.1522 "/>
   <polygon id="_55724608" class="fil1" points="135.996,68.0608 142.472,68.0608 142.472,78.3443 135.996,78.3443 "/>
   <polygon id="_55725760" class="fil0 str1" points="135.996,68.0608 142.472,68.0608 142.472,78.3443 135.996,78.3443 "/>
   <polygon id="_55726912" class="fil1" points="135.996,78.3443 142.472,78.3443 142.472,88.6424 135.996,88.6424 "/>
   <polygon id="_55728064" class="fil0 str1" points="135.996,78.3443 142.472,78.3443 142.472,88.6424 135.996,88.6424 "/>
   <polygon id="_55729216" class="fil1" points="135.996,88.5441 142.472,88.5441 142.472,98.8276 135.996,98.8276 "/>
   <polygon id="_55730368" class="fil0 str1" points="135.996,88.5441 142.472,88.5441 142.472,98.8276 135.996,98.8276 "/>
   <polygon id="_55731520" class="fil1" points="135.996,98.7418 142.472,98.7418 142.472,109.04 135.996,109.04 "/>
   <polygon id="_55732672" class="fil0 str1" points="135.996,98.7418 142.472,98.7418 142.472,109.04 135.996,109.04 "/>
   <polygon id="_55733824" class="fil1" points="142.659,37.3798 149.15,37.3798 149.15,47.6633 142.659,47.6633 "/>
   <polygon id="_55734976" class="fil0 str1" points="142.659,37.3798 149.15,37.3798 149.15,47.6633 142.659,47.6633 "/>
   <polygon id="_55736128" class="fil1" points="142.659,47.5726 149.15,47.5726 149.15,57.8659 142.659,57.8659 "/>
   <polygon id="_55737280" class="fil0 str1" points="142.659,47.5726 149.15,47.5726 149.15,57.8659 142.659,57.8659 "/>
   <polygon id="_55738432" class="fil1" points="142.659,57.8638 149.15,57.8638 149.15,68.1522 142.659,68.1522 "/>
   <polygon id="_55747104" class="fil0 str1" points="142.659,57.8638 149.15,57.8638 149.15,68.1522 142.659,68.1522 "/>
   <polygon id="_55748256" class="fil1" points="142.659,68.0608 149.15,68.0608 149.15,78.3443 142.659,78.3443 "/>
   <polygon id="_55749408" class="fil0 str1" points="142.659,68.0608 149.15,68.0608 149.15,78.3443 142.659,78.3443 "/>
   <polygon id="_55750560" class="fil1" points="142.659,78.3443 149.15,78.3443 149.15,88.6424 142.659,88.6424 "/>
   <polygon id="_55751712" class="fil0 str1" points="142.659,78.3443 149.15,78.3443 149.15,88.6424 142.659,88.6424 "/>
   <polygon id="_55752864" class="fil1" points="142.659,88.5441 149.15,88.5441 149.15,98.8276 142.659,98.8276 "/>
   <polygon id="_55754016" class="fil0 str1" points="142.659,88.5441 149.15,88.5441 149.15,98.8276 142.659,98.8276 "/>
   <polygon id="_55755168" class="fil1" points="142.659,98.7418 149.15,98.7418 149.15,109.04 142.659,109.04 "/>
   <polygon id="_55756320" class="fil0 str1" points="142.659,98.7418 149.15,98.7418 149.15,109.04 142.659,109.04 "/>
   <polygon id="_55757472" class="fil1" points="149.342,47.5726 155.832,47.5726 155.832,57.8659 149.342,57.8659 "/>
   <polygon id="_55758624" class="fil0 str1" points="149.342,47.5726 155.832,47.5726 155.832,57.8659 149.342,57.8659 "/>
   <polygon id="_55759776" class="fil1" points="149.342,57.8638 155.832,57.8638 155.832,68.1522 149.342,68.1522 "/>
   <polygon id="_55760928" class="fil0 str1" points="149.342,57.8638 155.832,57.8638 155.832,68.1522 149.342,68.1522 "/>
   <polygon id="_55762080" class="fil1" points="149.342,68.0608 155.832,68.0608 155.832,78.3443 149.342,78.3443 "/>
   <polygon id="_55763232" class="fil0 str1" points="149.342,68.0608 155.832,68.0608 155.832,78.3443 149.342,78.3443 "/>
   <polygon id="_55764384" class="fil1" points="149.342,78.3443 155.832,78.3443 155.832,88.6424 149.342,88.6424 "/>
   <polygon id="_55765536" class="fil0 str1" points="149.342,78.3443 155.832,78.3443 155.832,88.6424 149.342,88.6424 "/>
   <polygon id="_55766656" class="fil1" points="162.303,78.3394 155.913,78.3443 155.913,68.0608 163.039,68.0266 "/>
   <polygon id="_55767808" class="fil0 str1" points="162.303,78.3394 155.913,78.3443 155.913,68.0608 163.039,68.0266 "/>
   <path id="_55769280" class="fil1" d="M42.8358 28.0933l0 9.2865 6.4713 0 0 -10.3002 -5.6884 0c-0.2631,0.3293 -0.5268,0.6768 -0.7829,1.0137z"/>
   <path id="_55770568" class="fil0 str1" d="M42.8358 28.0933l0 9.2865 6.4713 0 0 -10.3002 -5.6884 0c-0.2631,0.3293 -0.5268,0.6768 -0.7829,1.0137z"/>
   <path id="_55771784" class="fil1" d="M42.72 37.3798l-5.8405 0c-0.2268,0.3991 -0.4333,0.8226 -0.6524,1.2405l0 9.043 6.4929 0 0 -10.2835z"/>
   <path id="_55772992" class="fil0 str1" d="M42.72 37.3798l-5.8405 0c-0.2268,0.3991 -0.4333,0.8226 -0.6524,1.2405l0 9.043 6.4929 0 0 -10.2835z"/>
   <path id="_55774200" class="fil1" d="M155.832 38.4382c-0.1821,-0.3614 -0.3566,-0.706 -0.5533,-1.0584l-5.9368 0 0 10.2835 6.4901 0 0 -9.2251z"/>
   <path id="_55775408" class="fil0 str1" d="M155.832 38.4382c-0.1821,-0.3614 -0.3566,-0.706 -0.5533,-1.0584l-5.9368 0 0 10.2835 6.4901 0 0 -9.2251z"/>
   <path id="_55776616" class="fil1" d="M149.15 27.8568c-0.1925,-0.2707 -0.3991,-0.5191 -0.6056,-0.7772l-5.8852 0 0 10.3002 6.4908 0 0 -9.523z"/>
   <path id="_55777824" class="fil0 str1" d="M149.15 27.8568c-0.1925,-0.2707 -0.3991,-0.5191 -0.6056,-0.7772l-5.8852 0 0 10.3002 6.4908 0 0 -9.523z"/>
   <path id="_55739216" class="fil1" d="M121.415 6.5935l-5.3535 0 0 10.2884 6.4656 0 0 -9.816c-0.3565,-0.1696 -0.7361,-0.3077 -1.1121,-0.4724z"/>
   <path id="_55740424" class="fil0 str1" d="M121.415 6.5935l-5.3535 0 0 10.2884 6.4656 0 0 -9.816c-0.3565,-0.1696 -0.7361,-0.3077 -1.1121,-0.4724z"/>
   <path id="_55741632" class="fil1" d="M75.9113 4.723c-1.8084,0.5832 -3.6008,1.2307 -5.3605,1.9466l5.3605 0 0 -1.9466z"/>
   <path id="_55742600" class="fil0 str1" d="M75.9113 4.723c-1.8084,0.5832 -3.6008,1.2307 -5.3605,1.9466l5.3605 0 0 -1.9466z"/>
   <path id="_55830200" class="fil1" d="M76.099 4.6713l0 1.9983 6.4929 0 0 -3.7042c-2.2006,0.4703 -4.3642,1.034 -6.4929,1.7059z"/>
   <path id="_55831704" class="fil0 str1" d="M76.099 4.6713l0 1.9983 6.4929 0 0 -3.7042c-2.2006,0.4703 -4.3642,1.034 -6.4929,1.7059z"/>
   <path id="_55832544" class="fil1" d="M82.7809 2.9312l0 3.7384 6.4789 0 0 -4.7382c-2.1859,0.2268 -4.3397,0.5568 -6.4789,0.9998z"/>
   <path id="_55781736" class="fil0 str1" d="M82.7809 2.9312l0 3.7384 6.4789 0 0 -4.7382c-2.1859,0.2268 -4.3397,0.5568 -6.4789,0.9998z"/>
   <path id="_55783320" class="fil1" d="M95.9474 1.5944c-2.1985,0.0049 -4.3447,0.1207 -6.4859,0.337l0 4.7382 6.4859 0 0 -5.0752z"/>
   <path id="_55784656" class="fil0 str1" d="M95.9474 1.5944c-2.1985,0.0049 -4.3447,0.1207 -6.4859,0.337l0 4.7382 6.4859 0 0 -5.0752z"/>
   <path id="_55785992" class="fil1" d="M102.615 6.6696l0 -4.7626c-2.1364,-0.2016 -4.3021,-0.3321 -6.495,-0.3321l0 5.0947 6.495 0z"/>
   <path id="_55787328" class="fil0 str1" d="M102.615 6.6696l0 -4.7626c-2.1364,-0.2016 -4.3021,-0.3321 -6.495,-0.3321l0 5.0947 6.495 0z"/>
   <path id="_55788664" class="fil1" d="M102.716 1.9217l0 4.7479 6.4831 0 0 -3.7879c-2.1336,-0.4207 -4.2972,-0.7431 -6.4831,-0.96z"/>
   <path id="_55790000" class="fil0 str1" d="M102.716 1.9217l0 4.7479 6.4831 0 0 -3.7879c-2.1336,-0.4207 -4.2972,-0.7431 -6.4831,-0.96z"/>
   <path id="_55780624" class="fil1" d="M116.062 4.6364l0 2.0332 5.5844 0c-1.8364,-0.7382 -3.6769,-1.4345 -5.5844,-2.0332z"/>
   <path id="_55791320" class="fil0 str1" d="M116.062 4.6364l0 2.0332 5.5844 0c-1.8364,-0.7382 -3.6769,-1.4345 -5.5844,-2.0332z"/>
   <path id="_55792632" class="fil1" d="M129.232 10.4358c-2.0994,-1.2015 -4.2581,-2.3136 -6.4859,-3.2737l0 9.7198 6.4859 0 0 -6.4461z"/>
   <path id="_55793968" class="fil0 str1" d="M129.232 10.4358c-2.0994,-1.2015 -4.2581,-2.3136 -6.4859,-3.2737l0 9.7198 6.4859 0 0 -6.4461z"/>
   <path id="_55795304" class="fil1" d="M129.313 10.4825l0 6.3994 6.5005 0 0 -2.1636c-2.077,-1.5182 -4.256,-2.9415 -6.5005,-4.2358z"/>
   <path id="_55796640" class="fil0 str1" d="M129.313 10.4825l0 6.3994 6.5005 0 0 -2.1636c-2.077,-1.5182 -4.256,-2.9415 -6.5005,-4.2358z"/>
   <path id="_55797976" class="fil1" d="M135.996 14.8585l0 2.0234 2.5871 0c-0.8421,-0.6914 -1.7107,-1.3661 -2.5871,-2.0234z"/>
   <path id="_55799288" class="fil0 str1" d="M135.996 14.8585l0 2.0234 2.5871 0c-0.8421,-0.6914 -1.7107,-1.3661 -2.5871,-2.0234z"/>
   <path id="_55800600" class="fil1" d="M138.583 16.8819l-2.5871 0 0 10.2835 6.4762 0 0 -6.7685c-1.2454,-1.2133 -2.5432,-2.4001 -3.8891,-3.515z"/>
   <path id="_55802160" class="fil0 str1" d="M138.583 16.8819l-2.5871 0 0 10.2835 6.4762 0 0 -6.7685c-1.2454,-1.2133 -2.5432,-2.4001 -3.8891,-3.515z"/>
   <path id="_55803368" class="fil1" d="M149.342 28.0933l0 9.2865 5.9368 0c-1.7303,-3.268 -3.7265,-6.3749 -5.9368,-9.2865z"/>
   <path id="_55804504" class="fil0 str1" d="M149.342 28.0933l0 9.2865 5.9368 0c-1.7303,-3.268 -3.7265,-6.3749 -5.9368,-9.2865z"/>
   <path id="_55805640" class="fil1" d="M155.913 38.6155l0 9.0478 3.7585 0c-1.0242,-3.1257 -2.287,-6.1531 -3.7585,-9.0478z"/>
   <path id="_55806952" class="fil0 str1" d="M155.913 38.6155l0 9.0478 3.7585 0c-1.0242,-3.1257 -2.287,-6.1531 -3.7585,-9.0478z"/>
   <path id="_55808264" class="fil1" d="M159.654 47.5726l-3.7411 0 0 10.2912 6.264 0c-0.5637,-3.5276 -1.4226,-6.9561 -2.5229,-10.2912z"/>
   <path id="_55809600" class="fil0 str1" d="M159.654 47.5726l-3.7411 0 0 10.2912 6.264 0c-0.5637,-3.5276 -1.4226,-6.9561 -2.5229,-10.2912z"/>
   <path id="_55869112" class="fil1" d="M160.004 88.5441l-4.0906 0 0 9.9862c1.6096,-3.2024 3.0001,-6.5256 4.0906,-9.9862z"/>
   <path id="_55812480" class="fil0 str1" d="M160.004 88.5441l-4.0906 0 0 9.9862c1.6096,-3.2024 3.0001,-6.5256 4.0906,-9.9862z"/>
   <path id="_55813648" class="fil1" d="M149.342 98.7418l0 10.296 0.0565 0c2.4441,-3.2052 4.5679,-6.6729 6.4189,-10.296l-6.4754 0z"/>
   <path id="_55814984" class="fil0 str1" d="M149.342 98.7418l0 10.296 0.0565 0c2.4441,-3.2052 4.5679,-6.6729 6.4189,-10.296l-6.4754 0z"/>
   <path id="_55816320" class="fil1" d="M142.659 116.623c2.336,-2.2543 4.4996,-4.6767 6.4908,-7.2583l0 -0.3272 -6.4908 0 0 7.5855z"/>
   <path id="_55817656" class="fil0 str1" d="M142.659 116.623c2.336,-2.2543 4.4996,-4.6767 6.4908,-7.2583l0 -0.3272 -6.4908 0 0 7.5855z"/>
   <path id="_55818992" class="fil1" d="M135.996 119.326l3.7314 0c0.9524,-0.8121 1.8559,-1.6689 2.7448,-2.5229l0 -7.7655 -6.4762 0 0 10.2884z"/>
   <path id="_55820552" class="fil0 str1" d="M135.996 119.326l3.7314 0c0.9524,-0.8121 1.8559,-1.6689 2.7448,-2.5229l0 -7.7655 -6.4762 0 0 10.2884z"/>
   <path id="_55821760" class="fil1" d="M135.996 119.215l0 3.1013c1.302,-0.9775 2.5871,-2.0059 3.8326,-3.1013l-3.8326 0z"/>
   <path id="_55822752" class="fil0 str1" d="M135.996 119.215l0 3.1013c1.302,-0.9775 2.5871,-2.0059 3.8326,-3.1013l-3.8326 0z"/>
   <path id="_55823744" class="fil1" d="M129.313 126.671c2.2397,-1.2824 4.4235,-2.6688 6.5005,-4.2016l0 -3.2541 -6.5005 0 0 7.4557z"/>
   <path id="_55825080" class="fil0 str1" d="M129.313 126.671c2.2397,-1.2824 4.4235,-2.6688 6.5005,-4.2016l0 -3.2541 -6.5005 0 0 7.4557z"/>
   <path id="_55826416" class="fil1" d="M122.746 129.509l1.1024 0c1.8461,-0.8267 3.6329,-1.7896 5.3835,-2.7789l0 -7.5143 -6.4859 0 0 10.2932z"/>
   <path id="_55827976" class="fil0 str1" d="M122.746 129.509l1.1024 0c1.8461,-0.8267 3.6329,-1.7896 5.3835,-2.7789l0 -7.5143 -6.4859 0 0 10.2932z"/>
   <path id="_55828864" class="fil1" d="M69.3396 119.215l-6.5005 0 0 7.4996c1.7603,1.004 3.5422,1.9669 5.3856,2.7936l1.1149 0 0 -10.2932z"/>
   <path id="_55834064" class="fil0 str1" d="M69.3396 119.215l-6.5005 0 0 7.4996c1.7603,1.004 3.5422,1.9669 5.3856,2.7936l1.1149 0 0 -10.2932z"/>
   <path id="_55835272" class="fil1" d="M56.1816 122.378c2.0673,1.5335 4.2455,2.9485 6.4803,4.2309l0 -7.3936 -6.4803 0 0 3.1627z"/>
   <path id="_55836608" class="fil0 str1" d="M56.1816 122.378c2.0673,1.5335 4.2455,2.9485 6.4803,4.2309l0 -7.3936 -6.4803 0 0 3.1627z"/>
   <path id="_55837944" class="fil1" d="M55.9799 122.225l0 -3.0099 -3.7271 0c1.2063,1.0584 2.4566,2.0673 3.7271,3.0099z"/>
   <path id="_55838936" class="fil0 str1" d="M55.9799 122.225l0 -3.0099 -3.7271 0c1.2063,1.0584 2.4566,2.0673 3.7271,3.0099z"/>
   <path id="_55839928" class="fil1" d="M49.494 116.688c0.9378,0.9035 1.8901,1.7819 2.8599,2.6387l3.626 0 0 -10.2884 -6.4859 0 0 7.6497z"/>
   <path id="_55841488" class="fil0 str1" d="M49.494 116.688c0.9378,0.9035 1.8901,1.7819 2.8599,2.6387l3.626 0 0 -10.2884 -6.4859 0 0 7.6497z"/>
   <path id="_55842696" class="fil1" d="M42.8358 109.198c1.9669,2.5766 4.1451,5.0332 6.4713,7.3127l0 -7.4725 -6.4713 0 0 0.1598z"/>
   <path id="_55844032" class="fil0 str1" d="M42.8358 109.198c1.9669,2.5766 4.1451,5.0332 6.4713,7.3127l0 -7.4725 -6.4713 0 0 0.1598z"/>
   <path id="_55845368" class="fil1" d="M42.72 98.7418l-6.4168 0c1.8315,3.6231 3.9609,7.0908 6.3973,10.296l0.0195 0 0 -10.296z"/>
   <path id="_55846704" class="fil0 str1" d="M42.72 98.7418l-6.4168 0c1.8315,3.6231 3.9609,7.0908 6.3973,10.296l0.0195 0 0 -10.296z"/>
   <path id="_55848040" class="fil1" d="M36.0625 78.3443l-6.2396 0c0.5093,3.5276 1.3166,6.9757 2.3603,10.2961l3.8793 0 0 -10.2961z"/>
   <path id="_55849376" class="fil0 str1" d="M36.0625 78.3443l-6.2396 0c0.5093,3.5276 1.3166,6.9757 2.3603,10.2961l3.8793 0 0 -10.2961z"/>
   <path id="_55850712" class="fil1" d="M36.0625 98.2471l0 -9.703 -3.8988 0c1.0487,3.3552 2.3603,6.5773 3.8988,9.703z"/>
   <path id="_55851704" class="fil0 str1" d="M36.0625 98.2471l0 -9.703 -3.8988 0c1.0487,3.3552 2.3603,6.5773 3.8988,9.703z"/>
   <path id="_55905968" class="fil1" d="M36.0625 57.8638l-6.0722 0c-0.1674,1.0012 -0.3076,2.0059 -0.4283,3.0343l-0.3594 7.2883 6.8599 -0.0342 0 -10.2884z"/>
   <path id="_55906288" class="fil0 str1" d="M36.0625 57.8638l-6.0722 0c-0.1674,1.0012 -0.3076,2.0059 -0.4283,3.0343l-0.3594 7.2883 6.8599 -0.0342 0 -10.2884z"/>
   <path id="_55855696" class="fil1" d="M36.0625 57.8638l0 -10.2912 -3.5423 0c-1.0975,3.3351 -1.9563,6.7636 -2.5299,10.2912l6.0722 0z"/>
   <path id="_55857032" class="fil0 str1" d="M36.0625 57.8638l0 -10.2912 -3.5423 0c-1.0975,3.3351 -1.9563,6.7636 -2.5299,10.2912l6.0722 0z"/>
   <path id="_55858368" class="fil1" d="M36.0625 47.6633l0 -8.6906c-1.3885,2.7859 -2.592,5.7051 -3.5765,8.6906l3.5765 0z"/>
   <path id="_55859360" class="fil0 str1" d="M36.0625 47.6633l0 -8.6906c-1.3885,2.7859 -2.592,5.7051 -3.5765,8.6906l3.5765 0z"/>
   <path id="_55860352" class="fil1" d="M49.3071 27.1654l0 -6.414c-2.0583,2.0108 -3.9805,4.1695 -5.7596,6.414l5.7596 0z"/>
   <path id="_55861520" class="fil0 str1" d="M49.3071 27.1654l0 -6.414c-2.0583,2.0108 -3.9805,4.1695 -5.7596,6.414l5.7596 0z"/>
   <path id="_55862688" class="fil1" d="M49.494 27.1654l6.4859 0 0 -10.2835 -2.3708 0c-1.4373,1.1693 -2.7789,2.4168 -4.1151,3.6971l0 6.5864z"/>
   <path id="_55864248" class="fil0 str1" d="M49.494 27.1654l6.4859 0 0 -10.2835 -2.3708 0c-1.4373,1.1693 -2.7789,2.4168 -4.1151,3.6971l0 6.5864z"/>
   <path id="_55865456" class="fil1" d="M55.9799 15.0113c-0.8079,0.6057 -1.6005,1.2454 -2.3708,1.8706l2.3708 0 0 -1.8706z"/>
   <path id="_55866448" class="fil0 str1" d="M55.9799 15.0113c-0.8079,0.6057 -1.6005,1.2454 -2.3708,1.8706l2.3708 0 0 -1.8706z"/>
   <path id="_55867440" class="fil1" d="M56.1816 14.8732l0 2.0087 6.4803 0 0 -6.2738c-2.2543,1.297 -4.413,2.7071 -6.4803,4.2651z"/>
   <path id="_55868776" class="fil0 str1" d="M56.1816 14.8732l0 2.0087 6.4803 0 0 -6.2738c-2.2543,1.297 -4.413,2.7071 -6.4803,4.2651z"/>
   <path id="_55870568" class="fil1" d="M69.3396 7.1991c-2.2319,1.0019 -4.4081,2.0966 -6.5005,3.303l0 6.3798 6.5005 0 0 -9.6828z"/>
   <path id="_55871904" class="fil0 str1" d="M69.3396 7.1991c-2.2319,1.0019 -4.4081,2.0966 -6.5005,3.303l0 6.3798 6.5005 0 0 -9.6828z"/>
   <path id="_55873240" class="fil1" d="M69.4261 16.8819l6.4852 0 0 -10.2884 -5.1239 0c-0.448,0.1919 -0.9064,0.3817 -1.3613,0.5735l0 9.7149z"/>
   <path id="_55874800" class="fil0 str1" d="M69.4261 16.8819l6.4852 0 0 -10.2884 -5.1239 0c-0.448,0.1919 -0.9064,0.3817 -1.3613,0.5735l0 9.7149z"/>
   <path id="_55876008" class="fil1" d="M162.414 59.4511c-0.0837,-0.5289 -0.1556,-1.0536 -0.2365,-1.5873l-6.264 0 0 10.2884 7.1257 0.0614 -0.6252 -8.7625z"/>
   <path id="_55877216" class="fil0 str2" d="M162.414 59.4511c-0.0837,-0.5289 -0.1556,-1.0536 -0.2365,-1.5873l-6.264 0 0 10.2884 7.1257 0.0614 -0.6252 -8.7625z"/>
   <path id="_55878448" class="fil1" d="M155.913 78.3443l0 10.2961 4.0516 0c1.0528,-3.3204 1.8503,-6.7685 2.3652,-10.2961l-6.4168 0z"/>
   <path id="_55879808" class="fil0 str1" d="M155.913 78.3443l0 10.2961 4.0516 0c1.0528,-3.3204 1.8503,-6.7685 2.3652,-10.2961l-6.4168 0z"/>
   <path id="_55881144" class="fil1" d="M155.832 88.5441l-6.4901 0 0 10.2835 6.4217 0c0.0244,-0.0391 0.0488,-0.0858 0.0684,-0.1256l0 -10.1579z"/>
   <path id="_55882704" class="fil0 str1" d="M155.832 88.5441l-6.4901 0 0 10.2835 6.4217 0c0.0244,-0.0391 0.0488,-0.0858 0.0684,-0.1256l0 -10.1579z"/>
   <path id="_55883912" class="fil1" d="M36.3555 98.8276l6.3645 0 0 -10.2835 -6.4929 0 0 10.0525c0.0517,0.0712 0.0761,0.1452 0.1284,0.231z"/>
   <path id="_55885120" class="fil0 str1" d="M36.3555 98.8276l6.3645 0 0 -10.2835 -6.4929 0 0 10.0525c0.0517,0.0712 0.0761,0.1452 0.1284,0.231z"/>
   <path id="_55886328" class="fil1" d="M29.8229 78.3443l6.2396 0 0 -10.2835 -6.8599 0.0146 0.3594 8.0097c0.0837,0.748 0.1451,1.5182 0.2609,2.2592z"/>
   <path id="_55942688" class="fil0 str1" d="M29.8229 78.3443l6.2396 0 0 -10.2835 -6.8599 0.0146 0.3594 8.0097c0.0837,0.748 0.1451,1.5182 0.2609,2.2592z"/>
   <polygon id="_55888112" class="fil2" points="169.374,140.541 169.374,137.786 21.4051,137.878 21.4051,143.425 169.374,143.319 "/>
   <path id="_55889136" class="fil2" d="M164.614 51.5572c-13.7197,0 -24.2056,7.1334 -24.2056,19.5609 0,10.4852 9.5433,17.8837 22.3497,17.8837 9.7246,0 17.7978,-7.0441 20.1093,-11.4892 0,-1.3856 -1.3884,-1.957 -2.6834,-1.957 -2.225,3.4313 -8.5308,6.0477 -11.1131,5.9465 -15.4891,-0.5686 -17.9896,-6.7684 -18.1766,-13.2494 -0.2931,-7.0615 7.3224,-13.1755 13.8153,-12.7151 3.7878,0.2882 5.0974,6.4957 8.4129,8.7109 1.0389,0.5687 3.4432,0.4745 5.0186,0.1968 1.2113,-0.1968 4.443,-0.9329 4.443,-3.7167 0,-2.3164 -2.8703,-4.9028 -5.6437,-6.5745 -2.779,-1.2943 -8.999,-2.5969 -12.3264,-2.5969z"/>
   <path id="_55891632" class="fil2" d="M73.0417 78.4406c0,5.7498 -1.4666,8.8015 -6.1161,9.075l0.1102 0.9329c7.7731,-0.0914 15.6719,0 23.2574,-0.1772l0.0914 -0.4731c-3.5074,0 -6.2152,-3.7139 -6.2152,-8.3341l0 -15.4842c0,-3.7927 4.6251,-6.2173 7.7927,-5.927 4.8979,0.4507 7.598,3.5988 7.598,6.3924l0 15.2009c0,4.6398 -1.3975,7.515 -5.004,7.7781l0 0.847 21.3255 0 0 -0.6552c-3.1676,-0.374 -5.3877,-3.2534 -5.3877,-7.605l0 -15.9447c0,-3.4243 2.9757,-5.74 8.2573,-5.8314 4.6398,-0.1005 7.4187,3.335 7.4187,6.5822l0 14.4502c0,4.923 -1.4819,7.9747 -5.1811,8.3487l0 0.6552c7.778,0.0858 14.1606,0.0858 21.857,0l0 -0.4731c-4.0711,0 -5.4498,-2.6896 -5.4498,-8.3341l0 -15.9517c0,-5.2774 -2.8843,-11.5854 -10.9526,-11.5854 -5.4546,0 -9.4692,2.6827 -11.7577,3.4432 -1.5831,0.6349 -2.7029,1.3731 -3.0867,1.3731 -0.7165,0 -1.5482,-0.4549 -2.5822,-1.565 -1.9515,-2.0631 -5.4567,-3.2513 -9.1755,-3.2513 -4.7312,0 -9.4567,2.6827 -11.6915,3.4432 -0.2589,0.0858 -1.9327,0.9182 -2.1245,0.9182 -0.3614,0 -1.8559,0 -1.8559,-0.18 0,-4.45 0.2832,-2.2348 0.0963,-5.378l-3.0623 0c-0.9084,0 -2.5152,1.6641 -4.3565,2.3848 -2.2249,0.9405 -6.6798,0.8394 -8.5141,1.3222l0 3.1431 4.8051 0.9231 0 6.1238 -0.0962 13.8132z"/>
   <path id="_55896416" class="fil2" d="M52.1816 88.3571c8.1764,-0.3691 16.0431,-2.1385 16.0431,-10.0128 0,-5.7352 -6.3031,-9.3604 -12.9613,-12.2301 -4.2825,-1.7652 -10.4852,-4.3621 -10.4852,-6.4001 0,-2.412 4.7207,-7.0468 9.2691,-3.3399l7.8743 6.5822 3.6253 -0.741 -2.0255 -9.8209c-1.8684,0.0907 -3.1634,0.1918 -9.9367,-0.9329 -8.3536,-1.2014 -18.2681,2.9758 -18.2681,10.7538 0,5.1958 7.5192,8.8065 13.456,11.2212 3.2367,1.3878 8.9914,3.4313 8.9914,6.5745 0,3.0595 -5.3808,3.9037 -8.4325,3.9037 -5.1986,0 -10.9554,-6.961 -10.9554,-6.961l-3.4139 0 1.851 10.3944c0.6349,-0.5686 2.966,-0.4751 3.4355,-0.2833 1.6592,0.6329 7.6874,1.5755 11.9329,1.2922z"/>
   <path id="_55899528" class="fil2" d="M32.53 56.8396l0 -4.817 -10.0965 0.0914c-1.2873,0 -1.2057,-0.2784 -1.2057,-1.9473l0.1005 -6.5891 -5.0995 -0.0838c-1.5678,3.5102 -3.52,5.8384 -4.6251,6.3038l-9.4714 4.157 0 2.9764 3.5423 0.1004c1.5775,0 2.2173,-0.1004 2.2173,1.7604l0 19.5525c0,5.9417 3.2394,10.2961 11.6007,10.4782 6.2787,0.1793 10.0938,-2.6039 12.7716,-5.191l-0.7354 -2.5103c-1.1254,0.7507 -2.0331,1.3954 -3.5276,1.3954 -7.1306,0 -6.9436,-5.5628 -6.9436,-10.4803l0 -13.2445c0,-1.9522 0.1702,-1.9522 1.477,-1.9522l9.9954 0z"/>
  </g>
 </g>
</svg>
