<?xml version="1.0" encoding="UTF-8" standalone="no"?>
<!-- Created with Inkscape (http://www.inkscape.org/) -->
<svg
   xmlns:a="http://ns.adobe.com/AdobeSVGViewerExtensions/3.0/"
   xmlns:svg="http://www.w3.org/2000/svg"
   xmlns="http://www.w3.org/2000/svg"
   version="1.0"
   width="448"
   height="221"
   viewBox="-0.727 -0.419 448 221"
   id="svg2"
   xml:space="preserve">
	<defs
   id="defs4">
	</defs>
	<g
   id="g6">
		<g
   id="g8">
			<path
   d="M 440.216,176.938 L 441.108,176.938 C 442.001,176.938 442.448,176.719 442.448,176.06 C 442.448,175.622 442.001,174.966 441.108,174.966 C 440.661,174.966 440.661,174.966 440.216,174.966 L 440.216,176.938 M 440.216,180.223 L 439.32,180.223 L 439.32,174.529 C 439.767,174.31 440.216,174.31 441.107,174.31 C 442,174.31 442.447,174.529 442.895,174.748 C 443.339,174.967 443.339,175.404 443.339,175.842 C 443.339,176.72 442.895,177.157 442.446,177.376 C 442.894,177.595 443.339,178.032 443.339,178.907 C 443.339,179.786 443.339,180.005 443.786,180.223 L 442.446,180.223 C 442.446,180.004 442.446,179.567 442.446,178.688 C 441.999,178.032 441.554,177.813 441.106,177.813 L 440.214,177.813 L 440.214,180.223 L 440.216,180.223 z M 441.556,172.775 C 438.876,172.775 437.092,174.747 437.092,177.156 C 437.092,179.785 438.876,181.535 441.556,181.535 C 443.787,181.754 445.576,179.785 445.576,177.156 C 445.575,174.747 443.787,172.775 441.556,172.775 z M 441.556,172.119 C 444.236,172.119 446.464,174.309 446.464,177.156 C 446.464,180.222 444.235,182.414 441.556,182.414 C 438.432,182.414 436.197,180.223 436.197,177.156 C 436.196,174.31 438.432,172.119 441.556,172.119 z "
   style="fill:#382d9a"
   id="path10" />
			<path
   d="M 0,166.861 L 14.733,166.861 L 14.733,168.615 C 10.715,169.053 10.267,169.709 10.267,172.775 L 10.267,199.058 C 10.267,204.753 13.393,207.6 17.857,207.6 C 23.214,207.6 26.34,204.312 26.34,198.836 L 26.34,173.434 C 26.34,170.365 25.448,169.052 21.876,168.615 L 21.876,166.861 L 33.483,166.861 L 33.483,168.615 C 29.465,169.053 28.571,170.365 28.571,173.434 L 28.571,197.524 C 28.571,205.191 25.447,209.569 16.964,209.569 C 8.481,209.569 4.463,204.972 4.463,197.305 L 4.463,172.775 C 4.463,169.709 4.017,169.052 -0.001,168.615 L -0.001,166.861"
   style="fill:#382d9a"
   id="path12" />
			<path
   d="M 32.592,208.694 L 32.592,206.722 C 35.27,206.503 36.61,205.409 36.61,203.656 L 36.61,184.601 C 36.61,181.972 35.716,181.535 32.592,181.535 L 32.592,179.566 L 41.074,179.125 L 41.521,185.042 C 42.859,181.535 45.539,178.688 49.557,178.688 C 54.468,178.688 57.146,181.973 57.146,187.449 L 57.146,203.657 C 57.146,205.63 58.04,206.505 60.718,206.723 L 60.718,208.695 L 51.788,208.695 L 51.788,187.011 C 51.788,182.852 50.45,181.535 48.217,181.535 C 45.091,181.535 41.521,185.917 41.521,191.83 L 41.521,203.656 C 41.521,205.41 42.414,206.504 45.539,206.722 L 45.539,208.694 L 32.592,208.694"
   style="fill:#382d9a"
   id="path14" />
			<path
   d="M 70.988,170.146 C 70.988,172.337 70.094,174.09 68.308,174.09 C 66.076,174.09 65.184,172.337 65.184,170.146 C 65.184,167.74 66.076,166.205 68.308,166.205 C 70.094,166.205 70.988,167.74 70.988,170.146 M 62.059,208.694 L 62.059,206.722 C 65.185,206.503 66.077,205.409 66.077,203.656 L 66.077,184.164 C 66.077,181.535 65.185,181.098 62.059,181.098 L 62.059,179.125 L 70.989,178.687 L 70.989,203.656 C 70.989,205.41 72.329,206.504 75.007,206.722 L 75.007,208.694 L 62.059,208.694 z "
   style="fill:#382d9a"
   id="path16" />
			<path
   d="M 84.381,168.396 L 84.381,179.566 L 91.97,179.566 L 91.97,181.754 L 84.381,181.754 L 84.381,203.219 C 84.381,205.848 85.275,206.942 87.061,206.942 C 89.293,206.942 90.633,205.848 90.633,199.278 L 90.633,197.525 L 92.419,197.525 L 92.419,200.372 C 92.419,206.724 90.185,209.351 85.721,209.351 C 81.703,209.351 79.47,206.723 79.47,201.907 L 79.47,181.755 L 75.452,181.755 L 75.452,180.005 C 79.917,178.251 82.149,176.061 82.596,168.398 L 84.381,168.398"
   style="fill:#382d9a"
   id="path18" />
			<path
   d="M 117.419,193.803 C 117.419,185.042 112.955,178.688 106.257,178.688 C 99.562,178.688 94.65,185.042 94.65,194.022 C 94.65,201.684 99.562,209.351 107.151,209.351 C 114.295,209.351 116.973,204.094 117.419,198.619 L 115.635,198.181 C 115.187,202.344 112.955,206.942 108.044,206.942 C 103.58,206.942 100.454,202.344 100.454,193.803 L 117.419,193.803 M 100.454,191.611 C 100.454,183.726 103.134,180.66 106.258,180.66 C 109.83,180.66 111.616,183.726 111.616,191.611 L 100.454,191.611 z "
   style="fill:#382d9a"
   id="path20" />
			<path
   d="M 133.94,168.615 C 137.064,168.834 137.958,169.271 137.958,171.9 L 137.958,182.851 C 136.618,180.441 134.386,178.687 131.707,178.687 C 125.457,178.687 120.545,185.26 120.545,194.24 C 120.545,203.656 125.457,209.35 130.815,209.35 C 134.833,209.35 136.619,207.16 137.959,204.312 L 137.959,208.694 L 146.889,208.256 L 146.889,206.284 C 144.209,206.284 143.317,205.409 143.317,202.124 L 143.317,166.423 L 133.942,166.861 L 133.942,168.615 M 126.349,194.24 C 126.349,184.82 128.583,181.097 132.155,181.097 C 135.727,181.097 137.959,185.479 137.959,194.24 C 137.959,204.754 134.833,207.379 131.262,207.379 C 128.583,207.379 126.349,203.656 126.349,194.24 z "
   style="fill:#382d9a"
   id="path22" />
			<path
   d="M 149.565,208.694 L 149.565,206.722 C 153.137,206.503 153.583,205.628 153.583,202.562 L 153.583,172.775 C 153.583,169.709 153.137,169.052 149.565,168.615 L 149.565,166.861 L 164.298,166.861 L 164.298,168.615 C 160.28,169.053 159.834,169.709 159.834,172.775 L 159.834,185.479 L 172.781,185.479 L 172.781,172.775 C 172.781,169.709 171.888,169.052 168.317,168.615 L 168.317,166.861 L 183.05,166.861 L 183.05,168.615 C 179.478,169.053 178.585,169.709 178.585,172.775 L 178.585,202.562 C 178.585,205.628 179.479,206.503 183.05,206.722 L 183.05,208.694 L 168.317,208.694 L 168.317,206.722 C 171.888,206.503 172.781,205.628 172.781,202.562 L 172.781,187.67 L 159.834,187.67 L 159.834,202.563 C 159.834,205.629 160.28,206.504 164.298,206.723 L 164.298,208.695 L 149.565,208.695"
   style="fill:#382d9a"
   id="path24" />
			<path
   d="M 206.268,193.803 C 206.268,185.042 201.803,178.688 195.105,178.688 C 187.961,178.688 183.498,185.042 183.498,194.022 C 183.498,201.684 188.41,209.351 195.999,209.351 C 202.697,209.351 205.821,204.094 206.268,198.619 L 204.482,198.181 C 203.588,202.344 201.802,206.942 196.444,206.942 C 192.426,206.942 189.3,202.344 189.3,193.803 L 206.268,193.803 M 189.301,191.611 C 189.301,183.726 191.533,180.66 195.105,180.66 C 198.231,180.66 200.017,183.726 200.017,191.611 L 189.301,191.611 z "
   style="fill:#382d9a"
   id="path26" />
			<path
   d="M 231.717,200.152 C 231.717,204.535 231.269,205.847 229.931,205.847 C 229.037,205.847 229.037,205.191 229.037,203.437 L 229.037,186.354 C 229.037,181.753 226.359,178.687 219.215,178.687 C 214.304,178.687 210.286,181.972 210.286,186.135 C 210.286,188.544 211.626,189.857 212.964,189.857 C 214.75,189.857 216.089,188.544 216.089,186.354 C 216.089,184.601 215.643,183.07 213.409,182.851 C 214.749,181.316 216.534,180.66 218.767,180.66 C 221.892,180.66 223.678,182.195 223.678,185.698 L 223.678,190.736 C 218.321,192.705 208.945,195.552 208.945,202.562 C 208.945,206.503 211.625,209.35 216.089,209.35 C 220.553,209.35 222.339,207.378 223.678,204.535 C 224.124,207.819 225.91,209.35 228.59,209.35 C 232.608,209.35 233.947,206.722 233.947,200.152 L 231.717,200.152 M 223.679,196.431 C 223.679,203.438 221.001,206.942 217.875,206.942 C 215.644,206.942 214.304,205.411 214.304,202.126 C 214.304,197.088 218.768,194.679 223.679,192.925 L 223.679,196.431 z "
   style="fill:#382d9a"
   id="path28" />
			<path
   d="M 234.395,208.694 L 234.395,206.722 C 237.075,206.503 238.413,205.409 238.413,203.656 L 238.413,171.9 C 238.413,169.927 237.075,168.834 234.395,168.615 L 234.395,166.861 L 243.325,166.423 L 243.325,203.655 C 243.325,205.409 244.665,206.503 247.343,206.721 L 247.343,208.693 L 234.395,208.693"
   style="fill:#382d9a"
   id="path30" />
			<path
   d="M 257.165,168.396 L 257.165,179.566 L 264.309,179.566 L 264.309,181.754 L 257.165,181.754 L 257.165,203.219 C 257.165,205.848 258.057,206.942 259.843,206.942 C 261.629,206.942 263.414,205.848 263.414,199.278 L 263.414,197.525 L 265.2,197.525 L 265.2,200.372 C 265.2,206.724 262.969,209.351 258.503,209.351 C 254.485,209.351 251.807,206.723 251.807,201.907 L 251.807,181.755 L 248.236,181.755 L 248.236,180.005 C 252.7,178.251 254.932,176.061 255.38,168.398 L 257.165,168.398"
   style="fill:#382d9a"
   id="path32" />
			<path
   d="M 266.986,208.694 L 266.986,206.722 C 269.666,206.503 270.558,205.409 270.558,203.656 L 270.558,171.9 C 270.558,169.271 270.112,168.834 266.539,168.615 L 266.539,166.861 L 275.915,166.423 L 275.915,184.163 C 277.255,181.534 279.486,178.686 283.95,178.686 C 288.416,178.686 291.542,181.971 291.542,187.447 L 291.542,203.655 C 291.542,205.409 292.434,206.503 295.113,206.721 L 295.113,208.693 L 286.184,208.693 L 286.184,187.228 C 286.184,183.069 284.398,181.534 282.612,181.534 C 279.486,181.534 275.915,185.697 275.915,191.391 L 275.915,203.655 C 275.915,205.409 276.809,206.503 279.933,206.721 L 279.933,208.693 L 266.986,208.693"
   style="fill:#382d9a"
   id="path34" />
			<path
   d="M 333.064,166.861 L 333.064,182.851 L 331.278,182.851 C 329.492,172.775 326.812,168.177 321.008,168.177 C 316.542,168.177 312.079,172.118 312.079,187.669 C 312.079,202.562 316.097,207.159 321.008,207.159 C 325.472,207.159 327.706,204.534 327.706,197.305 C 327.706,190.954 326.811,190.076 321.9,189.857 L 321.9,187.888 L 337.973,187.888 L 337.973,189.857 C 334.401,190.076 333.508,190.736 333.508,194.021 L 333.508,208.694 L 331.723,208.694 C 330.828,207.16 330.383,206.285 329.491,206.285 C 329.044,206.285 328.597,207.16 326.366,208.257 C 325.026,209.132 322.794,209.57 321.008,209.57 C 312.971,209.57 304.935,201.907 304.935,187.671 C 304.935,175.404 312.525,165.766 321.008,165.766 C 323.24,165.766 325.472,166.425 327.258,167.523 C 328.598,168.398 329.044,168.836 329.491,168.836 C 330.384,168.836 330.384,168.18 331.277,166.863 L 333.064,166.863"
   style="fill:#382d9a"
   id="path36" />
			<path
   d="M 339.314,208.694 L 339.314,206.722 C 341.994,206.503 342.885,205.409 342.885,203.656 L 342.885,187.01 C 342.885,182.851 342.439,181.534 339.314,181.534 L 339.314,179.565 L 347.796,179.124 L 347.796,186.135 C 348.689,183.07 350.921,178.687 354.492,178.687 C 356.725,178.687 358.958,180.66 358.958,184.164 C 358.958,186.573 357.618,188.107 355.832,188.107 C 354.492,188.107 353.154,187.229 353.154,184.382 C 353.154,182.851 354.046,181.534 355.832,181.534 C 355.386,180.878 354.94,180.659 354.046,180.659 C 350.028,180.659 348.242,189.638 348.242,194.895 L 348.242,203.655 C 348.242,205.409 349.135,206.503 353.154,206.721 L 353.154,208.693 L 339.314,208.693"
   style="fill:#382d9a"
   id="path38" />
			<path
   d="M 359.851,194.021 C 359.851,203.218 365.657,209.35 371.46,209.35 C 377.263,209.35 383.067,203.218 383.067,194.021 C 383.067,184.82 377.263,178.687 371.46,178.687 C 365.657,178.687 359.851,184.82 359.851,194.021 M 365.656,194.021 C 365.656,183.507 367.888,180.66 371.46,180.66 C 375.032,180.66 377.264,183.508 377.264,194.021 C 377.264,204.534 375.032,207.378 371.46,207.378 C 367.888,207.378 365.656,204.535 365.656,194.021 z "
   style="fill:#382d9a"
   id="path40" />
			<path
   d="M 411.642,208.257 L 403.159,208.695 L 403.159,203.219 C 401.819,206.723 399.587,209.351 395.124,209.351 C 390.212,209.351 387.532,206.723 387.532,200.59 L 387.532,184.602 C 387.532,181.973 386.639,181.536 383.964,181.536 L 383.964,179.567 L 392.892,179.126 L 392.892,201.685 C 392.892,205.412 394.232,206.505 396.464,206.505 C 399.587,206.505 402.715,201.685 402.715,196.651 L 402.715,184.603 C 402.715,181.974 401.819,181.537 398.695,181.537 L 398.695,179.568 L 407.623,179.127 L 407.623,203.221 C 407.623,205.631 408.963,206.287 411.643,206.287 L 411.643,208.257"
   style="fill:#382d9a"
   id="path42" />
			<path
   d="M 425.484,219.646 L 425.484,217.674 C 421.909,217.674 421.017,216.58 421.017,214.608 L 421.017,205.411 C 422.357,207.601 424.144,209.351 427.268,209.351 C 433.964,209.351 438.431,202.563 438.431,194.022 C 438.431,187.889 434.856,178.688 428.16,178.688 C 424.144,178.688 421.465,181.536 420.569,184.383 L 420.569,178.688 L 411.641,179.126 L 411.641,181.099 C 414.765,181.099 415.661,181.537 415.661,184.165 L 415.661,214.608 C 415.661,216.581 414.765,217.674 411.641,217.674 L 411.641,219.646 L 425.484,219.646 M 421.018,195.115 C 421.018,184.82 424.145,181.097 427.269,181.097 C 430.393,181.097 432.177,184.82 432.177,194.24 C 432.177,203.437 430.393,207.379 426.821,207.379 C 424.589,207.379 421.018,204.535 421.018,195.115 z "
   style="fill:#382d9a"
   id="path44" />
			<path
   d="M 250.021,134.668 C 250.021,135.106 250.466,135.543 250.466,135.981 C 250.912,136.419 251.806,136.856 252.698,136.856 C 253.144,136.856 253.592,136.637 253.592,136.637 C 254.485,136.418 254.931,135.762 254.931,135.106 C 254.931,134.668 254.485,134.45 254.485,134.231 C 254.039,134.012 253.592,133.793 253.145,133.571 L 251.806,133.352 C 250.912,133.133 250.466,132.914 250.021,132.696 C 249.573,132.477 249.126,131.818 249.126,130.943 C 249.126,130.287 249.572,129.63 250.021,128.974 C 250.466,128.536 251.359,128.318 252.252,128.318 C 253.592,128.318 254.038,128.537 254.931,128.974 C 255.378,129.412 255.825,130.068 255.825,131.162 L 254.485,131.162 C 254.485,130.724 254.485,130.287 254.039,130.068 C 254.039,129.63 253.145,129.412 252.253,129.412 C 251.807,129.412 251.359,129.412 250.913,129.85 C 250.467,130.069 250.467,130.506 250.467,130.944 C 250.467,131.382 250.467,131.6 250.913,131.819 C 251.359,132.038 251.807,132.038 252.699,132.259 L 254.039,132.697 C 254.485,132.697 254.932,132.916 255.379,133.135 C 255.825,133.573 256.272,134.233 256.272,135.108 C 256.272,135.983 255.826,136.639 254.932,137.077 C 254.486,137.515 253.593,137.733 252.7,137.733 C 251.36,137.733 250.468,137.514 250.022,136.858 C 249.127,136.42 249.127,135.545 249.127,134.67 L 250.021,134.67"
   style="fill:#382d9a"
   id="path46" />
			<path
   d="M 257.611,128.536 L 259.396,128.536 L 262.074,136.199 L 264.754,128.536 L 266.54,128.536 L 266.54,137.512 L 265.2,137.512 L 265.2,132.258 C 265.2,132.036 265.2,131.818 265.2,131.38 C 265.2,130.942 265.2,130.505 265.2,129.849 L 262.522,137.512 L 261.628,137.512 L 258.95,129.849 L 258.95,130.287 C 258.95,130.506 258.95,130.725 258.95,131.162 C 258.95,131.599 258.95,132.037 258.95,132.259 L 258.95,137.513 L 257.61,137.513 L 257.61,128.536"
   style="fill:#382d9a"
   id="path48" />
		</g>
		<path
   d="M 212.116,104.744 C 208.233,119.485 200.476,121.041 197.369,121.041 C 191.941,121.041 186.507,117.158 186.507,92.33 C 186.507,67.505 186.507,34.139 186.507,34.139 L 214.442,19.397 L 214.442,76.04 C 214.442,84.567 213.666,98.537 212.116,104.744 L 212.116,104.744 z "
   style="fill:#382d9a;fill-rule:evenodd"
   id="path50" />
		<linearGradient
   x1="222.9761"
   y1="138.2598"
   x2="222.9761"
   y2="0.00048828131"
   id="XMLID_6_"
   gradientUnits="userSpaceOnUse">
			<stop
   style="stop-color:#382d9a;stop-opacity:1"
   offset="0.0674"
   id="stop53" />
			<stop
   style="stop-color:#624d81;stop-opacity:1"
   offset="0.14669999"
   id="stop55" />
			<stop
   style="stop-color:#8a6c69;stop-opacity:1"
   offset="0.237"
   id="stop57" />
			<stop
   style="stop-color:#ad8655;stop-opacity:1"
   offset="0.33309999"
   id="stop59" />
			<stop
   style="stop-color:#c99c44;stop-opacity:1"
   offset="0.4346"
   id="stop61" />
			<stop
   style="stop-color:#dfac37;stop-opacity:1"
   offset="0.54329997"
   id="stop63" />
			<stop
   style="stop-color:#eeb82e;stop-opacity:1"
   offset="0.66250002"
   id="stop65" />
			<stop
   style="stop-color:#f7bf29;stop-opacity:1"
   offset="0.80040002"
   id="stop67" />
			<stop
   style="stop-color:#fac127;stop-opacity:1"
   offset="1"
   id="stop69" />
			<a:midPointStop
   style="stop-color:#382D9A"
   offset="0.0674" />
			<a:midPointStop
   style="stop-color:#382D9A"
   offset="0.2229" />
			<a:midPointStop
   style="stop-color:#FAC127"
   offset="1" />
		</linearGradient>
		<path
   d="M 214.442,19.397 L 220.646,20.171 L 220.646,72.16 C 220.646,86.122 219.874,97.764 218.32,105.519 C 215.22,116.381 209.008,121.04 205.132,122.595 L 197.37,121.04 L 197.37,121.04 C 196.596,121.04 195.82,121.04 195.82,121.04 C 196.595,124.144 198.925,126.468 202.028,127.247 C 202.804,129.574 205.132,131.901 208.234,132.678 C 210.563,136.554 213.667,138.109 218.32,138.109 C 223.755,138.885 227.633,136.554 232.286,133.458 C 245.479,124.145 250.134,103.192 250.134,75.26 L 250.134,0 L 214.442,19.397 L 214.442,19.397 z M 204.354,127.248 C 215.22,125.692 221.423,113.278 222.977,107.848 C 225.305,99.313 226.081,89.23 226.081,77.586 L 226.081,13.188 L 232.286,13.962 L 232.286,74.486 C 232.286,89.229 231.511,102.416 228.41,111.726 C 224.529,120.261 219.098,126.468 212.117,128.019 L 204.354,127.248 L 204.354,127.248 z M 244.701,74.486 C 244.701,94.657 242.373,108.623 237.72,117.933 C 233.063,127.247 226.08,132.678 219.097,134.226 L 210.562,132.678 C 222.2,132.678 229.18,121.812 232.285,115.605 C 236.166,107.071 237.72,94.657 237.72,76.812 L 237.72,6.2 L 244.701,7.762 L 244.701,74.486 L 244.701,74.486 z "
   style="fill:url(#XMLID_6_);fill-rule:evenodd"
   id="path71" />
	</g>
</svg>